{
.appVersion = "1230";
copyright = ...;
date = "2019-09-26 08:24:55 +0000";
designer = Yanone;
designerURL = "https://yanone.de";
disablesNiceNames = 1;
familyName = "Heisse Antiqua";
featurePrefixes = (
{
automatic = 1;
code = "languagesystem DFLT dflt;\012";
name = Languagesystems;
}
);
features = (
{
automatic = 1;
code = "feature lnum;\012feature onum;\012feature case;\012";
name = aalt;
},
{
automatic = 1;
code = "sub zero by zero.lf;\012sub one by one.lf;\012sub two by two.lf;\012sub three by three.lf;\012sub four by four.lf;\012sub five by five.lf;\012sub six by six.lf;\012sub seven by seven.lf;\012sub eight by eight.lf;\012sub nine by nine.lf;\012";
name = lnum;
},
{
automatic = 1;
code = "sub zero.lf by zero;\012sub one.lf by one;\012sub two.lf by two;\012sub three.lf by three;\012sub four.lf by four;\012sub five.lf by five;\012sub six.lf by six;\012sub seven.lf by seven;\012sub eight.lf by eight;\012sub nine.lf by nine;\012";
name = onum;
},
{
automatic = 1;
code = "sub parenleft by parenleft.case;\012sub parenright by parenright.case;\012sub bracketleft by bracketleft.case;\012sub bracketright by bracketright.case;\012sub hyphen by hyphen.case;\012sub endash by endash.case;\012sub emdash by emdash.case;\012sub guillemotleft by guillemotleft.case;\012sub guillemotright by guillemotright.case;\012sub guilsinglleft by guilsinglleft.case;\012sub guilsinglright by guilsinglright.case;\012sub zero by zero.lf;\012sub one by one.lf;\012sub two by two.lf;\012sub three by three.lf;\012sub four by four.lf;\012sub five by five.lf;\012sub six by six.lf;\012sub seven by seven.lf;\012sub eight by eight.lf;\012sub nine by nine.lf;\012";
name = case;
},
{
automatic = 1;
code = "sub longs i by longs_i;\012sub longs l by longs_l;\012sub longs longs by longs_longs;\012";
name = hlig;
},
{
automatic = 1;
code = "sub S S by S_S;\012sub longs i by longs_i;\012sub longs l by longs_l;\012sub longs longs by longs_longs;\012";
name = dlig;
},
{
automatic = 1;

glyphs = (
{
glyphname = A;
layers = (
{
layerId = "F0C8EF09-FA88-4A15-9CCE-7A8BC6200D57";
paths = (
{
closed = 1;
nodes = (
"23 -8 LINE",
"57 -3 OFFCURVE",
"106 -1 OFFCURVE",
"136 -1 CURVE SMOOTH",
"184 -1 OFFCURVE",
"244 -4 OFFCURVE",
"284 -8 CURVE",
"288 30 LINE",
"244 38 OFFCURVE",
"183 59 OFFCURVE",
"158 81 CURVE",
"258 263 LINE",
"511 263 LINE",
"529 192 OFFCURVE",
"544 124 OFFCURVE",
"553 65 CURVE",
"524 48 OFFCURVE",
"485 35 OFFCURVE",
"455 28 CURVE",
"457 -8 LINE",
"491 -3 OFFCURVE",
"575 -1 OFFCURVE",
"613 -1 CURVE SMOOTH",
"661 -1 OFFCURVE",
"701 -4 OFFCURVE",
"741 -8 CURVE",
"745 37 LINE",
"720 44 OFFCURVE",
"702 52 OFFCURVE",
"685 64 CURVE",
"487 711 LINE",
"470 711 LINE",
"337 665 LINE",
"331 638 LINE",
"397 622 LINE",
"89 71 LINE",
"71 53 OFFCURVE",
"40 38 OFFCURVE",
"16 30 CURVE"
);
},
{
closed = 1;
nodes = (
"443 500 LINE",
"462 437 OFFCURVE",
"481 374 OFFCURVE",
"498 312 CURVE",
"285 312 LINE",
"388 499 LINE",
"426 579 LINE"
);
}
);
width = 773;
}
);
note = A;
unicode = 0041;
},
{
glyphname = Aacute;
layers = (
{
layerId = "F0C8EF09-FA88-4A15-9CCE-7A8BC6200D57";
paths = (
{
closed = 1;
nodes = (
"23 -8 LINE",
"57 -3 OFFCURVE",
"106 -1 OFFCURVE",
"136 -1 CURVE SMOOTH",
"184 -1 OFFCURVE",
"244 -4 OFFCURVE",
"284 -8 CURVE",
"288 30 LINE",
"244 38 OFFCURVE",
"183 59 OFFCURVE",
"158 81 CURVE",
"258 263 LINE",
"511 263 LINE",
"529 192 OFFCURVE",
"544 124 OFFCURVE",
"553 65 CURVE",
"524 48 OFFCURVE",
"485 35 OFFCURVE",
"455 28 CURVE",
"457 -8 LINE",
"491 -3 OFFCURVE",
"575 -1 OFFCURVE",
"613 -1 CURVE SMOOTH",
"661 -1 OFFCURVE",
"701 -4 OFFCURVE",
"741 -8 CURVE",
"745 37 LINE",
"720 44 OFFCURVE",
"702 52 OFFCURVE",
"685 64 CURVE",
"487 711 LINE",
"470 711 LINE",
"337 665 LINE",
"331 638 LINE",
"397 622 LINE",
"89 71 LINE",
"71 53 OFFCURVE",
"40 38 OFFCURVE",
"16 30 CURVE"
);
},
{
closed = 1;
nodes = (
"443 500 LINE",
"462 437 OFFCURVE",
"481 374 OFFCURVE",
"498 312 CURVE",
"285 312 LINE",
"388 499 LINE",
"426 579 LINE"
);
},
{
closed = 1;
nodes = (
"389 729 LINE",
"466 750 OFFCURVE",
"511 797 OFFCURVE",
"530 856 CURVE",
"477 892 LINE",
"447 888 LINE",
"440 845 OFFCURVE",
"410 798 OFFCURVE",
"365 764 CURVE"
);
}
);
width = 773;
}
);
note = Aacute;
unicode = 00C1;
},
{
glyphname = Acircumflex;
layers = (
{
layerId = "F0C8EF09-FA88-4A15-9CCE-7A8BC6200D57";
paths = (
{
closed = 1;
nodes = (
"23 -8 LINE",
"57 -3 OFFCURVE",
"106 -1 OFFCURVE",
"136 -1 CURVE SMOOTH",
"184 -1 OFFCURVE",
"244 -4 OFFCURVE",
"284 -8 CURVE",
"288 30 LINE",
"244 38 OFFCURVE",
"183 59 OFFCURVE",
"158 81 CURVE",
"258 263 LINE",
"511 263 LINE",
"529 192 OFFCURVE",
"544 124 OFFCURVE",
"553 65 CURVE",
"524 48 OFFCURVE",
"485 35 OFFCURVE",
"455 28 CURVE",
"457 -8 LINE",
"491 -3 OFFCURVE",
"575 -1 OFFCURVE",
"613 -1 CURVE SMOOTH",
"661 -1 OFFCURVE",
"701 -4 OFFCURVE",
"741 -8 CURVE",
"745 37 LINE",
"720 44 OFFCURVE",
"702 52 OFFCURVE",
"685 64 CURVE",
"487 711 LINE",
"470 711 LINE",
"337 665 LINE",
"331 638 LINE",
"397 622 LINE",
"89 71 LINE",
"71 53 OFFCURVE",
"40 38 OFFCURVE",
"16 30 CURVE"
);
},
{
closed = 1;
nodes = (
"443 500 LINE",
"462 437 OFFCURVE",
"481 374 OFFCURVE",
"498 312 CURVE",
"285 312 LINE",
"388 499 LINE",
"426 579 LINE"
);
},
{
closed = 1;
nodes = (
"427 866 LINE",
"330 767 LINE",
"350 744 LINE",
"437 784 LINE",
"520 745 LINE",
"550 767 LINE",
"474 866 LINE"
);
}
);
width = 773;
}
);
note = Acircumflex;
unicode = 00C2;
},
{
glyphname = Adieresis;
layers = (
{
layerId = "F0C8EF09-FA88-4A15-9CCE-7A8BC6200D57";
paths = (
{
closed = 1;
nodes = (
"23 -8 LINE",
"57 -3 OFFCURVE",
"106 -1 OFFCURVE",
"136 -1 CURVE SMOOTH",
"184 -1 OFFCURVE",
"244 -4 OFFCURVE",
"284 -8 CURVE",
"288 30 LINE",
"244 38 OFFCURVE",
"183 59 OFFCURVE",
"158 81 CURVE",
"258 263 LINE",
"511 263 LINE",
"529 192 OFFCURVE",
"544 124 OFFCURVE",
"553 65 CURVE",
"524 48 OFFCURVE",
"485 35 OFFCURVE",
"455 28 CURVE",
"457 -8 LINE",
"491 -3 OFFCURVE",
"575 -1 OFFCURVE",
"613 -1 CURVE SMOOTH",
"661 -1 OFFCURVE",
"701 -4 OFFCURVE",
"741 -8 CURVE",
"745 37 LINE",
"720 44 OFFCURVE",
"702 52 OFFCURVE",
"685 64 CURVE",
"487 711 LINE",
"470 711 LINE",
"337 665 LINE",
"331 638 LINE",
"397 622 LINE",
"89 71 LINE",
"71 53 OFFCURVE",
"40 38 OFFCURVE",
"16 30 CURVE"
);
},
{
closed = 1;
nodes = (
"443 500 LINE",
"462 437 OFFCURVE",
"481 374 OFFCURVE",
"498 312 CURVE",
"285 312 LINE",
"388 499 LINE",
"426 579 LINE"
);
},
{
closed = 1;
nodes = (
"286 793 OFFCURVE",
"309 766 OFFCURVE",
"343 766 CURVE SMOOTH",
"378 766 OFFCURVE",
"409 797 OFFCURVE",
"409 837 CURVE SMOOTH",
"409 869 OFFCURVE",
"385 896 OFFCURVE",
"351 896 CURVE SMOOTH",
"317 896 OFFCURVE",
"286 865 OFFCURVE",
"286 826 CURVE SMOOTH"
);
},
{
closed = 1;
nodes = (
"482 793 OFFCURVE",
"505 766 OFFCURVE",
"540 766 CURVE SMOOTH",
"574 766 OFFCURVE",
"606 797 OFFCURVE",
"606 837 CURVE SMOOTH",
"606 869 OFFCURVE",
"582 896 OFFCURVE",
"547 896 CURVE SMOOTH",
"513 896 OFFCURVE",
"482 865 OFFCURVE",
"482 826 CURVE SMOOTH"
);
}
);
width = 773;
}
);
note = Adieresis;
unicode = 00C4;
},
{
glyphname = Agrave;
layers = (
{
layerId = "F0C8EF09-FA88-4A15-9CCE-7A8BC6200D57";
paths = (
{
closed = 1;
nodes = (
"23 -8 LINE",
"57 -3 OFFCURVE",
"106 -1 OFFCURVE",
"136 -1 CURVE SMOOTH",
"184 -1 OFFCURVE",
"244 -4 OFFCURVE",
"284 -8 CURVE",
"288 30 LINE",
"244 38 OFFCURVE",
"183 59 OFFCURVE",
"158 81 CURVE",
"258 263 LINE",
"511 263 LINE",
"529 192 OFFCURVE",
"544 124 OFFCURVE",
"553 65 CURVE",
"524 48 OFFCURVE",
"485 35 OFFCURVE",
"455 28 CURVE",
"457 -8 LINE",
"491 -3 OFFCURVE",
"575 -1 OFFCURVE",
"613 -1 CURVE SMOOTH",
"661 -1 OFFCURVE",
"701 -4 OFFCURVE",
"741 -8 CURVE",
"745 37 LINE",
"720 44 OFFCURVE",
"702 52 OFFCURVE",
"685 64 CURVE",
"487 711 LINE",
"470 711 LINE",
"337 665 LINE",
"331 638 LINE",
"397 622 LINE",
"89 71 LINE",
"71 53 OFFCURVE",
"40 38 OFFCURVE",
"16 30 CURVE"
);
},
{
closed = 1;
nodes = (
"443 500 LINE",
"462 437 OFFCURVE",
"481 374 OFFCURVE",
"498 312 CURVE",
"285 312 LINE",
"388 499 LINE",
"426 579 LINE"
);
},
{
closed = 1;
nodes = (
"518 764 LINE",
"473 798 OFFCURVE",
"443 845 OFFCURVE",
"436 888 CURVE",
"406 892 LINE",
"353 856 LINE",
"372 797 OFFCURVE",
"417 750 OFFCURVE",
"494 729 CURVE"
);
}
);
width = 773;
}
);
note = Agrave;
unicode = 00C0;
},
{
glyphname = Atilde;
layers = (
{
layerId = "F0C8EF09-FA88-4A15-9CCE-7A8BC6200D57";
paths = (
{
closed = 1;
nodes = (
"23 -8 LINE",
"57 -3 OFFCURVE",
"106 -1 OFFCURVE",
"136 -1 CURVE SMOOTH",
"184 -1 OFFCURVE",
"244 -4 OFFCURVE",
"284 -8 CURVE",
"288 30 LINE",
"244 38 OFFCURVE",
"183 59 OFFCURVE",
"158 81 CURVE",
"258 263 LINE",
"511 263 LINE",
"529 192 OFFCURVE",
"544 124 OFFCURVE",
"553 65 CURVE",
"524 48 OFFCURVE",
"485 35 OFFCURVE",
"455 28 CURVE",
"457 -8 LINE",
"491 -3 OFFCURVE",
"575 -1 OFFCURVE",
"613 -1 CURVE SMOOTH",
"661 -1 OFFCURVE",
"701 -4 OFFCURVE",
"741 -8 CURVE",
"745 37 LINE",
"720 44 OFFCURVE",
"702 52 OFFCURVE",
"685 64 CURVE",
"487 711 LINE",
"470 711 LINE",
"337 665 LINE",
"331 638 LINE",
"397 622 LINE",
"89 71 LINE",
"71 53 OFFCURVE",
"40 38 OFFCURVE",
"16 30 CURVE"
);
},
{
closed = 1;
nodes = (
"443 500 LINE",
"462 437 OFFCURVE",
"481 374 OFFCURVE",
"498 312 CURVE",
"285 312 LINE",
"388 499 LINE",
"426 579 LINE"
);
},
{
closed = 1;
nodes = (
"304 774 LINE",
"322 787 OFFCURVE",
"348 804 OFFCURVE",
"373 804 CURVE SMOOTH",
"422 804 OFFCURVE",
"437 761 OFFCURVE",
"501 761 CURVE SMOOTH",
"545 761 OFFCURVE",
"576 792 OFFCURVE",
"605 830 CURVE",
"590 851 LINE",
"568 836 OFFCURVE",
"545 825 OFFCURVE",
"513 825 CURVE SMOOTH",
"465 825 OFFCURVE",
"451 867 OFFCURVE",
"395 867 CURVE SMOOTH",
"350 867 OFFCURVE",
"302 819 OFFCURVE",
"285 795 CURVE"
);
}
);
width = 773;
}
);
note = Atilde;
unicode = 00C3;
},
{
glyphname = B;
layers = (
{
layerId = "F0C8EF09-FA88-4A15-9CCE-7A8BC6200D57";
paths = (
{
closed = 1;
nodes = (
"136 234 OFFCURVE",
"116 134 OFFCURVE",
"99 58 CURVE",
"71 43 OFFCURVE",
"33 31 OFFCURVE",
"3 26 CURVE",
"4 -12 LINE",
"40 -6 OFFCURVE",
"93 -1 OFFCURVE",
"141 -1 CURVE SMOOTH",
"195 -1 OFFCURVE",
"252 -8 OFFCURVE",
"312 -8 CURVE SMOOTH",
"485 -8 OFFCURVE",
"607 71 OFFCURVE",
"607 206 CURVE SMOOTH",
"607 299 OFFCURVE",
"534 352 OFFCURVE",
"442 368 CURVE",
"526 387 OFFCURVE",
"612 458 OFFCURVE",
"612 549 CURVE SMOOTH",
"612 658 OFFCURVE",
"507 704 OFFCURVE",
"392 704 CURVE SMOOTH",
"341 704 OFFCURVE",
"312 700 OFFCURVE",
"266 700 CURVE SMOOTH",
"215 700 OFFCURVE",
"162 701 OFFCURVE",
"112 705 CURVE",
"100 667 LINE",
"130 662 OFFCURVE",
"160 655 OFFCURVE",
"184 638 CURVE",
"178 552 OFFCURVE",
"165 445 OFFCURVE",
"153 359 CURVE SMOOTH"
);
},
{
closed = 1;
nodes = (
"268 338 OFFCURVE",
"286 339 OFFCURVE",
"301 339 CURVE SMOOTH",
"445 339 OFFCURVE",
"496 275 OFFCURVE",
"496 196 CURVE SMOOTH",
"496 83 OFFCURVE",
"387 40 OFFCURVE",
"312 40 CURVE SMOOTH",
"274 40 OFFCURVE",
"248 46 OFFCURVE",
"223 56 CURVE",
"226 132 OFFCURVE",
"234 225 OFFCURVE",
"250 337 CURVE"
);
},
{
closed = 1;
nodes = (
"325 649 OFFCURVE",
"344 651 OFFCURVE",
"358 651 CURVE SMOOTH",
"463 651 OFFCURVE",
"500 596 OFFCURVE",
"500 529 CURVE SMOOTH",
"500 449 OFFCURVE",
"424 392 OFFCURVE",
"315 392 CURVE SMOOTH",
"297 392 OFFCURVE",
"279 392 OFFCURVE",
"258 393 CURVE",
"271 481 OFFCURVE",
"288 576 OFFCURVE",
"304 645 CURVE"
);
}
);
width = 678;
}
);
note = B;
unicode = 0042;
},
{
glyphname = C;
layers = (
{
layerId = "F0C8EF09-FA88-4A15-9CCE-7A8BC6200D57";
paths = (
{
closed = 1;
nodes = (
"724 183 LINE",
"688 192 LINE",
"627 99 LINE",
"579 62 OFFCURVE",
"512 40 OFFCURVE",
"446 40 CURVE SMOOTH",
"291 40 OFFCURVE",
"209 147 OFFCURVE",
"209 313 CURVE SMOOTH",
"209 519 OFFCURVE",
"367 659 OFFCURVE",
"518 659 CURVE SMOOTH",
"576 659 OFFCURVE",
"629 643 OFFCURVE",
"674 604 CURVE",
"720 516 LINE",
"761 528 LINE",
"761 656 LINE",
"671 700 OFFCURVE",
"604 710 OFFCURVE",
"530 710 CURVE SMOOTH",
"362 710 OFFCURVE",
"81 597 OFFCURVE",
"81 295 CURVE SMOOTH",
"81 94 OFFCURVE",
"233 -18 OFFCURVE",
"422 -18 CURVE SMOOTH",
"543 -18 OFFCURVE",
"611 8 OFFCURVE",
"700 59 CURVE"
);
}
);
width = 791;
}
);
leftKerningGroup = C;
note = C;
unicode = 0043;
},
{
glyphname = Ccedilla;
layers = (
{
layerId = "F0C8EF09-FA88-4A15-9CCE-7A8BC6200D57";
paths = (
{
closed = 1;
nodes = (
"724 183 LINE",
"688 192 LINE",
"627 99 LINE",
"579 62 OFFCURVE",
"512 40 OFFCURVE",
"446 40 CURVE SMOOTH",
"291 40 OFFCURVE",
"209 147 OFFCURVE",
"209 313 CURVE SMOOTH",
"209 519 OFFCURVE",
"367 659 OFFCURVE",
"518 659 CURVE SMOOTH",
"576 659 OFFCURVE",
"629 643 OFFCURVE",
"674 604 CURVE",
"720 516 LINE",
"761 528 LINE",
"761 656 LINE",
"671 700 OFFCURVE",
"604 710 OFFCURVE",
"530 710 CURVE SMOOTH",
"362 710 OFFCURVE",
"81 597 OFFCURVE",
"81 295 CURVE SMOOTH",
"81 94 OFFCURVE",
"232 -17 OFFCURVE",
"420 -18 CURVE",
"411 -87 LINE",
"425 -82 OFFCURVE",
"440 -79 OFFCURVE",
"455 -79 CURVE SMOOTH",
"475 -79 OFFCURVE",
"488 -88 OFFCURVE",
"488 -108 CURVE SMOOTH",
"488 -137 OFFCURVE",
"465 -146 OFFCURVE",
"447 -146 CURVE SMOOTH",
"429 -146 OFFCURVE",
"418 -140 OFFCURVE",
"406 -131 CURVE",
"388 -161 LINE",
"401 -173 OFFCURVE",
"417 -180 OFFCURVE",
"439 -180 CURVE SMOOTH",
"474 -180 OFFCURVE",
"525 -155 OFFCURVE",
"525 -100 CURVE SMOOTH",
"525 -71 OFFCURVE",
"509 -48 OFFCURVE",
"481 -48 CURVE SMOOTH",
"467 -48 OFFCURVE",
"455 -51 OFFCURVE",
"443 -57 CURVE",
"448 -17 LINE",
"553 -14 OFFCURVE",
"617 12 OFFCURVE",
"700 59 CURVE"
);
}
);
width = 791;
}
);
leftKerningGroup = C;
note = Ccedilla;
unicode = 00C7;
},
{
glyphname = D;
layers = (
{
layerId = "F0C8EF09-FA88-4A15-9CCE-7A8BC6200D57";
paths = (
{
closed = 1;
nodes = (
"341 704 OFFCURVE",
"312 700 OFFCURVE",
"266 700 CURVE SMOOTH",
"215 700 OFFCURVE",
"162 701 OFFCURVE",
"112 705 CURVE",
"100 667 LINE",
"130 662 OFFCURVE",
"160 653 OFFCURVE",
"184 636 CURVE",
"178 550 OFFCURVE",
"165 444 OFFCURVE",
"153 359 CURVE SMOOTH",
"136 234 OFFCURVE",
"116 135 OFFCURVE",
"99 58 CURVE",
"71 43 OFFCURVE",
"33 28 OFFCURVE",
"3 26 CURVE",
"4 -12 LINE",
"40 -6 OFFCURVE",
"93 -1 OFFCURVE",
"141 -1 CURVE SMOOTH",
"195 -1 OFFCURVE",
"252 -8 OFFCURVE",
"312 -8 CURVE SMOOTH",
"560 -8 OFFCURVE",
"805 107 OFFCURVE",
"805 408 CURVE SMOOTH",
"805 591 OFFCURVE",
"650 704 OFFCURVE",
"392 704 CURVE SMOOTH"
);
},
{
closed = 1;
nodes = (
"266 450 OFFCURVE",
"286 566 OFFCURVE",
"304 648 CURVE",
"335 653 OFFCURVE",
"373 655 OFFCURVE",
"388 655 CURVE SMOOTH",
"603 655 OFFCURVE",
"681 525 OFFCURVE",
"681 382 CURVE SMOOTH",
"681 132 OFFCURVE",
"479 40 OFFCURVE",
"365 40 CURVE SMOOTH",
"304 40 OFFCURVE",
"258 53 OFFCURVE",
"224 72 CURVE",
"227 148 OFFCURVE",
"236 239 OFFCURVE",
"252 349 CURVE SMOOTH"
);
}
);
width = 850;
}
);
note = D;
rightKerningGroup = D;
unicode = 0044;
},
{
glyphname = E;
layers = (
{
layerId = "F0C8EF09-FA88-4A15-9CCE-7A8BC6200D57";
paths = (
{
closed = 1;
nodes = (
"477 244 LINE",
"472 278 OFFCURVE",
"471 324 OFFCURVE",
"471 362 CURVE SMOOTH",
"471 403 OFFCURVE",
"474 440 OFFCURVE",
"479 480 CURVE",
"434 484 LINE",
"427 450 OFFCURVE",
"415 413 OFFCURVE",
"397 386 CURVE",
"257 386 LINE",
"269 475 OFFCURVE",
"285 570 OFFCURVE",
"299 642 CURVE",
"329 652 OFFCURVE",
"365 659 OFFCURVE",
"414 659 CURVE SMOOTH",
"457 659 OFFCURVE",
"507 651 OFFCURVE",
"541 634 CURVE",
"580 554 LINE",
"615 566 LINE",
"622 712 LINE",
"542 703 OFFCURVE",
"428 700 OFFCURVE",
"323 700 CURVE SMOOTH",
"221 700 OFFCURVE",
"137 702 OFFCURVE",
"104 707 CURVE",
"98 669 LINE",
"130 661 OFFCURVE",
"162 648 OFFCURVE",
"185 630 CURVE",
"179 545 OFFCURVE",
"165 442 OFFCURVE",
"153 359 CURVE SMOOTH",
"136 238 OFFCURVE",
"118 142 OFFCURVE",
"102 66 CURVE",
"73 48 OFFCURVE",
"35 35 OFFCURVE",
"2 28 CURVE",
"7 -10 LINE",
"41 -5 OFFCURVE",
"122 -1 OFFCURVE",
"160 -1 CURVE SMOOTH",
"225 -1 OFFCURVE",
"443 -5 OFFCURVE",
"519 -14 CURVE",
"584 133 LINE",
"559 146 LINE",
"485 67 LINE",
"440 51 OFFCURVE",
"384 40 OFFCURVE",
"327 40 CURVE SMOOTH",
"280 40 OFFCURVE",
"246 45 OFFCURVE",
"219 55 CURVE",
"222 132 OFFCURVE",
"233 224 OFFCURVE",
"250 337 CURVE",
"396 337 LINE",
"415 311 OFFCURVE",
"427 279 OFFCURVE",
"437 242 CURVE"
);
}
);
width = 634;
}
);
note = E;
unicode = 0045;
},
{
glyphname = Eacute;
layers = (
{
layerId = "F0C8EF09-FA88-4A15-9CCE-7A8BC6200D57";
paths = (
{
closed = 1;
nodes = (
"477 244 LINE",
"472 278 OFFCURVE",
"471 324 OFFCURVE",
"471 362 CURVE SMOOTH",
"471 403 OFFCURVE",
"474 440 OFFCURVE",
"479 480 CURVE",
"434 484 LINE",
"427 450 OFFCURVE",
"415 413 OFFCURVE",
"397 386 CURVE",
"257 386 LINE",
"269 475 OFFCURVE",
"285 570 OFFCURVE",
"299 642 CURVE",
"329 652 OFFCURVE",
"365 659 OFFCURVE",
"414 659 CURVE SMOOTH",
"457 659 OFFCURVE",
"507 651 OFFCURVE",
"541 634 CURVE",
"580 554 LINE",
"615 566 LINE",
"622 712 LINE",
"542 703 OFFCURVE",
"428 700 OFFCURVE",
"323 700 CURVE SMOOTH",
"221 700 OFFCURVE",
"137 702 OFFCURVE",
"104 707 CURVE",
"98 669 LINE",
"130 661 OFFCURVE",
"162 648 OFFCURVE",
"185 630 CURVE",
"179 545 OFFCURVE",
"165 442 OFFCURVE",
"153 359 CURVE SMOOTH",
"136 238 OFFCURVE",
"118 142 OFFCURVE",
"102 66 CURVE",
"73 48 OFFCURVE",
"35 35 OFFCURVE",
"2 28 CURVE",
"7 -10 LINE",
"41 -5 OFFCURVE",
"122 -1 OFFCURVE",
"160 -1 CURVE SMOOTH",
"225 -1 OFFCURVE",
"443 -5 OFFCURVE",
"519 -14 CURVE",
"584 133 LINE",
"559 146 LINE",
"485 67 LINE",
"440 51 OFFCURVE",
"384 40 OFFCURVE",
"327 40 CURVE SMOOTH",
"280 40 OFFCURVE",
"246 45 OFFCURVE",
"219 55 CURVE",
"222 132 OFFCURVE",
"233 224 OFFCURVE",
"250 337 CURVE",
"396 337 LINE",
"415 311 OFFCURVE",
"427 279 OFFCURVE",
"437 242 CURVE"
);
},
{
closed = 1;
nodes = (
"331 729 LINE",
"408 750 OFFCURVE",
"453 797 OFFCURVE",
"472 856 CURVE",
"419 892 LINE",
"389 888 LINE",
"382 845 OFFCURVE",
"352 798 OFFCURVE",
"307 764 CURVE"
);
}
);
width = 634;
}
);
note = Eacute;
unicode = 00C9;
},
{
glyphname = Ecircumflex;
layers = (
{
layerId = "F0C8EF09-FA88-4A15-9CCE-7A8BC6200D57";
paths = (
{
closed = 1;
nodes = (
"477 244 LINE",
"472 278 OFFCURVE",
"471 324 OFFCURVE",
"471 362 CURVE SMOOTH",
"471 403 OFFCURVE",
"474 440 OFFCURVE",
"479 480 CURVE",
"434 484 LINE",
"427 450 OFFCURVE",
"415 413 OFFCURVE",
"397 386 CURVE",
"257 386 LINE",
"269 475 OFFCURVE",
"285 570 OFFCURVE",
"299 642 CURVE",
"329 652 OFFCURVE",
"365 659 OFFCURVE",
"414 659 CURVE SMOOTH",
"457 659 OFFCURVE",
"507 651 OFFCURVE",
"541 634 CURVE",
"580 554 LINE",
"615 566 LINE",
"622 712 LINE",
"542 703 OFFCURVE",
"428 700 OFFCURVE",
"323 700 CURVE SMOOTH",
"221 700 OFFCURVE",
"137 702 OFFCURVE",
"104 707 CURVE",
"98 669 LINE",
"130 661 OFFCURVE",
"162 648 OFFCURVE",
"185 630 CURVE",
"179 545 OFFCURVE",
"165 442 OFFCURVE",
"153 359 CURVE SMOOTH",
"136 238 OFFCURVE",
"118 142 OFFCURVE",
"102 66 CURVE",
"73 48 OFFCURVE",
"35 35 OFFCURVE",
"2 28 CURVE",
"7 -10 LINE",
"41 -5 OFFCURVE",
"122 -1 OFFCURVE",
"160 -1 CURVE SMOOTH",
"225 -1 OFFCURVE",
"443 -5 OFFCURVE",
"519 -14 CURVE",
"584 133 LINE",
"559 146 LINE",
"485 67 LINE",
"440 51 OFFCURVE",
"384 40 OFFCURVE",
"327 40 CURVE SMOOTH",
"280 40 OFFCURVE",
"246 45 OFFCURVE",
"219 55 CURVE",
"222 132 OFFCURVE",
"233 224 OFFCURVE",
"250 337 CURVE",
"396 337 LINE",
"415 311 OFFCURVE",
"427 279 OFFCURVE",
"437 242 CURVE"
);
},
{
closed = 1;
nodes = (
"369 866 LINE",
"272 767 LINE",
"292 744 LINE",
"379 784 LINE",
"462 745 LINE",
"492 767 LINE",
"416 866 LINE"
);
}
);
width = 634;
}
);
note = Ecircumflex;
unicode = 00CA;
},
{
glyphname = Edieresis;
layers = (
{
layerId = "F0C8EF09-FA88-4A15-9CCE-7A8BC6200D57";
paths = (
{
closed = 1;
nodes = (
"477 244 LINE",
"472 278 OFFCURVE",
"471 324 OFFCURVE",
"471 362 CURVE SMOOTH",
"471 403 OFFCURVE",
"474 440 OFFCURVE",
"479 480 CURVE",
"434 484 LINE",
"427 450 OFFCURVE",
"415 413 OFFCURVE",
"397 386 CURVE",
"257 386 LINE",
"269 475 OFFCURVE",
"285 570 OFFCURVE",
"299 642 CURVE",
"329 652 OFFCURVE",
"365 659 OFFCURVE",
"414 659 CURVE SMOOTH",
"457 659 OFFCURVE",
"507 651 OFFCURVE",
"541 634 CURVE",
"580 554 LINE",
"615 566 LINE",
"622 712 LINE",
"542 703 OFFCURVE",
"428 700 OFFCURVE",
"323 700 CURVE SMOOTH",
"221 700 OFFCURVE",
"137 702 OFFCURVE",
"104 707 CURVE",
"98 669 LINE",
"130 661 OFFCURVE",
"162 648 OFFCURVE",
"185 630 CURVE",
"179 545 OFFCURVE",
"165 442 OFFCURVE",
"153 359 CURVE SMOOTH",
"136 238 OFFCURVE",
"118 142 OFFCURVE",
"102 66 CURVE",
"73 48 OFFCURVE",
"35 35 OFFCURVE",
"2 28 CURVE",
"7 -10 LINE",
"41 -5 OFFCURVE",
"122 -1 OFFCURVE",
"160 -1 CURVE SMOOTH",
"225 -1 OFFCURVE",
"443 -5 OFFCURVE",
"519 -14 CURVE",
"584 133 LINE",
"559 146 LINE",
"485 67 LINE",
"440 51 OFFCURVE",
"384 40 OFFCURVE",
"327 40 CURVE SMOOTH",
"280 40 OFFCURVE",
"246 45 OFFCURVE",
"219 55 CURVE",
"222 132 OFFCURVE",
"233 224 OFFCURVE",
"250 337 CURVE",
"396 337 LINE",
"415 311 OFFCURVE",
"427 279 OFFCURVE",
"437 242 CURVE"
);
},
{
closed = 1;
nodes = (
"228 793 OFFCURVE",
"251 766 OFFCURVE",
"285 766 CURVE SMOOTH",
"320 766 OFFCURVE",
"351 797 OFFCURVE",
"351 837 CURVE SMOOTH",
"351 869 OFFCURVE",
"327 896 OFFCURVE",
"293 896 CURVE SMOOTH",
"259 896 OFFCURVE",
"228 865 OFFCURVE",
"228 826 CURVE SMOOTH"
);
},
{
closed = 1;
nodes = (
"424 793 OFFCURVE",
"447 766 OFFCURVE",
"482 766 CURVE SMOOTH",
"516 766 OFFCURVE",
"548 797 OFFCURVE",
"548 837 CURVE SMOOTH",
"548 869 OFFCURVE",
"524 896 OFFCURVE",
"489 896 CURVE SMOOTH",
"455 896 OFFCURVE",
"424 865 OFFCURVE",
"424 826 CURVE SMOOTH"
);
}
);
width = 634;
}
);
note = Edieresis;
unicode = 00CB;
},
{
glyphname = Egrave;
layers = (
{
layerId = "F0C8EF09-FA88-4A15-9CCE-7A8BC6200D57";
paths = (
{
closed = 1;
nodes = (
"477 244 LINE",
"472 278 OFFCURVE",
"471 324 OFFCURVE",
"471 362 CURVE SMOOTH",
"471 403 OFFCURVE",
"474 440 OFFCURVE",
"479 480 CURVE",
"434 484 LINE",
"427 450 OFFCURVE",
"415 413 OFFCURVE",
"397 386 CURVE",
"257 386 LINE",
"269 475 OFFCURVE",
"285 570 OFFCURVE",
"299 642 CURVE",
"329 652 OFFCURVE",
"365 659 OFFCURVE",
"414 659 CURVE SMOOTH",
"457 659 OFFCURVE",
"507 651 OFFCURVE",
"541 634 CURVE",
"580 554 LINE",
"615 566 LINE",
"622 712 LINE",
"542 703 OFFCURVE",
"428 700 OFFCURVE",
"323 700 CURVE SMOOTH",
"221 700 OFFCURVE",
"137 702 OFFCURVE",
"104 707 CURVE",
"98 669 LINE",
"130 661 OFFCURVE",
"162 648 OFFCURVE",
"185 630 CURVE",
"179 545 OFFCURVE",
"165 442 OFFCURVE",
"153 359 CURVE SMOOTH",
"136 238 OFFCURVE",
"118 142 OFFCURVE",
"102 66 CURVE",
"73 48 OFFCURVE",
"35 35 OFFCURVE",
"2 28 CURVE",
"7 -10 LINE",
"41 -5 OFFCURVE",
"122 -1 OFFCURVE",
"160 -1 CURVE SMOOTH",
"225 -1 OFFCURVE",
"443 -5 OFFCURVE",
"519 -14 CURVE",
"584 133 LINE",
"559 146 LINE",
"485 67 LINE",
"440 51 OFFCURVE",
"384 40 OFFCURVE",
"327 40 CURVE SMOOTH",
"280 40 OFFCURVE",
"246 45 OFFCURVE",
"219 55 CURVE",
"222 132 OFFCURVE",
"233 224 OFFCURVE",
"250 337 CURVE",
"396 337 LINE",
"415 311 OFFCURVE",
"427 279 OFFCURVE",
"437 242 CURVE"
);
},
{
closed = 1;
nodes = (
"460 764 LINE",
"415 798 OFFCURVE",
"385 845 OFFCURVE",
"378 888 CURVE",
"348 892 LINE",
"295 856 LINE",
"314 797 OFFCURVE",
"359 750 OFFCURVE",
"436 729 CURVE"
);
}
);
width = 634;
}
);
note = Egrave;
unicode = 00C8;
},
{
glyphname = F;
layers = (
{
layerId = "F0C8EF09-FA88-4A15-9CCE-7A8BC6200D57";
paths = (
{
closed = 1;
nodes = (
"18 -8 LINE",
"73 -4 OFFCURVE",
"136 -1 OFFCURVE",
"174 -1 CURVE SMOOTH",
"234 -1 OFFCURVE",
"324 -4 OFFCURVE",
"382 -8 CURVE",
"386 37 LINE",
"327 43 OFFCURVE",
"258 57 OFFCURVE",
"222 74 CURVE",
"226 146 OFFCURVE",
"236 233 OFFCURVE",
"251 337 CURVE",
"400 337 LINE",
"419 311 OFFCURVE",
"431 279 OFFCURVE",
"441 242 CURVE",
"481 244 LINE",
"476 278 OFFCURVE",
"475 324 OFFCURVE",
"475 362 CURVE SMOOTH",
"475 403 OFFCURVE",
"478 440 OFFCURVE",
"483 480 CURVE",
"438 484 LINE",
"431 450 OFFCURVE",
"419 413 OFFCURVE",
"401 386 CURVE",
"258 386 LINE",
"270 475 OFFCURVE",
"286 570 OFFCURVE",
"301 642 CURVE",
"331 652 OFFCURVE",
"368 659 OFFCURVE",
"416 659 CURVE SMOOTH",
"459 659 OFFCURVE",
"509 651 OFFCURVE",
"542 634 CURVE",
"582 554 LINE",
"617 566 LINE",
"623 712 LINE",
"544 703 OFFCURVE",
"429 700 OFFCURVE",
"324 700 CURVE SMOOTH",
"222 700 OFFCURVE",
"139 702 OFFCURVE",
"105 707 CURVE",
"98 671 LINE",
"131 663 OFFCURVE",
"164 649 OFFCURVE",
"187 630 CURVE",
"180 545 OFFCURVE",
"166 442 OFFCURVE",
"155 359 CURVE SMOOTH",
"137 237 OFFCURVE",
"120 140 OFFCURVE",
"104 64 CURVE",
"79 47 OFFCURVE",
"47 35 OFFCURVE",
"16 28 CURVE"
);
}
);
width = 584;
}
);
note = F;
rightKerningGroup = F;
unicode = 0046;
},
{
glyphname = G;
layers = (
{
layerId = "F0C8EF09-FA88-4A15-9CCE-7A8BC6200D57";
paths = (
{
closed = 1;
nodes = (
"812 340 LINE",
"778 335 OFFCURVE",
"744 334 OFFCURVE",
"706 334 CURVE SMOOTH",
"665 334 OFFCURVE",
"606 337 OFFCURVE",
"566 342 CURVE",
"562 297 LINE",
"591 294 OFFCURVE",
"622 288 OFFCURVE",
"649 279 CURVE",
"636 95 LINE",
"592 62 OFFCURVE",
"535 40 OFFCURVE",
"455 40 CURVE SMOOTH",
"299 40 OFFCURVE",
"213 146 OFFCURVE",
"213 314 CURVE SMOOTH",
"213 532 OFFCURVE",
"378 659 OFFCURVE",
"539 659 CURVE SMOOTH",
"610 659 OFFCURVE",
"669 634 OFFCURVE",
"705 596 CURVE",
"752 496 LINE",
"792 508 LINE",
"792 636 LINE",
"719 685 OFFCURVE",
"660 710 OFFCURVE",
"546 710 CURVE SMOOTH",
"380 710 OFFCURVE",
"85 602 OFFCURVE",
"85 298 CURVE SMOOTH",
"85 98 OFFCURVE",
"229 -18 OFFCURVE",
"426 -18 CURVE SMOOTH",
"554 -18 OFFCURVE",
"639 15 OFFCURVE",
"728 66 CURVE",
"760 277 LINE",
"774 286 OFFCURVE",
"790 294 OFFCURVE",
"814 300 CURVE"
);
}
);
width = 844;
}
);
leftKerningGroup = G;
note = G;
unicode = 0047;
},
{
glyphname = H;
layers = (
{
layerId = "F0C8EF09-FA88-4A15-9CCE-7A8BC6200D57";
paths = (
{
closed = 1;
nodes = (
"24 -8 LINE",
"58 -4 OFFCURVE",
"135 -1 OFFCURVE",
"173 -1 CURVE SMOOTH",
"221 -1 OFFCURVE",
"261 -4 OFFCURVE",
"301 -8 CURVE",
"305 37 LINE",
"273 45 OFFCURVE",
"243 54 OFFCURVE",
"220 71 CURVE",
"224 147 OFFCURVE",
"236 238 OFFCURVE",
"251 347 CURVE",
"634 347 LINE",
"618 231 OFFCURVE",
"600 139 OFFCURVE",
"585 66 CURVE",
"560 48 OFFCURVE",
"527 35 OFFCURVE",
"495 28 CURVE",
"497 -8 LINE",
"531 -3 OFFCURVE",
"615 -1 OFFCURVE",
"653 -1 CURVE SMOOTH",
"701 -1 OFFCURVE",
"741 -4 OFFCURVE",
"781 -8 CURVE",
"785 37 LINE",
"754 44 OFFCURVE",
"725 53 OFFCURVE",
"703 69 CURVE",
"707 146 OFFCURVE",
"719 238 OFFCURVE",
"735 349 CURVE SMOOTH",
"748 443 OFFCURVE",
"764 551 OFFCURVE",
"780 632 CURVE",
"805 650 OFFCURVE",
"839 663 OFFCURVE",
"872 671 CURVE",
"870 707 LINE",
"836 702 OFFCURVE",
"752 700 OFFCURVE",
"714 700 CURVE SMOOTH",
"666 700 OFFCURVE",
"626 703 OFFCURVE",
"586 707 CURVE",
"582 662 LINE",
"614 654 OFFCURVE",
"646 645 OFFCURVE",
"668 626 CURVE",
"662 554 OFFCURVE",
"652 470 OFFCURVE",
"641 396 CURVE",
"258 396 LINE",
"270 476 OFFCURVE",
"283 560 OFFCURVE",
"296 627 CURVE",
"322 646 OFFCURVE",
"357 661 OFFCURVE",
"392 669 CURVE",
"390 707 LINE",
"356 702 OFFCURVE",
"272 700 OFFCURVE",
"234 700 CURVE SMOOTH",
"186 700 OFFCURVE",
"146 703 OFFCURVE",
"106 707 CURVE",
"102 662 LINE",
"133 654 OFFCURVE",
"163 645 OFFCURVE",
"186 628 CURVE",
"179 544 OFFCURVE",
"164 442 OFFCURVE",
"153 359 CURVE SMOOTH",
"135 237 OFFCURVE",
"118 140 OFFCURVE",
"101 64 CURVE",
"79 49 OFFCURVE",
"52 39 OFFCURVE",
"22 32 CURVE"
);
}
);
width = 838;
}
);
note = H;
unicode = 0048;
},
{
glyphname = I;
layers = (
{
layerId = "F0C8EF09-FA88-4A15-9CCE-7A8BC6200D57";
paths = (
{
closed = 1;
nodes = (
"14 -8 LINE",
"48 -3 OFFCURVE",
"132 -1 OFFCURVE",
"170 -1 CURVE SMOOTH",
"218 -1 OFFCURVE",
"258 -4 OFFCURVE",
"298 -8 CURVE",
"302 37 LINE",
"271 44 OFFCURVE",
"242 53 OFFCURVE",
"220 69 CURVE",
"224 146 OFFCURVE",
"236 238 OFFCURVE",
"252 349 CURVE SMOOTH",
"265 441 OFFCURVE",
"281 547 OFFCURVE",
"296 627 CURVE",
"322 648 OFFCURVE",
"358 663 OFFCURVE",
"394 671 CURVE",
"392 707 LINE",
"358 702 OFFCURVE",
"274 700 OFFCURVE",
"236 700 CURVE SMOOTH",
"188 700 OFFCURVE",
"148 703 OFFCURVE",
"108 707 CURVE",
"104 662 LINE",
"134 654 OFFCURVE",
"164 646 OFFCURVE",
"186 629 CURVE",
"179 545 OFFCURVE",
"165 442 OFFCURVE",
"153 359 CURVE SMOOTH",
"135 238 OFFCURVE",
"118 141 OFFCURVE",
"102 66 CURVE",
"77 48 OFFCURVE",
"44 35 OFFCURVE",
"12 28 CURVE"
);
}
);
width = 361;
}
);
note = I;
unicode = 0049;
},
{
glyphname = Iacute;
layers = (
{
layerId = "F0C8EF09-FA88-4A15-9CCE-7A8BC6200D57";
paths = (
{
closed = 1;
nodes = (
"14 -8 LINE",
"48 -3 OFFCURVE",
"132 -1 OFFCURVE",
"170 -1 CURVE SMOOTH",
"218 -1 OFFCURVE",
"258 -4 OFFCURVE",
"298 -8 CURVE",
"302 37 LINE",
"271 44 OFFCURVE",
"242 53 OFFCURVE",
"220 69 CURVE",
"224 146 OFFCURVE",
"236 238 OFFCURVE",
"252 349 CURVE SMOOTH",
"265 441 OFFCURVE",
"281 547 OFFCURVE",
"296 627 CURVE",
"322 648 OFFCURVE",
"358 663 OFFCURVE",
"394 671 CURVE",
"392 707 LINE",
"358 702 OFFCURVE",
"274 700 OFFCURVE",
"236 700 CURVE SMOOTH",
"188 700 OFFCURVE",
"148 703 OFFCURVE",
"108 707 CURVE",
"104 662 LINE",
"134 654 OFFCURVE",
"164 646 OFFCURVE",
"186 629 CURVE",
"179 545 OFFCURVE",
"165 442 OFFCURVE",
"153 359 CURVE SMOOTH",
"135 238 OFFCURVE",
"118 141 OFFCURVE",
"102 66 CURVE",
"77 48 OFFCURVE",
"44 35 OFFCURVE",
"12 28 CURVE"
);
},
{
closed = 1;
nodes = (
"203 729 LINE",
"280 750 OFFCURVE",
"325 797 OFFCURVE",
"344 856 CURVE",
"291 892 LINE",
"261 888 LINE",
"254 845 OFFCURVE",
"224 798 OFFCURVE",
"179 764 CURVE"
);
}
);
width = 361;
}
);
note = Iacute;
unicode = 00CD;
},
{
glyphname = Icircumflex;
layers = (
{
layerId = "F0C8EF09-FA88-4A15-9CCE-7A8BC6200D57";
paths = (
{
closed = 1;
nodes = (
"14 -8 LINE",
"48 -3 OFFCURVE",
"132 -1 OFFCURVE",
"170 -1 CURVE SMOOTH",
"218 -1 OFFCURVE",
"258 -4 OFFCURVE",
"298 -8 CURVE",
"302 37 LINE",
"271 44 OFFCURVE",
"242 53 OFFCURVE",
"220 69 CURVE",
"224 146 OFFCURVE",
"236 238 OFFCURVE",
"252 349 CURVE SMOOTH",
"265 441 OFFCURVE",
"281 547 OFFCURVE",
"296 627 CURVE",
"322 648 OFFCURVE",
"358 663 OFFCURVE",
"394 671 CURVE",
"392 707 LINE",
"358 702 OFFCURVE",
"274 700 OFFCURVE",
"236 700 CURVE SMOOTH",
"188 700 OFFCURVE",
"148 703 OFFCURVE",
"108 707 CURVE",
"104 662 LINE",
"134 654 OFFCURVE",
"164 646 OFFCURVE",
"186 629 CURVE",
"179 545 OFFCURVE",
"165 442 OFFCURVE",
"153 359 CURVE SMOOTH",
"135 238 OFFCURVE",
"118 141 OFFCURVE",
"102 66 CURVE",
"77 48 OFFCURVE",
"44 35 OFFCURVE",
"12 28 CURVE"
);
},
{
closed = 1;
nodes = (
"241 866 LINE",
"144 767 LINE",
"164 744 LINE",
"251 784 LINE",
"334 745 LINE",
"364 767 LINE",
"288 866 LINE"
);
}
);
width = 361;
}
);
note = Icircumflex;
unicode = 00CE;
},
{
glyphname = Idieresis;
layers = (
{
layerId = "F0C8EF09-FA88-4A15-9CCE-7A8BC6200D57";
paths = (
{
closed = 1;
nodes = (
"14 -8 LINE",
"48 -3 OFFCURVE",
"132 -1 OFFCURVE",
"170 -1 CURVE SMOOTH",
"218 -1 OFFCURVE",
"258 -4 OFFCURVE",
"298 -8 CURVE",
"302 37 LINE",
"271 44 OFFCURVE",
"242 53 OFFCURVE",
"220 69 CURVE",
"224 146 OFFCURVE",
"236 238 OFFCURVE",
"252 349 CURVE SMOOTH",
"265 441 OFFCURVE",
"281 547 OFFCURVE",
"296 627 CURVE",
"322 648 OFFCURVE",
"358 663 OFFCURVE",
"394 671 CURVE",
"392 707 LINE",
"358 702 OFFCURVE",
"274 700 OFFCURVE",
"236 700 CURVE SMOOTH",
"188 700 OFFCURVE",
"148 703 OFFCURVE",
"108 707 CURVE",
"104 662 LINE",
"134 654 OFFCURVE",
"164 646 OFFCURVE",
"186 629 CURVE",
"179 545 OFFCURVE",
"165 442 OFFCURVE",
"153 359 CURVE SMOOTH",
"135 238 OFFCURVE",
"118 141 OFFCURVE",
"102 66 CURVE",
"77 48 OFFCURVE",
"44 35 OFFCURVE",
"12 28 CURVE"
);
},
{
closed = 1;
nodes = (
"100 793 OFFCURVE",
"123 766 OFFCURVE",
"157 766 CURVE SMOOTH",
"192 766 OFFCURVE",
"223 797 OFFCURVE",
"223 837 CURVE SMOOTH",
"223 869 OFFCURVE",
"199 896 OFFCURVE",
"165 896 CURVE SMOOTH",
"131 896 OFFCURVE",
"100 865 OFFCURVE",
"100 826 CURVE SMOOTH"
);
},
{
closed = 1;
nodes = (
"296 793 OFFCURVE",
"319 766 OFFCURVE",
"354 766 CURVE SMOOTH",
"388 766 OFFCURVE",
"420 797 OFFCURVE",
"420 837 CURVE SMOOTH",
"420 869 OFFCURVE",
"396 896 OFFCURVE",
"361 896 CURVE SMOOTH",
"327 896 OFFCURVE",
"296 865 OFFCURVE",
"296 826 CURVE SMOOTH"
);
}
);
width = 361;
}
);
note = Idieresis;
unicode = 00CF;
},
{
glyphname = Igrave;
layers = (
{
layerId = "F0C8EF09-FA88-4A15-9CCE-7A8BC6200D57";
paths = (
{
closed = 1;
nodes = (
"14 -8 LINE",
"48 -3 OFFCURVE",
"132 -1 OFFCURVE",
"170 -1 CURVE SMOOTH",
"218 -1 OFFCURVE",
"258 -4 OFFCURVE",
"298 -8 CURVE",
"302 37 LINE",
"271 44 OFFCURVE",
"242 53 OFFCURVE",
"220 69 CURVE",
"224 146 OFFCURVE",
"236 238 OFFCURVE",
"252 349 CURVE SMOOTH",
"265 441 OFFCURVE",
"281 547 OFFCURVE",
"296 627 CURVE",
"322 648 OFFCURVE",
"358 663 OFFCURVE",
"394 671 CURVE",
"392 707 LINE",
"358 702 OFFCURVE",
"274 700 OFFCURVE",
"236 700 CURVE SMOOTH",
"188 700 OFFCURVE",
"148 703 OFFCURVE",
"108 707 CURVE",
"104 662 LINE",
"134 654 OFFCURVE",
"164 646 OFFCURVE",
"186 629 CURVE",
"179 545 OFFCURVE",
"165 442 OFFCURVE",
"153 359 CURVE SMOOTH",
"135 238 OFFCURVE",
"118 141 OFFCURVE",
"102 66 CURVE",
"77 48 OFFCURVE",
"44 35 OFFCURVE",
"12 28 CURVE"
);
},
{
closed = 1;
nodes = (
"332 764 LINE",
"287 798 OFFCURVE",
"257 845 OFFCURVE",
"250 888 CURVE",
"220 892 LINE",
"167 856 LINE",
"186 797 OFFCURVE",
"231 750 OFFCURVE",
"308 729 CURVE"
);
}
);
width = 361;
}
);
note = Igrave;
unicode = 00CC;
},
{
glyphname = J;
layers = (
{
layerId = "F0C8EF09-FA88-4A15-9CCE-7A8BC6200D57";
paths = (
{
closed = 1;
nodes = (
"434 707 LINE",
"400 702 OFFCURVE",
"316 700 OFFCURVE",
"278 700 CURVE SMOOTH",
"230 700 OFFCURVE",
"150 703 OFFCURVE",
"110 707 CURVE",
"106 662 LINE",
"138 654 OFFCURVE",
"192 638 OFFCURVE",
"220 618 CURVE",
"211 525 OFFCURVE",
"176 271 OFFCURVE",
"159 151 CURVE SMOOTH",
"142 26 OFFCURVE",
"132 -25 OFFCURVE",
"119 -67 CURVE SMOOTH",
"95 -139 OFFCURVE",
"60 -150 OFFCURVE",
"21 -150 CURVE SMOOTH",
"-2 -150 OFFCURVE",
"-26 -129 OFFCURVE",
"-40 -118 CURVE",
"-71 -126 OFFCURVE",
"-104 -161 OFFCURVE",
"-112 -188 CURVE",
"-98 -208 OFFCURVE",
"-78 -218 OFFCURVE",
"-51 -218 CURVE SMOOTH",
"60 -218 OFFCURVE",
"228 -119 OFFCURVE",
"258 91 CURVE SMOOTH",
"266 148 OFFCURVE",
"272 221 OFFCURVE",
"283 301 CURVE SMOOTH",
"295 384 OFFCURVE",
"315 542 OFFCURVE",
"329 627 CURVE",
"356 648 OFFCURVE",
"400 663 OFFCURVE",
"436 671 CURVE"
);
}
);
width = 403;
}
);
note = J;
rightKerningGroup = J;
unicode = 004A;
},
{
glyphname = K;
layers = (
{
layerId = "F0C8EF09-FA88-4A15-9CCE-7A8BC6200D57";
paths = (
{
closed = 1;
nodes = (
"41 -8 LINE",
"75 -3 OFFCURVE",
"134 -1 OFFCURVE",
"172 -1 CURVE SMOOTH",
"220 -1 OFFCURVE",
"280 -4 OFFCURVE",
"320 -8 CURVE",
"324 37 LINE",
"286 43 OFFCURVE",
"251 55 OFFCURVE",
"225 70 CURVE",
"228 140 OFFCURVE",
"238 224 OFFCURVE",
"252 323 CURVE",
"331 256 OFFCURVE",
"481 97 OFFCURVE",
"523 -9 CURVE",
"552 -6 OFFCURVE",
"579 -2 OFFCURVE",
"608 -2 CURVE SMOOTH",
"638 -2 OFFCURVE",
"682 -3 OFFCURVE",
"703 -5 CURVE",
"711 27 LINE",
"650 54 LINE",
"580 156 OFFCURVE",
"426 321 OFFCURVE",
"367 370 CURVE",
"706 657 LINE",
"722 662 OFFCURVE",
"739 665 OFFCURVE",
"753 668 CURVE",
"750 707 LINE",
"709 703 OFFCURVE",
"658 700 OFFCURVE",
"631 700 CURVE SMOOTH",
"607 700 OFFCURVE",
"556 702 OFFCURVE",
"517 707 CURVE",
"511 677 LINE",
"531 665 OFFCURVE",
"555 647 OFFCURVE",
"567 624 CURVE",
"502 547 OFFCURVE",
"367 419 OFFCURVE",
"256 352 CURVE",
"269 445 OFFCURVE",
"285 551 OFFCURVE",
"301 630 CURVE",
"326 649 OFFCURVE",
"361 663 OFFCURVE",
"395 671 CURVE",
"393 707 LINE",
"359 702 OFFCURVE",
"275 700 OFFCURVE",
"237 700 CURVE SMOOTH",
"189 700 OFFCURVE",
"149 703 OFFCURVE",
"109 707 CURVE",
"105 662 LINE",
"137 654 OFFCURVE",
"167 645 OFFCURVE",
"189 627 CURVE",
"182 543 OFFCURVE",
"168 441 OFFCURVE",
"157 359 CURVE SMOOTH",
"140 238 OFFCURVE",
"122 142 OFFCURVE",
"107 67 CURVE",
"87 49 OFFCURVE",
"68 37 OFFCURVE",
"39 28 CURVE"
);
}
);
width = 749;
}
);
note = K;
unicode = 004B;
},
{
glyphname = L;
layers = (
{
layerId = "F0C8EF09-FA88-4A15-9CCE-7A8BC6200D57";
paths = (
{
closed = 1;
nodes = (
"429 707 LINE",
"395 702 OFFCURVE",
"291 700 OFFCURVE",
"253 700 CURVE SMOOTH",
"205 700 OFFCURVE",
"165 703 OFFCURVE",
"125 707 CURVE",
"121 662 LINE",
"154 653 OFFCURVE",
"186 644 OFFCURVE",
"208 625 CURVE",
"201 541 OFFCURVE",
"187 441 OFFCURVE",
"176 359 CURVE SMOOTH",
"158 238 OFFCURVE",
"141 141 OFFCURVE",
"125 66 CURVE",
"100 48 OFFCURVE",
"67 35 OFFCURVE",
"35 28 CURVE",
"37 -8 LINE",
"71 -3 OFFCURVE",
"155 -1 OFFCURVE",
"193 -1 CURVE SMOOTH",
"258 -1 OFFCURVE",
"446 -5 OFFCURVE",
"524 -14 CURVE",
"580 154 LINE",
"553 167 LINE",
"478 67 LINE",
"435 46 OFFCURVE",
"398 40 OFFCURVE",
"344 40 CURVE SMOOTH",
"304 40 OFFCURVE",
"270 45 OFFCURVE",
"242 56 CURVE",
"245 135 OFFCURVE",
"258 231 OFFCURVE",
"275 349 CURVE SMOOTH",
"288 442 OFFCURVE",
"304 549 OFFCURVE",
"320 630 CURVE",
"350 646 OFFCURVE",
"397 661 OFFCURVE",
"431 669 CURVE"
);
}
);
width = 610;
}
);
note = L;
unicode = 004C;
},
{
glyphname = M;
layers = (
{
layerId = "F0C8EF09-FA88-4A15-9CCE-7A8BC6200D57";
paths = (
{
closed = 1;
nodes = (
"646 -8 LINE",
"680 -3 OFFCURVE",
"772 0 OFFCURVE",
"802 0 CURVE SMOOTH",
"850 0 OFFCURVE",
"922 -4 OFFCURVE",
"962 -8 CURVE",
"966 30 LINE",
"934 36 OFFCURVE",
"898 49 OFFCURVE",
"872 64 CURVE",
"868 132 OFFCURVE",
"866 200 OFFCURVE",
"866 269 CURVE SMOOTH",
"866 386 OFFCURVE",
"871 505 OFFCURVE",
"878 623 CURVE",
"982 672 LINE",
"983 706 LINE",
"952 703 OFFCURVE",
"916 701 OFFCURVE",
"882 701 CURVE SMOOTH",
"851 701 OFFCURVE",
"805 704 OFFCURVE",
"775 707 CURVE",
"521 200 LINE",
"393 709 LINE",
"364 704 OFFCURVE",
"330 702 OFFCURVE",
"295 702 CURVE SMOOTH",
"254 702 OFFCURVE",
"221 704 OFFCURVE",
"187 706 CURVE",
"180 677 LINE",
"272 625 LINE",
"220 436 OFFCURVE",
"150 204 OFFCURVE",
"102 68 CURVE",
"77 49 OFFCURVE",
"43 38 OFFCURVE",
"20 30 CURVE",
"27 -8 LINE",
"61 -3 OFFCURVE",
"105 0 OFFCURVE",
"153 0 CURVE SMOOTH",
"201 0 OFFCURVE",
"253 -4 OFFCURVE",
"293 -8 CURVE",
"297 30 LINE",
"253 39 OFFCURVE",
"201 60 OFFCURVE",
"177 82 CURVE",
"202 217 OFFCURVE",
"247 390 OFFCURVE",
"302 567 CURVE",
"453 -7 LINE",
"472 -7 LINE",
"764 577 LINE",
"767 520 OFFCURVE",
"768 464 OFFCURVE",
"768 407 CURVE SMOOTH",
"768 293 OFFCURVE",
"763 180 OFFCURVE",
"758 73 CURVE",
"730 51 OFFCURVE",
"688 38 OFFCURVE",
"639 30 CURVE"
);
}
);
width = 1002;
}
);
note = M;
unicode = 004D;
},
{
glyphname = N;
layers = (
{
layerId = "F0C8EF09-FA88-4A15-9CCE-7A8BC6200D57";
paths = (
{
closed = 1;
nodes = (
"906 706 LINE",
"872 701 OFFCURVE",
"813 699 OFFCURVE",
"783 699 CURVE SMOOTH",
"735 699 OFFCURVE",
"687 702 OFFCURVE",
"647 706 CURVE",
"643 668 LINE",
"684 660 OFFCURVE",
"731 641 OFFCURVE",
"756 620 CURVE",
"746 496 OFFCURVE",
"724 307 OFFCURVE",
"704 172 CURVE",
"304 705 LINE",
"280 703 OFFCURVE",
"234 700 OFFCURVE",
"204 700 CURVE SMOOTH",
"177 700 OFFCURVE",
"139 702 OFFCURVE",
"109 704 CURVE",
"101 662 LINE",
"187 629 LINE",
"185 548 OFFCURVE",
"175 457 OFFCURVE",
"160 343 CURVE SMOOTH",
"145 245 OFFCURVE",
"131 148 OFFCURVE",
"116 71 CURVE",
"97 53 OFFCURVE",
"66 38 OFFCURVE",
"42 30 CURVE",
"49 -8 LINE",
"83 -3 OFFCURVE",
"132 -1 OFFCURVE",
"162 -1 CURVE SMOOTH",
"210 -1 OFFCURVE",
"258 -4 OFFCURVE",
"298 -8 CURVE",
"302 30 LINE",
"259 38 OFFCURVE",
"209 59 OFFCURVE",
"184 80 CURVE",
"193 204 OFFCURVE",
"211 355 OFFCURVE",
"244 590 CURVE",
"696 -19 LINE",
"739 0 LINE",
"744 79 OFFCURVE",
"762 218 OFFCURVE",
"781 351 CURVE SMOOTH",
"795 458 OFFCURVE",
"810 545 OFFCURVE",
"825 622 CURVE",
"845 643 OFFCURVE",
"886 659 OFFCURVE",
"913 668 CURVE"
);
}
);
width = 866;
}
);
note = N;
unicode = 004E;
},
{
glyphname = Ntilde;
layers = (
{
layerId = "F0C8EF09-FA88-4A15-9CCE-7A8BC6200D57";
paths = (
{
closed = 1;
nodes = (
"906 706 LINE",
"872 701 OFFCURVE",
"813 699 OFFCURVE",
"783 699 CURVE SMOOTH",
"735 699 OFFCURVE",
"687 702 OFFCURVE",
"647 706 CURVE",
"643 668 LINE",
"684 660 OFFCURVE",
"731 641 OFFCURVE",
"756 620 CURVE",
"746 496 OFFCURVE",
"724 307 OFFCURVE",
"704 172 CURVE",
"304 705 LINE",
"280 703 OFFCURVE",
"234 700 OFFCURVE",
"204 700 CURVE SMOOTH",
"177 700 OFFCURVE",
"139 702 OFFCURVE",
"109 704 CURVE",
"101 662 LINE",
"187 629 LINE",
"185 548 OFFCURVE",
"175 457 OFFCURVE",
"160 343 CURVE SMOOTH",
"145 245 OFFCURVE",
"131 148 OFFCURVE",
"116 71 CURVE",
"97 53 OFFCURVE",
"66 38 OFFCURVE",
"42 30 CURVE",
"49 -8 LINE",
"83 -3 OFFCURVE",
"132 -1 OFFCURVE",
"162 -1 CURVE SMOOTH",
"210 -1 OFFCURVE",
"258 -4 OFFCURVE",
"298 -8 CURVE",
"302 30 LINE",
"259 38 OFFCURVE",
"209 59 OFFCURVE",
"184 80 CURVE",
"193 204 OFFCURVE",
"211 355 OFFCURVE",
"244 590 CURVE",
"696 -19 LINE",
"739 0 LINE",
"744 79 OFFCURVE",
"762 218 OFFCURVE",
"781 351 CURVE SMOOTH",
"795 458 OFFCURVE",
"810 545 OFFCURVE",
"825 622 CURVE",
"845 643 OFFCURVE",
"886 659 OFFCURVE",
"913 668 CURVE"
);
},
{
closed = 1;
nodes = (
"370 774 LINE",
"388 787 OFFCURVE",
"414 804 OFFCURVE",
"439 804 CURVE SMOOTH",
"488 804 OFFCURVE",
"503 761 OFFCURVE",
"567 761 CURVE SMOOTH",
"611 761 OFFCURVE",
"642 792 OFFCURVE",
"671 830 CURVE",
"656 851 LINE",
"634 836 OFFCURVE",
"611 825 OFFCURVE",
"579 825 CURVE SMOOTH",
"531 825 OFFCURVE",
"517 867 OFFCURVE",
"461 867 CURVE SMOOTH",
"416 867 OFFCURVE",
"368 819 OFFCURVE",
"351 795 CURVE"
);
}
);
width = 866;
}
);
note = Ntilde;
unicode = 00D1;
},
{
glyphname = O;
layers = (
{
layerId = "F0C8EF09-FA88-4A15-9CCE-7A8BC6200D57";
paths = (
{
closed = 1;
nodes = (
"98 112 OFFCURVE",
"226 -16 OFFCURVE",
"428 -16 CURVE SMOOTH",
"624 -16 OFFCURVE",
"839 154 OFFCURVE",
"839 408 CURVE SMOOTH",
"839 600 OFFCURVE",
"686 710 OFFCURVE",
"518 710 CURVE SMOOTH",
"319 710 OFFCURVE",
"98 556 OFFCURVE",
"98 303 CURVE SMOOTH"
);
},
{
closed = 1;
nodes = (
"641 654 OFFCURVE",
"721 509 OFFCURVE",
"721 380 CURVE SMOOTH",
"721 184 OFFCURVE",
"604 46 OFFCURVE",
"456 46 CURVE SMOOTH",
"321 46 OFFCURVE",
"214 161 OFFCURVE",
"214 332 CURVE SMOOTH",
"214 526 OFFCURVE",
"354 654 OFFCURVE",
"486 654 CURVE SMOOTH"
);
}
);
width = 871;
}
);
leftKerningGroup = O;
note = O;
rightKerningGroup = O;
unicode = 004F;
},
{
glyphname = Oacute;
layers = (
{
layerId = "F0C8EF09-FA88-4A15-9CCE-7A8BC6200D57";
paths = (
{
closed = 1;
nodes = (
"98 112 OFFCURVE",
"226 -16 OFFCURVE",
"428 -16 CURVE SMOOTH",
"624 -16 OFFCURVE",
"839 154 OFFCURVE",
"839 408 CURVE SMOOTH",
"839 600 OFFCURVE",
"686 710 OFFCURVE",
"518 710 CURVE SMOOTH",
"319 710 OFFCURVE",
"98 556 OFFCURVE",
"98 303 CURVE SMOOTH"
);
},
{
closed = 1;
nodes = (
"641 654 OFFCURVE",
"721 509 OFFCURVE",
"721 380 CURVE SMOOTH",
"721 184 OFFCURVE",
"604 46 OFFCURVE",
"456 46 CURVE SMOOTH",
"321 46 OFFCURVE",
"214 161 OFFCURVE",
"214 332 CURVE SMOOTH",
"214 526 OFFCURVE",
"354 654 OFFCURVE",
"486 654 CURVE SMOOTH"
);
},
{
closed = 1;
nodes = (
"473 729 LINE",
"550 750 OFFCURVE",
"595 797 OFFCURVE",
"614 856 CURVE",
"561 892 LINE",
"531 888 LINE",
"524 845 OFFCURVE",
"494 798 OFFCURVE",
"449 764 CURVE"
);
}
);
width = 871;
}
);
leftKerningGroup = O;
note = Oacute;
rightKerningGroup = O;
unicode = 00D3;
},
{
glyphname = Ocircumflex;
layers = (
{
layerId = "F0C8EF09-FA88-4A15-9CCE-7A8BC6200D57";
paths = (
{
closed = 1;
nodes = (
"98 112 OFFCURVE",
"226 -16 OFFCURVE",
"428 -16 CURVE SMOOTH",
"624 -16 OFFCURVE",
"839 154 OFFCURVE",
"839 408 CURVE SMOOTH",
"839 600 OFFCURVE",
"686 710 OFFCURVE",
"518 710 CURVE SMOOTH",
"319 710 OFFCURVE",
"98 556 OFFCURVE",
"98 303 CURVE SMOOTH"
);
},
{
closed = 1;
nodes = (
"641 654 OFFCURVE",
"721 509 OFFCURVE",
"721 380 CURVE SMOOTH",
"721 184 OFFCURVE",
"604 46 OFFCURVE",
"456 46 CURVE SMOOTH",
"321 46 OFFCURVE",
"214 161 OFFCURVE",
"214 332 CURVE SMOOTH",
"214 526 OFFCURVE",
"354 654 OFFCURVE",
"486 654 CURVE SMOOTH"
);
},
{
closed = 1;
nodes = (
"511 866 LINE",
"414 767 LINE",
"434 744 LINE",
"521 784 LINE",
"604 745 LINE",
"634 767 LINE",
"558 866 LINE"
);
}
);
width = 871;
}
);
leftKerningGroup = O;
note = Ocircumflex;
rightKerningGroup = O;
unicode = 00D4;
},
{
glyphname = Odieresis;
layers = (
{
layerId = "F0C8EF09-FA88-4A15-9CCE-7A8BC6200D57";
paths = (
{
closed = 1;
nodes = (
"98 112 OFFCURVE",
"226 -16 OFFCURVE",
"428 -16 CURVE SMOOTH",
"624 -16 OFFCURVE",
"839 154 OFFCURVE",
"839 408 CURVE SMOOTH",
"839 600 OFFCURVE",
"686 710 OFFCURVE",
"518 710 CURVE SMOOTH",
"319 710 OFFCURVE",
"98 556 OFFCURVE",
"98 303 CURVE SMOOTH"
);
},
{
closed = 1;
nodes = (
"641 654 OFFCURVE",
"721 509 OFFCURVE",
"721 380 CURVE SMOOTH",
"721 184 OFFCURVE",
"604 46 OFFCURVE",
"456 46 CURVE SMOOTH",
"321 46 OFFCURVE",
"214 161 OFFCURVE",
"214 332 CURVE SMOOTH",
"214 526 OFFCURVE",
"354 654 OFFCURVE",
"486 654 CURVE SMOOTH"
);
},
{
closed = 1;
nodes = (
"370 793 OFFCURVE",
"393 766 OFFCURVE",
"427 766 CURVE SMOOTH",
"462 766 OFFCURVE",
"493 797 OFFCURVE",
"493 837 CURVE SMOOTH",
"493 869 OFFCURVE",
"469 896 OFFCURVE",
"435 896 CURVE SMOOTH",
"401 896 OFFCURVE",
"370 865 OFFCURVE",
"370 826 CURVE SMOOTH"
);
},
{
closed = 1;
nodes = (
"566 793 OFFCURVE",
"589 766 OFFCURVE",
"624 766 CURVE SMOOTH",
"658 766 OFFCURVE",
"690 797 OFFCURVE",
"690 837 CURVE SMOOTH",
"690 869 OFFCURVE",
"666 896 OFFCURVE",
"631 896 CURVE SMOOTH",
"597 896 OFFCURVE",
"566 865 OFFCURVE",
"566 826 CURVE SMOOTH"
);
}
);
width = 871;
}
);
leftKerningGroup = O;
note = Odieresis;
rightKerningGroup = O;
unicode = 00D6;
},
{
glyphname = Ograve;
layers = (
{
layerId = "F0C8EF09-FA88-4A15-9CCE-7A8BC6200D57";
paths = (
{
closed = 1;
nodes = (
"98 112 OFFCURVE",
"226 -16 OFFCURVE",
"428 -16 CURVE SMOOTH",
"624 -16 OFFCURVE",
"839 154 OFFCURVE",
"839 408 CURVE SMOOTH",
"839 600 OFFCURVE",
"686 710 OFFCURVE",
"518 710 CURVE SMOOTH",
"319 710 OFFCURVE",
"98 556 OFFCURVE",
"98 303 CURVE SMOOTH"
);
},
{
closed = 1;
nodes = (
"641 654 OFFCURVE",
"721 509 OFFCURVE",
"721 380 CURVE SMOOTH",
"721 184 OFFCURVE",
"604 46 OFFCURVE",
"456 46 CURVE SMOOTH",
"321 46 OFFCURVE",
"214 161 OFFCURVE",
"214 332 CURVE SMOOTH",
"214 526 OFFCURVE",
"354 654 OFFCURVE",
"486 654 CURVE SMOOTH"
);
},
{
closed = 1;
nodes = (
"602 764 LINE",
"557 798 OFFCURVE",
"527 845 OFFCURVE",
"520 888 CURVE",
"490 892 LINE",
"437 856 LINE",
"456 797 OFFCURVE",
"501 750 OFFCURVE",
"578 729 CURVE"
);
}
);
width = 871;
}
);
leftKerningGroup = O;
note = Ograve;
rightKerningGroup = O;
unicode = 00D2;
},
{
glyphname = Otilde;
layers = (
{
layerId = "F0C8EF09-FA88-4A15-9CCE-7A8BC6200D57";
paths = (
{
closed = 1;
nodes = (
"98 112 OFFCURVE",
"226 -16 OFFCURVE",
"428 -16 CURVE SMOOTH",
"624 -16 OFFCURVE",
"839 154 OFFCURVE",
"839 408 CURVE SMOOTH",
"839 600 OFFCURVE",
"686 710 OFFCURVE",
"518 710 CURVE SMOOTH",
"319 710 OFFCURVE",
"98 556 OFFCURVE",
"98 303 CURVE SMOOTH"
);
},
{
closed = 1;
nodes = (
"641 654 OFFCURVE",
"721 509 OFFCURVE",
"721 380 CURVE SMOOTH",
"721 184 OFFCURVE",
"604 46 OFFCURVE",
"456 46 CURVE SMOOTH",
"321 46 OFFCURVE",
"214 161 OFFCURVE",
"214 332 CURVE SMOOTH",
"214 526 OFFCURVE",
"354 654 OFFCURVE",
"486 654 CURVE SMOOTH"
);
},
{
closed = 1;
nodes = (
"388 774 LINE",
"406 787 OFFCURVE",
"432 804 OFFCURVE",
"457 804 CURVE SMOOTH",
"506 804 OFFCURVE",
"521 761 OFFCURVE",
"585 761 CURVE SMOOTH",
"629 761 OFFCURVE",
"660 792 OFFCURVE",
"689 830 CURVE",
"674 851 LINE",
"652 836 OFFCURVE",
"629 825 OFFCURVE",
"597 825 CURVE SMOOTH",
"549 825 OFFCURVE",
"535 867 OFFCURVE",
"479 867 CURVE SMOOTH",
"434 867 OFFCURVE",
"386 819 OFFCURVE",
"369 795 CURVE"
);
}
);
width = 871;
}
);
leftKerningGroup = O;
note = Otilde;
rightKerningGroup = O;
unicode = 00D5;
},
{
glyphname = P;
layers = (
{
layerId = "F0C8EF09-FA88-4A15-9CCE-7A8BC6200D57";
paths = (
{
closed = 1;
nodes = (
"58 -8 LINE",
"92 -3 OFFCURVE",
"151 -1 OFFCURVE",
"189 -1 CURVE SMOOTH",
"237 -1 OFFCURVE",
"337 -4 OFFCURVE",
"377 -8 CURVE",
"381 37 LINE",
"322 44 OFFCURVE",
"268 58 OFFCURVE",
"239 77 CURVE",
"243 137 OFFCURVE",
"251 206 OFFCURVE",
"262 286 CURVE",
"466 291 OFFCURVE",
"633 343 OFFCURVE",
"633 521 CURVE SMOOTH",
"633 650 OFFCURVE",
"533 705 OFFCURVE",
"418 705 CURVE SMOOTH",
"367 705 OFFCURVE",
"338 700 OFFCURVE",
"292 700 CURVE SMOOTH",
"241 700 OFFCURVE",
"188 701 OFFCURVE",
"138 705 CURVE",
"125 667 LINE",
"154 663 OFFCURVE",
"181 655 OFFCURVE",
"205 640 CURVE",
"199 554 OFFCURVE",
"184 446 OFFCURVE",
"172 359 CURVE SMOOTH",
"154 237 OFFCURVE",
"137 140 OFFCURVE",
"121 64 CURVE",
"102 48 OFFCURVE",
"83 36 OFFCURVE",
"56 28 CURVE"
);
},
{
closed = 1;
nodes = (
"345 649 OFFCURVE",
"367 651 OFFCURVE",
"384 651 CURVE SMOOTH",
"489 651 OFFCURVE",
"523 584 OFFCURVE",
"523 511 CURVE SMOOTH",
"523 401 OFFCURVE",
"443 342 OFFCURVE",
"339 342 CURVE SMOOTH",
"315 342 OFFCURVE",
"296 344 OFFCURVE",
"271 352 CURVE",
"285 450 OFFCURVE",
"302 562 OFFCURVE",
"319 643 CURVE"
);
}
);
width = 621;
}
);
note = P;
rightKerningGroup = P;
unicode = 0050;
},
{
glyphname = Q;
layers = (
{
layerId = "F0C8EF09-FA88-4A15-9CCE-7A8BC6200D57";
paths = (
{
closed = 1;
nodes = (
"76 112 OFFCURVE",
"204 -16 OFFCURVE",
"406 -16 CURVE SMOOTH",
"422 -16 OFFCURVE",
"438 -14 OFFCURVE",
"454 -12 CURVE",
"513 -184 OFFCURVE",
"650 -220 OFFCURVE",
"801 -220 CURVE SMOOTH",
"878 -220 OFFCURVE",
"950 -210 OFFCURVE",
"1005 -196 CURVE",
"1004 -150 LINE",
"936 -161 OFFCURVE",
"888 -165 OFFCURVE",
"848 -165 CURVE SMOOTH",
"719 -165 OFFCURVE",
"628 -103 OFFCURVE",
"589 32 CURVE",
"715 99 OFFCURVE",
"817 234 OFFCURVE",
"817 408 CURVE SMOOTH",
"817 600 OFFCURVE",
"664 710 OFFCURVE",
"496 710 CURVE SMOOTH",
"297 710 OFFCURVE",
"76 556 OFFCURVE",
"76 303 CURVE SMOOTH"
);
},
{
closed = 1;
nodes = (
"619 654 OFFCURVE",
"699 509 OFFCURVE",
"699 380 CURVE SMOOTH",
"699 251 OFFCURVE",
"648 148 OFFCURVE",
"572 92 CURVE",
"530 188 OFFCURVE",
"476 205 OFFCURVE",
"408 205 CURVE SMOOTH",
"349 205 OFFCURVE",
"303 183 OFFCURVE",
"247 145 CURVE",
"212 193 OFFCURVE",
"192 257 OFFCURVE",
"192 332 CURVE SMOOTH",
"192 526 OFFCURVE",
"332 654 OFFCURVE",
"464 654 CURVE SMOOTH"
);
},
{
closed = 1;
nodes = (
"317 140 OFFCURVE",
"348 146 OFFCURVE",
"372 146 CURVE SMOOTH",
"398 146 OFFCURVE",
"430 124 OFFCURVE",
"439 46 CURVE",
"434 46 LINE SMOOTH",
"372 46 OFFCURVE",
"316 70 OFFCURVE",
"274 112 CURVE"
);
}
);
width = 871;
}
);
leftKerningGroup = O;
note = Q;
unicode = 0051;
},
{
glyphname = R;
layers = (
{
layerId = "F0C8EF09-FA88-4A15-9CCE-7A8BC6200D57";
paths = (
{
closed = 1;
nodes = (
"615 655 OFFCURVE",
"511 705 OFFCURVE",
"396 705 CURVE SMOOTH",
"345 705 OFFCURVE",
"316 700 OFFCURVE",
"270 700 CURVE SMOOTH",
"219 700 OFFCURVE",
"166 701 OFFCURVE",
"116 705 CURVE",
"103 667 LINE",
"132 663 OFFCURVE",
"159 655 OFFCURVE",
"183 640 CURVE",
"177 554 OFFCURVE",
"162 446 OFFCURVE",
"150 359 CURVE SMOOTH",
"132 236 OFFCURVE",
"115 138 OFFCURVE",
"98 62 CURVE",
"80 47 OFFCURVE",
"62 36 OFFCURVE",
"36 28 CURVE",
"38 -8 LINE",
"72 -3 OFFCURVE",
"131 -1 OFFCURVE",
"169 -1 CURVE SMOOTH",
"217 -1 OFFCURVE",
"257 -4 OFFCURVE",
"297 -8 CURVE",
"301 37 LINE",
"269 45 OFFCURVE",
"240 53 OFFCURVE",
"217 71 CURVE",
"221 139 OFFCURVE",
"230 220 OFFCURVE",
"244 316 CURVE",
"253 317 OFFCURVE",
"264 317 OFFCURVE",
"274 317 CURVE",
"354 258 OFFCURVE",
"473 112 OFFCURVE",
"529 -9 CURVE",
"557 -6 OFFCURVE",
"584 -2 OFFCURVE",
"613 -2 CURVE SMOOTH",
"643 -2 OFFCURVE",
"687 -3 OFFCURVE",
"708 -5 CURVE",
"712 27 LINE",
"647 54 LINE",
"591 152 OFFCURVE",
"464 279 OFFCURVE",
"403 335 CURVE",
"513 360 OFFCURVE",
"615 416 OFFCURVE",
"615 543 CURVE SMOOTH"
);
},
{
closed = 1;
nodes = (
"323 649 OFFCURVE",
"347 651 OFFCURVE",
"376 651 CURVE SMOOTH",
"467 651 OFFCURVE",
"503 596 OFFCURVE",
"503 523 CURVE SMOOTH",
"503 430 OFFCURVE",
"425 372 OFFCURVE",
"316 372 CURVE SMOOTH",
"296 372 OFFCURVE",
"277 372 OFFCURVE",
"252 374 CURVE",
"265 466 OFFCURVE",
"282 568 OFFCURVE",
"297 643 CURVE"
);
}
);
width = 707;
}
);
note = R;
unicode = 0052;
},
{
glyphname = S;
layers = (
{
layerId = "F0C8EF09-FA88-4A15-9CCE-7A8BC6200D57";
paths = (
{
closed = 1;
nodes = (
"83 181 LINE",
"54 61 LINE",
"101 7 OFFCURVE",
"175 -19 OFFCURVE",
"265 -19 CURVE SMOOTH",
"378 -19 OFFCURVE",
"518 47 OFFCURVE",
"518 204 CURVE SMOOTH",
"518 420 OFFCURVE",
"237 395 OFFCURVE",
"237 562 CURVE SMOOTH",
"237 620 OFFCURVE",
"287 667 OFFCURVE",
"355 667 CURVE SMOOTH",
"390 667 OFFCURVE",
"426 653 OFFCURVE",
"447 628 CURVE",
"472 544 LINE",
"516 555 LINE",
"530 655 LINE",
"500 690 OFFCURVE",
"428 710 OFFCURVE",
"365 710 CURVE SMOOTH",
"260 710 OFFCURVE",
"141 633 OFFCURVE",
"141 506 CURVE SMOOTH",
"141 309 OFFCURVE",
"418 303 OFFCURVE",
"418 149 CURVE SMOOTH",
"418 72 OFFCURVE",
"360 32 OFFCURVE",
"278 32 CURVE SMOOTH",
"222 32 OFFCURVE",
"175 58 OFFCURVE",
"144 93 CURVE",
"114 186 LINE"
);
}
);
width = 566;
}
);
note = S;
unicode = 0053;
},
{
glyphname = Scaron;
layers = (
{
layerId = "F0C8EF09-FA88-4A15-9CCE-7A8BC6200D57";
paths = (
{
closed = 1;
nodes = (
"83 181 LINE",
"54 61 LINE",
"101 7 OFFCURVE",
"175 -19 OFFCURVE",
"265 -19 CURVE SMOOTH",
"378 -19 OFFCURVE",
"518 47 OFFCURVE",
"518 204 CURVE SMOOTH",
"518 420 OFFCURVE",
"237 395 OFFCURVE",
"237 562 CURVE SMOOTH",
"237 620 OFFCURVE",
"287 667 OFFCURVE",
"355 667 CURVE SMOOTH",
"390 667 OFFCURVE",
"426 653 OFFCURVE",
"447 628 CURVE",
"472 544 LINE",
"516 555 LINE",
"530 655 LINE",
"500 690 OFFCURVE",
"428 710 OFFCURVE",
"365 710 CURVE SMOOTH",
"260 710 OFFCURVE",
"141 633 OFFCURVE",
"141 506 CURVE SMOOTH",
"141 309 OFFCURVE",
"418 303 OFFCURVE",
"418 149 CURVE SMOOTH",
"418 72 OFFCURVE",
"360 32 OFFCURVE",
"278 32 CURVE SMOOTH",
"222 32 OFFCURVE",
"175 58 OFFCURVE",
"144 93 CURVE",
"114 186 LINE"
);
},
{
closed = 1;
nodes = (
"400 744 LINE",
"497 843 LINE",
"477 866 LINE",
"390 826 LINE",
"307 865 LINE",
"277 843 LINE",
"353 744 LINE"
);
}
);
width = 566;
}
);
note = Scaron;
unicode = 0160;
},
{
glyphname = T;
layers = (
{
layerId = "F0C8EF09-FA88-4A15-9CCE-7A8BC6200D57";
paths = (
{
closed = 1;
nodes = (
"164 -8 LINE",
"198 -4 OFFCURVE",
"300 0 OFFCURVE",
"338 0 CURVE SMOOTH",
"386 0 OFFCURVE",
"465 -4 OFFCURVE",
"505 -8 CURVE",
"509 37 LINE",
"468 41 OFFCURVE",
"427 52 OFFCURVE",
"398 70 CURVE",
"402 146 OFFCURVE",
"414 238 OFFCURVE",
"430 349 CURVE SMOOTH",
"444 450 OFFCURVE",
"462 567 OFFCURVE",
"479 649 CURVE",
"625 649 LINE",
"642 622 OFFCURVE",
"646 596 OFFCURVE",
"647 555 CURVE",
"677 552 LINE",
"764 698 LINE",
"741 718 LINE",
"584 700 LINE",
"281 700 LINE",
"147 719 LINE",
"85 577 LINE",
"124 561 LINE",
"157 600 OFFCURVE",
"195 628 OFFCURVE",
"239 649 CURVE",
"362 649 LINE",
"355 561 OFFCURVE",
"340 449 OFFCURVE",
"328 359 CURVE SMOOTH",
"310 238 OFFCURVE",
"293 141 OFFCURVE",
"277 66 CURVE",
"247 48 OFFCURVE",
"199 33 OFFCURVE",
"159 28 CURVE"
);
}
);
width = 714;
}
);
leftKerningGroup = T;
note = T;
rightKerningGroup = T;
unicode = 0054;
},
{
glyphname = U;
layers = (
{
layerId = "F0C8EF09-FA88-4A15-9CCE-7A8BC6200D57";
paths = (
{
closed = 1;
nodes = (
"849 709 LINE",
"823 704 OFFCURVE",
"761 702 OFFCURVE",
"733 702 CURVE SMOOTH",
"698 702 OFFCURVE",
"660 705 OFFCURVE",
"631 709 CURVE",
"628 671 LINE",
"661 668 OFFCURVE",
"698 659 OFFCURVE",
"720 642 CURVE",
"666 260 LINE SMOOTH",
"643 93 OFFCURVE",
"513 35 OFFCURVE",
"424 35 CURVE SMOOTH",
"327 35 OFFCURVE",
"240 79 OFFCURVE",
"240 208 CURVE SMOOTH",
"240 223 OFFCURVE",
"241 240 OFFCURVE",
"244 258 CURVE SMOOTH",
"295 626 LINE",
"321 644 OFFCURVE",
"357 661 OFFCURVE",
"393 669 CURVE",
"391 707 LINE",
"357 702 OFFCURVE",
"273 700 OFFCURVE",
"235 700 CURVE SMOOTH",
"187 700 OFFCURVE",
"147 703 OFFCURVE",
"107 707 CURVE",
"103 662 LINE",
"132 654 OFFCURVE",
"160 647 OFFCURVE",
"182 631 CURVE",
"126 231 LINE SMOOTH",
"124 219 OFFCURVE",
"123 209 OFFCURVE",
"123 197 CURVE SMOOTH",
"123 43 OFFCURVE",
"250 -18 OFFCURVE",
"386 -18 CURVE SMOOTH",
"546 -18 OFFCURVE",
"689 59 OFFCURVE",
"717 260 CURVE SMOOTH",
"770 637 LINE",
"791 657 OFFCURVE",
"817 669 OFFCURVE",
"852 677 CURVE"
);
}
);
width = 806;
}
);
note = U;
unicode = 0055;
},
{
glyphname = Uacute;
layers = (
{
layerId = "F0C8EF09-FA88-4A15-9CCE-7A8BC6200D57";
paths = (
{
closed = 1;
nodes = (
"849 709 LINE",
"823 704 OFFCURVE",
"761 702 OFFCURVE",
"733 702 CURVE SMOOTH",
"698 702 OFFCURVE",
"660 705 OFFCURVE",
"631 709 CURVE",
"628 671 LINE",
"661 668 OFFCURVE",
"698 659 OFFCURVE",
"720 642 CURVE",
"666 260 LINE SMOOTH",
"643 93 OFFCURVE",
"513 35 OFFCURVE",
"424 35 CURVE SMOOTH",
"327 35 OFFCURVE",
"240 79 OFFCURVE",
"240 208 CURVE SMOOTH",
"240 223 OFFCURVE",
"241 240 OFFCURVE",
"244 258 CURVE SMOOTH",
"295 626 LINE",
"321 644 OFFCURVE",
"357 661 OFFCURVE",
"393 669 CURVE",
"391 707 LINE",
"357 702 OFFCURVE",
"273 700 OFFCURVE",
"235 700 CURVE SMOOTH",
"187 700 OFFCURVE",
"147 703 OFFCURVE",
"107 707 CURVE",
"103 662 LINE",
"132 654 OFFCURVE",
"160 647 OFFCURVE",
"182 631 CURVE",
"126 231 LINE SMOOTH",
"124 219 OFFCURVE",
"123 209 OFFCURVE",
"123 197 CURVE SMOOTH",
"123 43 OFFCURVE",
"250 -18 OFFCURVE",
"386 -18 CURVE SMOOTH",
"546 -18 OFFCURVE",
"689 59 OFFCURVE",
"717 260 CURVE SMOOTH",
"770 637 LINE",
"791 657 OFFCURVE",
"817 669 OFFCURVE",
"852 677 CURVE"
);
},
{
closed = 1;
nodes = (
"462 729 LINE",
"539 750 OFFCURVE",
"584 797 OFFCURVE",
"603 856 CURVE",
"550 892 LINE",
"520 888 LINE",
"513 845 OFFCURVE",
"483 798 OFFCURVE",
"438 764 CURVE"
);
}
);
width = 806;
}
);
note = Uacute;
unicode = 00DA;
},
{
glyphname = Ucircumflex;
layers = (
{
layerId = "F0C8EF09-FA88-4A15-9CCE-7A8BC6200D57";
paths = (
{
closed = 1;
nodes = (
"849 709 LINE",
"823 704 OFFCURVE",
"761 702 OFFCURVE",
"733 702 CURVE SMOOTH",
"698 702 OFFCURVE",
"660 705 OFFCURVE",
"631 709 CURVE",
"628 671 LINE",
"661 668 OFFCURVE",
"698 659 OFFCURVE",
"720 642 CURVE",
"666 260 LINE SMOOTH",
"643 93 OFFCURVE",
"513 35 OFFCURVE",
"424 35 CURVE SMOOTH",
"327 35 OFFCURVE",
"240 79 OFFCURVE",
"240 208 CURVE SMOOTH",
"240 223 OFFCURVE",
"241 240 OFFCURVE",
"244 258 CURVE SMOOTH",
"295 626 LINE",
"321 644 OFFCURVE",
"357 661 OFFCURVE",
"393 669 CURVE",
"391 707 LINE",
"357 702 OFFCURVE",
"273 700 OFFCURVE",
"235 700 CURVE SMOOTH",
"187 700 OFFCURVE",
"147 703 OFFCURVE",
"107 707 CURVE",
"103 662 LINE",
"132 654 OFFCURVE",
"160 647 OFFCURVE",
"182 631 CURVE",
"126 231 LINE SMOOTH",
"124 219 OFFCURVE",
"123 209 OFFCURVE",
"123 197 CURVE SMOOTH",
"123 43 OFFCURVE",
"250 -18 OFFCURVE",
"386 -18 CURVE SMOOTH",
"546 -18 OFFCURVE",
"689 59 OFFCURVE",
"717 260 CURVE SMOOTH",
"770 637 LINE",
"791 657 OFFCURVE",
"817 669 OFFCURVE",
"852 677 CURVE"
);
},
{
closed = 1;
nodes = (
"500 866 LINE",
"403 767 LINE",
"423 744 LINE",
"510 784 LINE",
"593 745 LINE",
"623 767 LINE",
"547 866 LINE"
);
}
);
width = 806;
}
);
note = Ucircumflex;
unicode = 00DB;
},
{
glyphname = Udieresis;
layers = (
{
layerId = "F0C8EF09-FA88-4A15-9CCE-7A8BC6200D57";
paths = (
{
closed = 1;
nodes = (
"849 709 LINE",
"823 704 OFFCURVE",
"761 702 OFFCURVE",
"733 702 CURVE SMOOTH",
"698 702 OFFCURVE",
"660 705 OFFCURVE",
"631 709 CURVE",
"628 671 LINE",
"661 668 OFFCURVE",
"698 659 OFFCURVE",
"720 642 CURVE",
"666 260 LINE SMOOTH",
"643 93 OFFCURVE",
"513 35 OFFCURVE",
"424 35 CURVE SMOOTH",
"327 35 OFFCURVE",
"240 79 OFFCURVE",
"240 208 CURVE SMOOTH",
"240 223 OFFCURVE",
"241 240 OFFCURVE",
"244 258 CURVE SMOOTH",
"295 626 LINE",
"321 644 OFFCURVE",
"357 661 OFFCURVE",
"393 669 CURVE",
"391 707 LINE",
"357 702 OFFCURVE",
"273 700 OFFCURVE",
"235 700 CURVE SMOOTH",
"187 700 OFFCURVE",
"147 703 OFFCURVE",
"107 707 CURVE",
"103 662 LINE",
"132 654 OFFCURVE",
"160 647 OFFCURVE",
"182 631 CURVE",
"126 231 LINE SMOOTH",
"124 219 OFFCURVE",
"123 209 OFFCURVE",
"123 197 CURVE SMOOTH",
"123 43 OFFCURVE",
"250 -18 OFFCURVE",
"386 -18 CURVE SMOOTH",
"546 -18 OFFCURVE",
"689 59 OFFCURVE",
"717 260 CURVE SMOOTH",
"770 637 LINE",
"791 657 OFFCURVE",
"817 669 OFFCURVE",
"852 677 CURVE"
);
},
{
closed = 1;
nodes = (
"359 793 OFFCURVE",
"382 766 OFFCURVE",
"416 766 CURVE SMOOTH",
"451 766 OFFCURVE",
"482 797 OFFCURVE",
"482 837 CURVE SMOOTH",
"482 869 OFFCURVE",
"458 896 OFFCURVE",
"424 896 CURVE SMOOTH",
"390 896 OFFCURVE",
"359 865 OFFCURVE",
"359 826 CURVE SMOOTH"
);
},
{
closed = 1;
nodes = (
"555 793 OFFCURVE",
"578 766 OFFCURVE",
"613 766 CURVE SMOOTH",
"647 766 OFFCURVE",
"679 797 OFFCURVE",
"679 837 CURVE SMOOTH",
"679 869 OFFCURVE",
"655 896 OFFCURVE",
"620 896 CURVE SMOOTH",
"586 896 OFFCURVE",
"555 865 OFFCURVE",
"555 826 CURVE SMOOTH"
);
}
);
width = 806;
}
);
note = Udieresis;
unicode = 00DC;
},
{
glyphname = Ugrave;
layers = (
{
layerId = "F0C8EF09-FA88-4A15-9CCE-7A8BC6200D57";
paths = (
{
closed = 1;
nodes = (
"849 709 LINE",
"823 704 OFFCURVE",
"761 702 OFFCURVE",
"733 702 CURVE SMOOTH",
"698 702 OFFCURVE",
"660 705 OFFCURVE",
"631 709 CURVE",
"628 671 LINE",
"661 668 OFFCURVE",
"698 659 OFFCURVE",
"720 642 CURVE",
"666 260 LINE SMOOTH",
"643 93 OFFCURVE",
"513 35 OFFCURVE",
"424 35 CURVE SMOOTH",
"327 35 OFFCURVE",
"240 79 OFFCURVE",
"240 208 CURVE SMOOTH",
"240 223 OFFCURVE",
"241 240 OFFCURVE",
"244 258 CURVE SMOOTH",
"295 626 LINE",
"321 644 OFFCURVE",
"357 661 OFFCURVE",
"393 669 CURVE",
"391 707 LINE",
"357 702 OFFCURVE",
"273 700 OFFCURVE",
"235 700 CURVE SMOOTH",
"187 700 OFFCURVE",
"147 703 OFFCURVE",
"107 707 CURVE",
"103 662 LINE",
"132 654 OFFCURVE",
"160 647 OFFCURVE",
"182 631 CURVE",
"126 231 LINE SMOOTH",
"124 219 OFFCURVE",
"123 209 OFFCURVE",
"123 197 CURVE SMOOTH",
"123 43 OFFCURVE",
"250 -18 OFFCURVE",
"386 -18 CURVE SMOOTH",
"546 -18 OFFCURVE",
"689 59 OFFCURVE",
"717 260 CURVE SMOOTH",
"770 637 LINE",
"791 657 OFFCURVE",
"817 669 OFFCURVE",
"852 677 CURVE"
);
},
{
closed = 1;
nodes = (
"591 764 LINE",
"546 798 OFFCURVE",
"516 845 OFFCURVE",
"509 888 CURVE",
"479 892 LINE",
"426 856 LINE",
"445 797 OFFCURVE",
"490 750 OFFCURVE",
"567 729 CURVE"
);
}
);
width = 806;
}
);
note = Ugrave;
unicode = 00D9;
},
{
glyphname = V;
layers = (
{
layerId = "F0C8EF09-FA88-4A15-9CCE-7A8BC6200D57";
paths = (
{
closed = 1;
nodes = (
"631 668 LINE",
"660 663 OFFCURVE",
"697 655 OFFCURVE",
"728 641 CURVE",
"669 484 OFFCURVE",
"507 234 OFFCURVE",
"447 138 CURVE",
"432 96 LINE",
"429 96 LINE",
"425 138 LINE",
"276 640 LINE",
"307 656 OFFCURVE",
"353 668 OFFCURVE",
"382 674 CURVE",
"381 706 LINE",
"357 703 OFFCURVE",
"274 700 OFFCURVE",
"234 700 CURVE SMOOTH",
"194 700 OFFCURVE",
"131 702 OFFCURVE",
"95 705 CURVE",
"90 668 LINE",
"110 665 OFFCURVE",
"131 658 OFFCURVE",
"152 648 CURVE",
"370 -20 LINE",
"410 -18 LINE",
"430 4 LINE",
"489 136 OFFCURVE",
"715 483 OFFCURVE",
"839 652 CURVE",
"858 662 OFFCURVE",
"879 670 OFFCURVE",
"893 674 CURVE",
"892 706 LINE",
"868 703 OFFCURVE",
"807 700 OFFCURVE",
"767 700 CURVE SMOOTH",
"727 700 OFFCURVE",
"672 702 OFFCURVE",
"636 705 CURVE"
);
}
);
width = 843;
}
);
leftKerningGroup = V;
note = V;
rightKerningGroup = V;
unicode = 0056;
},
{
glyphname = W;
layers = (
{
layerId = "F0C8EF09-FA88-4A15-9CCE-7A8BC6200D57";
paths = (
{
closed = 1;
nodes = (
"1028 668 LINE",
"1054 664 OFFCURVE",
"1089 654 OFFCURVE",
"1117 643 CURVE",
"1049 480 OFFCURVE",
"886 241 OFFCURVE",
"810 138 CURVE",
"795 96 LINE",
"792 96 LINE",
"788 138 LINE",
"728 361 LINE",
"812 475 OFFCURVE",
"896 592 OFFCURVE",
"955 665 CURVE",
"949 664 LINE",
"959 668 OFFCURVE",
"968 672 OFFCURVE",
"976 674 CURVE",
"975 706 LINE",
"951 703 OFFCURVE",
"910 700 OFFCURVE",
"870 700 CURVE SMOOTH",
"830 700 OFFCURVE",
"795 702 OFFCURVE",
"759 705 CURVE",
"754 668 LINE",
"785 659 OFFCURVE",
"807 649 OFFCURVE",
"828 633 CURVE",
"800 572 OFFCURVE",
"758 498 OFFCURVE",
"710 425 CURVE",
"649 653 LINE",
"665 662 OFFCURVE",
"683 670 OFFCURVE",
"702 674 CURVE",
"701 706 LINE",
"677 703 OFFCURVE",
"628 700 OFFCURVE",
"588 700 CURVE SMOOTH",
"548 700 OFFCURVE",
"471 702 OFFCURVE",
"435 705 CURVE",
"430 668 LINE",
"456 663 OFFCURVE",
"495 656 OFFCURVE",
"530 644 CURVE",
"626 328 LINE",
"571 247 OFFCURVE",
"523 177 OFFCURVE",
"493 138 CURVE",
"478 96 LINE",
"475 96 LINE",
"471 138 LINE",
"291 648 LINE",
"319 659 OFFCURVE",
"353 670 OFFCURVE",
"375 674 CURVE",
"374 706 LINE",
"350 703 OFFCURVE",
"267 700 OFFCURVE",
"227 700 CURVE SMOOTH",
"187 700 OFFCURVE",
"124 702 OFFCURVE",
"88 705 CURVE",
"83 668 LINE",
"108 664 OFFCURVE",
"140 657 OFFCURVE",
"169 645 CURVE",
"416 -20 LINE",
"456 -18 LINE",
"476 4 LINE",
"503 54 OFFCURVE",
"565 156 OFFCURVE",
"644 268 CURVE",
"733 -20 LINE",
"773 -18 LINE",
"793 4 LINE",
"855 139 OFFCURVE",
"1098 475 OFFCURVE",
"1225 646 CURVE",
"1247 658 OFFCURVE",
"1273 669 OFFCURVE",
"1290 674 CURVE",
"1289 706 LINE",
"1265 703 OFFCURVE",
"1204 700 OFFCURVE",
"1164 700 CURVE SMOOTH",
"1124 700 OFFCURVE",
"1069 702 OFFCURVE",
"1033 705 CURVE"
);
}
);
width = 1242;
}
);
leftKerningGroup = W;
note = W;
rightKerningGroup = W;
unicode = 0057;
},
{
glyphname = X;
layers = (
{
layerId = "F0C8EF09-FA88-4A15-9CCE-7A8BC6200D57";
paths = (
{
closed = 1;
nodes = (
"297 37 LINE",
"262 42 OFFCURVE",
"214 57 OFFCURVE",
"183 73 CURVE",
"401 305 LINE",
"553 60 LINE",
"524 47 OFFCURVE",
"486 35 OFFCURVE",
"462 31 CURVE",
"463 -6 LINE",
"487 -3 OFFCURVE",
"570 0 OFFCURVE",
"610 0 CURVE SMOOTH",
"650 0 OFFCURVE",
"733 -2 OFFCURVE",
"769 -5 CURVE",
"774 37 LINE",
"752 40 OFFCURVE",
"726 46 OFFCURVE",
"700 55 CURVE",
"492 390 LINE",
"734 642 LINE",
"758 655 OFFCURVE",
"789 669 OFFCURVE",
"808 674 CURVE",
"807 706 LINE",
"783 703 OFFCURVE",
"722 700 OFFCURVE",
"682 700 CURVE SMOOTH",
"642 700 OFFCURVE",
"587 702 OFFCURVE",
"551 705 CURVE",
"546 668 LINE",
"580 662 OFFCURVE",
"628 648 OFFCURVE",
"659 632 CURVE",
"468 430 LINE",
"332 650 LINE",
"359 660 OFFCURVE",
"390 670 OFFCURVE",
"411 674 CURVE",
"410 706 LINE",
"386 703 OFFCURVE",
"303 700 OFFCURVE",
"263 700 CURVE SMOOTH",
"223 700 OFFCURVE",
"160 702 OFFCURVE",
"124 705 CURVE",
"119 668 LINE",
"139 664 OFFCURVE",
"163 660 OFFCURVE",
"186 652 CURVE",
"376 345 LINE",
"102 61 LINE",
"76 48 OFFCURVE",
"43 35 OFFCURVE",
"25 31 CURVE",
"26 -6 LINE",
"50 -3 OFFCURVE",
"111 0 OFFCURVE",
"151 0 CURVE SMOOTH",
"191 0 OFFCURVE",
"256 -2 OFFCURVE",
"292 -5 CURVE"
);
}
);
width = 799;
}
);
note = X;
unicode = 0058;
},
{
glyphname = Y;
layers = (
{
layerId = "F0C8EF09-FA88-4A15-9CCE-7A8BC6200D57";
paths = (
{
closed = 1;
nodes = (
"209 -8 LINE",
"243 -4 OFFCURVE",
"335 0 OFFCURVE",
"373 0 CURVE SMOOTH",
"421 0 OFFCURVE",
"490 -4 OFFCURVE",
"530 -8 CURVE",
"534 37 LINE",
"493 41 OFFCURVE",
"458 52 OFFCURVE",
"430 72 CURVE",
"431 111 OFFCURVE",
"437 157 OFFCURVE",
"445 211 CURVE SMOOTH",
"450 254 OFFCURVE",
"456 289 OFFCURVE",
"464 321 CURVE",
"750 643 LINE",
"773 656 OFFCURVE",
"802 669 OFFCURVE",
"821 674 CURVE",
"820 706 LINE",
"796 703 OFFCURVE",
"735 700 OFFCURVE",
"695 700 CURVE SMOOTH",
"655 700 OFFCURVE",
"600 702 OFFCURVE",
"564 705 CURVE",
"559 668 LINE",
"593 663 OFFCURVE",
"639 648 OFFCURVE",
"670 633 CURVE",
"444 374 LINE",
"305 647 LINE",
"333 659 OFFCURVE",
"367 670 OFFCURVE",
"390 674 CURVE",
"389 706 LINE",
"365 703 OFFCURVE",
"282 700 OFFCURVE",
"242 700 CURVE SMOOTH",
"202 700 OFFCURVE",
"139 702 OFFCURVE",
"103 705 CURVE",
"98 668 LINE",
"119 664 OFFCURVE",
"144 659 OFFCURVE",
"169 650 CURVE",
"351 317 LINE",
"349 285 OFFCURVE",
"345 254 OFFCURVE",
"340 217 CURVE SMOOTH",
"331 156 OFFCURVE",
"321 105 OFFCURVE",
"311 65 CURVE",
"284 47 OFFCURVE",
"244 33 OFFCURVE",
"204 28 CURVE"
);
}
);
width = 763;
}
);
leftKerningGroup = Y;
note = Y;
rightKerningGroup = Y;
unicode = 0059;
},
{
glyphname = Yacute;
layers = (
{
layerId = "F0C8EF09-FA88-4A15-9CCE-7A8BC6200D57";
paths = (
{
closed = 1;
nodes = (
"209 -8 LINE",
"243 -4 OFFCURVE",
"335 0 OFFCURVE",
"373 0 CURVE SMOOTH",
"421 0 OFFCURVE",
"490 -4 OFFCURVE",
"530 -8 CURVE",
"534 37 LINE",
"493 41 OFFCURVE",
"458 52 OFFCURVE",
"430 72 CURVE",
"431 111 OFFCURVE",
"437 157 OFFCURVE",
"445 211 CURVE SMOOTH",
"450 254 OFFCURVE",
"456 289 OFFCURVE",
"464 321 CURVE",
"750 643 LINE",
"773 656 OFFCURVE",
"802 669 OFFCURVE",
"821 674 CURVE",
"820 706 LINE",
"796 703 OFFCURVE",
"735 700 OFFCURVE",
"695 700 CURVE SMOOTH",
"655 700 OFFCURVE",
"600 702 OFFCURVE",
"564 705 CURVE",
"559 668 LINE",
"593 663 OFFCURVE",
"639 648 OFFCURVE",
"670 633 CURVE",
"444 374 LINE",
"305 647 LINE",
"333 659 OFFCURVE",
"367 670 OFFCURVE",
"390 674 CURVE",
"389 706 LINE",
"365 703 OFFCURVE",
"282 700 OFFCURVE",
"242 700 CURVE SMOOTH",
"202 700 OFFCURVE",
"139 702 OFFCURVE",
"103 705 CURVE",
"98 668 LINE",
"119 664 OFFCURVE",
"144 659 OFFCURVE",
"169 650 CURVE",
"351 317 LINE",
"349 285 OFFCURVE",
"345 254 OFFCURVE",
"340 217 CURVE SMOOTH",
"331 156 OFFCURVE",
"321 105 OFFCURVE",
"311 65 CURVE",
"284 47 OFFCURVE",
"244 33 OFFCURVE",
"204 28 CURVE"
);
},
{
closed = 1;
nodes = (
"425 729 LINE",
"502 750 OFFCURVE",
"547 797 OFFCURVE",
"566 856 CURVE",
"513 892 LINE",
"483 888 LINE",
"476 845 OFFCURVE",
"446 798 OFFCURVE",
"401 764 CURVE"
);
}
);
width = 763;
}
);
leftKerningGroup = Y;
note = Yacute;
rightKerningGroup = Y;
unicode = 00DD;
},
{
glyphname = Ydieresis;
layers = (
{
layerId = "F0C8EF09-FA88-4A15-9CCE-7A8BC6200D57";
paths = (
{
closed = 1;
nodes = (
"209 -8 LINE",
"243 -4 OFFCURVE",
"335 0 OFFCURVE",
"373 0 CURVE SMOOTH",
"421 0 OFFCURVE",
"490 -4 OFFCURVE",
"530 -8 CURVE",
"534 37 LINE",
"493 41 OFFCURVE",
"458 52 OFFCURVE",
"430 72 CURVE",
"431 111 OFFCURVE",
"437 157 OFFCURVE",
"445 211 CURVE SMOOTH",
"450 254 OFFCURVE",
"456 289 OFFCURVE",
"464 321 CURVE",
"750 643 LINE",
"773 656 OFFCURVE",
"802 669 OFFCURVE",
"821 674 CURVE",
"820 706 LINE",
"796 703 OFFCURVE",
"735 700 OFFCURVE",
"695 700 CURVE SMOOTH",
"655 700 OFFCURVE",
"600 702 OFFCURVE",
"564 705 CURVE",
"559 668 LINE",
"593 663 OFFCURVE",
"639 648 OFFCURVE",
"670 633 CURVE",
"444 374 LINE",
"305 647 LINE",
"333 659 OFFCURVE",
"367 670 OFFCURVE",
"390 674 CURVE",
"389 706 LINE",
"365 703 OFFCURVE",
"282 700 OFFCURVE",
"242 700 CURVE SMOOTH",
"202 700 OFFCURVE",
"139 702 OFFCURVE",
"103 705 CURVE",
"98 668 LINE",
"119 664 OFFCURVE",
"144 659 OFFCURVE",
"169 650 CURVE",
"351 317 LINE",
"349 285 OFFCURVE",
"345 254 OFFCURVE",
"340 217 CURVE SMOOTH",
"331 156 OFFCURVE",
"321 105 OFFCURVE",
"311 65 CURVE",
"284 47 OFFCURVE",
"244 33 OFFCURVE",
"204 28 CURVE"
);
},
{
closed = 1;
nodes = (
"322 793 OFFCURVE",
"345 766 OFFCURVE",
"379 766 CURVE SMOOTH",
"414 766 OFFCURVE",
"445 797 OFFCURVE",
"445 837 CURVE SMOOTH",
"445 869 OFFCURVE",
"421 896 OFFCURVE",
"387 896 CURVE SMOOTH",
"353 896 OFFCURVE",
"322 865 OFFCURVE",
"322 826 CURVE SMOOTH"
);
},
{
closed = 1;
nodes = (
"518 793 OFFCURVE",
"541 766 OFFCURVE",
"576 766 CURVE SMOOTH",
"610 766 OFFCURVE",
"642 797 OFFCURVE",
"642 837 CURVE SMOOTH",
"642 869 OFFCURVE",
"618 896 OFFCURVE",
"583 896 CURVE SMOOTH",
"549 896 OFFCURVE",
"518 865 OFFCURVE",
"518 826 CURVE SMOOTH"
);
}
);
width = 763;
}
);
leftKerningGroup = Y;
note = Ydieresis;
rightKerningGroup = Y;
unicode = 0178;
},
{
glyphname = Z;
layers = (
{
layerId = "F0C8EF09-FA88-4A15-9CCE-7A8BC6200D57";
paths = (
{
closed = 1;
nodes = (
"133 559 LINE",
"166 544 LINE",
"260 623 LINE",
"314 640 OFFCURVE",
"372 650 OFFCURVE",
"437 650 CURVE SMOOTH",
"486 650 OFFCURVE",
"552 647 OFFCURVE",
"599 638 CURVE",
"464 468 OFFCURVE",
"265 268 OFFCURVE",
"27 36 CURVE",
"38 -15 LINE",
"109 -5 OFFCURVE",
"224 0 OFFCURVE",
"318 0 CURVE SMOOTH",
"428 0 OFFCURVE",
"516 -4 OFFCURVE",
"620 -19 CURVE",
"699 136 LINE",
"654 159 LINE",
"561 72 LINE",
"482 54 OFFCURVE",
"420 46 OFFCURVE",
"343 46 CURVE SMOOTH",
"287 46 OFFCURVE",
"233 52 OFFCURVE",
"196 61 CURVE",
"407 261 OFFCURVE",
"619 493 OFFCURVE",
"771 680 CURVE",
"745 710 LINE",
"657 703 OFFCURVE",
"557 700 OFFCURVE",
"467 700 CURVE SMOOTH",
"378 700 OFFCURVE",
"286 705 OFFCURVE",
"205 715 CURVE"
);
}
);
width = 719;
}
);
note = Z;
unicode = 005A;
},
{
glyphname = Zcaron;
layers = (
{
layerId = "F0C8EF09-FA88-4A15-9CCE-7A8BC6200D57";
paths = (
{
closed = 1;
nodes = (
"133 559 LINE",
"166 544 LINE",
"260 623 LINE",
"314 640 OFFCURVE",
"372 650 OFFCURVE",
"437 650 CURVE SMOOTH",
"486 650 OFFCURVE",
"552 647 OFFCURVE",
"599 638 CURVE",
"464 468 OFFCURVE",
"265 268 OFFCURVE",
"27 36 CURVE",
"38 -15 LINE",
"109 -5 OFFCURVE",
"224 0 OFFCURVE",
"318 0 CURVE SMOOTH",
"428 0 OFFCURVE",
"516 -4 OFFCURVE",
"620 -19 CURVE",
"699 136 LINE",
"654 159 LINE",
"561 72 LINE",
"482 54 OFFCURVE",
"420 46 OFFCURVE",
"343 46 CURVE SMOOTH",
"287 46 OFFCURVE",
"233 52 OFFCURVE",
"196 61 CURVE",
"407 261 OFFCURVE",
"619 493 OFFCURVE",
"771 680 CURVE",
"745 710 LINE",
"657 703 OFFCURVE",
"557 700 OFFCURVE",
"467 700 CURVE SMOOTH",
"378 700 OFFCURVE",
"286 705 OFFCURVE",
"205 715 CURVE"
);
},
{
closed = 1;
nodes = (
"482 744 LINE",
"579 843 LINE",
"559 866 LINE",
"472 826 LINE",
"389 865 LINE",
"359 843 LINE",
"435 744 LINE"
);
}
);
width = 719;
}
);
note = Zcaron;
unicode = 017D;
},
{
glyphname = a;
layers = (
{
layerId = "F0C8EF09-FA88-4A15-9CCE-7A8BC6200D57";
paths = (
{
closed = 1;
nodes = (
"325 417 OFFCURVE",
"302 431 OFFCURVE",
"263 431 CURVE SMOOTH",
"150 431 OFFCURVE",
"45 259 OFFCURVE",
"45 111 CURVE SMOOTH",
"45 47 OFFCURVE",
"70 -14 OFFCURVE",
"132 -14 CURVE SMOOTH",
"174 -14 OFFCURVE",
"228 7 OFFCURVE",
"283 100 CURVE",
"282 84 OFFCURVE",
"282 70 OFFCURVE",
"282 58 CURVE SMOOTH",
"282 18 OFFCURVE",
"298 1 OFFCURVE",
"317 -10 CURVE",
"456 33 LINE",
"449 71 LINE",
"436 68 OFFCURVE",
"413 64 OFFCURVE",
"399 64 CURVE SMOOTH",
"387 64 OFFCURVE",
"369 70 OFFCURVE",
"369 110 CURVE SMOOTH",
"369 198 OFFCURVE",
"387 308 OFFCURVE",
"409 432 CURVE",
"390 440 LINE",
"375 424 OFFCURVE",
"357 417 OFFCURVE",
"344 414 CURVE"
);
},
{
closed = 1;
nodes = (
"146 60 OFFCURVE",
"132 89 OFFCURVE",
"132 140 CURVE SMOOTH",
"132 252 OFFCURVE",
"198 379 OFFCURVE",
"261 379 CURVE SMOOTH",
"282 379 OFFCURVE",
"305 363 OFFCURVE",
"315 331 CURVE",
"310 306 OFFCURVE",
"305 277 OFFCURVE",
"300 247 CURVE",
"267 118 OFFCURVE",
"222 60 OFFCURVE",
"180 60 CURVE SMOOTH"
);
}
);
width = 459;
}
);
leftKerningGroup = a;
note = a;
unicode = 0061;
},
{
glyphname = aacute;
layers = (
{
layerId = "F0C8EF09-FA88-4A15-9CCE-7A8BC6200D57";
paths = (
{
closed = 1;
nodes = (
"325 417 OFFCURVE",
"302 431 OFFCURVE",
"263 431 CURVE SMOOTH",
"150 431 OFFCURVE",
"45 259 OFFCURVE",
"45 111 CURVE SMOOTH",
"45 47 OFFCURVE",
"70 -14 OFFCURVE",
"132 -14 CURVE SMOOTH",
"174 -14 OFFCURVE",
"228 7 OFFCURVE",
"283 100 CURVE",
"282 84 OFFCURVE",
"282 70 OFFCURVE",
"282 58 CURVE SMOOTH",
"282 18 OFFCURVE",
"298 1 OFFCURVE",
"317 -10 CURVE",
"456 33 LINE",
"449 71 LINE",
"436 68 OFFCURVE",
"413 64 OFFCURVE",
"399 64 CURVE SMOOTH",
"387 64 OFFCURVE",
"369 70 OFFCURVE",
"369 110 CURVE SMOOTH",
"369 198 OFFCURVE",
"387 308 OFFCURVE",
"409 432 CURVE",
"390 440 LINE",
"375 424 OFFCURVE",
"357 417 OFFCURVE",
"344 414 CURVE"
);
},
{
closed = 1;
nodes = (
"146 60 OFFCURVE",
"132 89 OFFCURVE",
"132 140 CURVE SMOOTH",
"132 252 OFFCURVE",
"198 379 OFFCURVE",
"261 379 CURVE SMOOTH",
"282 379 OFFCURVE",
"305 363 OFFCURVE",
"315 331 CURVE",
"310 306 OFFCURVE",
"305 277 OFFCURVE",
"300 247 CURVE",
"267 118 OFFCURVE",
"222 60 OFFCURVE",
"180 60 CURVE SMOOTH"
);
},
{
closed = 1;
nodes = (
"222 499 LINE",
"299 520 OFFCURVE",
"344 567 OFFCURVE",
"363 626 CURVE",
"310 662 LINE",
"280 658 LINE",
"273 615 OFFCURVE",
"243 568 OFFCURVE",
"198 534 CURVE"
);
}
);
width = 459;
}
);
leftKerningGroup = a;
note = aacute;
unicode = 00E1;
},
{
glyphname = acircumflex;
layers = (
{
layerId = "F0C8EF09-FA88-4A15-9CCE-7A8BC6200D57";
paths = (
{
closed = 1;
nodes = (
"325 417 OFFCURVE",
"302 431 OFFCURVE",
"263 431 CURVE SMOOTH",
"150 431 OFFCURVE",
"45 259 OFFCURVE",
"45 111 CURVE SMOOTH",
"45 47 OFFCURVE",
"70 -14 OFFCURVE",
"132 -14 CURVE SMOOTH",
"174 -14 OFFCURVE",
"228 7 OFFCURVE",
"283 100 CURVE",
"282 84 OFFCURVE",
"282 70 OFFCURVE",
"282 58 CURVE SMOOTH",
"282 18 OFFCURVE",
"298 1 OFFCURVE",
"317 -10 CURVE",
"456 33 LINE",
"449 71 LINE",
"436 68 OFFCURVE",
"413 64 OFFCURVE",
"399 64 CURVE SMOOTH",
"387 64 OFFCURVE",
"369 70 OFFCURVE",
"369 110 CURVE SMOOTH",
"369 198 OFFCURVE",
"387 308 OFFCURVE",
"409 432 CURVE",
"390 440 LINE",
"375 424 OFFCURVE",
"357 417 OFFCURVE",
"344 414 CURVE"
);
},
{
closed = 1;
nodes = (
"146 60 OFFCURVE",
"132 89 OFFCURVE",
"132 140 CURVE SMOOTH",
"132 252 OFFCURVE",
"198 379 OFFCURVE",
"261 379 CURVE SMOOTH",
"282 379 OFFCURVE",
"305 363 OFFCURVE",
"315 331 CURVE",
"310 306 OFFCURVE",
"305 277 OFFCURVE",
"300 247 CURVE",
"267 118 OFFCURVE",
"222 60 OFFCURVE",
"180 60 CURVE SMOOTH"
);
},
{
closed = 1;
nodes = (
"260 636 LINE",
"163 537 LINE",
"183 514 LINE",
"270 554 LINE",
"353 515 LINE",
"383 537 LINE",
"307 636 LINE"
);
}
);
width = 459;
}
);
leftKerningGroup = a;
note = acircumflex;
unicode = 00E2;
},
{
glyphname = adieresis;
layers = (
{
layerId = "F0C8EF09-FA88-4A15-9CCE-7A8BC6200D57";
paths = (
{
closed = 1;
nodes = (
"325 417 OFFCURVE",
"302 431 OFFCURVE",
"263 431 CURVE SMOOTH",
"150 431 OFFCURVE",
"45 259 OFFCURVE",
"45 111 CURVE SMOOTH",
"45 47 OFFCURVE",
"70 -14 OFFCURVE",
"132 -14 CURVE SMOOTH",
"174 -14 OFFCURVE",
"228 7 OFFCURVE",
"283 100 CURVE",
"282 84 OFFCURVE",
"282 70 OFFCURVE",
"282 58 CURVE SMOOTH",
"282 18 OFFCURVE",
"298 1 OFFCURVE",
"317 -10 CURVE",
"456 33 LINE",
"449 71 LINE",
"436 68 OFFCURVE",
"413 64 OFFCURVE",
"399 64 CURVE SMOOTH",
"387 64 OFFCURVE",
"369 70 OFFCURVE",
"369 110 CURVE SMOOTH",
"369 198 OFFCURVE",
"387 308 OFFCURVE",
"409 432 CURVE",
"390 440 LINE",
"375 424 OFFCURVE",
"357 417 OFFCURVE",
"344 414 CURVE"
);
},
{
closed = 1;
nodes = (
"146 60 OFFCURVE",
"132 89 OFFCURVE",
"132 140 CURVE SMOOTH",
"132 252 OFFCURVE",
"198 379 OFFCURVE",
"261 379 CURVE SMOOTH",
"282 379 OFFCURVE",
"305 363 OFFCURVE",
"315 331 CURVE",
"310 306 OFFCURVE",
"305 277 OFFCURVE",
"300 247 CURVE",
"267 118 OFFCURVE",
"222 60 OFFCURVE",
"180 60 CURVE SMOOTH"
);
},
{
closed = 1;
nodes = (
"119 563 OFFCURVE",
"142 536 OFFCURVE",
"176 536 CURVE SMOOTH",
"211 536 OFFCURVE",
"242 567 OFFCURVE",
"242 607 CURVE SMOOTH",
"242 639 OFFCURVE",
"218 666 OFFCURVE",
"184 666 CURVE SMOOTH",
"150 666 OFFCURVE",
"119 635 OFFCURVE",
"119 596 CURVE SMOOTH"
);
},
{
closed = 1;
nodes = (
"315 563 OFFCURVE",
"338 536 OFFCURVE",
"373 536 CURVE SMOOTH",
"407 536 OFFCURVE",
"439 567 OFFCURVE",
"439 607 CURVE SMOOTH",
"439 639 OFFCURVE",
"415 666 OFFCURVE",
"380 666 CURVE SMOOTH",
"346 666 OFFCURVE",
"315 635 OFFCURVE",
"315 596 CURVE SMOOTH"
);
}
);
width = 459;
}
);
leftKerningGroup = a;
note = adieresis;
unicode = 00E4;
},
{
glyphname = agrave;
layers = (
{
layerId = "F0C8EF09-FA88-4A15-9CCE-7A8BC6200D57";
paths = (
{
closed = 1;
nodes = (
"325 417 OFFCURVE",
"302 431 OFFCURVE",
"263 431 CURVE SMOOTH",
"150 431 OFFCURVE",
"45 259 OFFCURVE",
"45 111 CURVE SMOOTH",
"45 47 OFFCURVE",
"70 -14 OFFCURVE",
"132 -14 CURVE SMOOTH",
"174 -14 OFFCURVE",
"228 7 OFFCURVE",
"283 100 CURVE",
"282 84 OFFCURVE",
"282 70 OFFCURVE",
"282 58 CURVE SMOOTH",
"282 18 OFFCURVE",
"298 1 OFFCURVE",
"317 -10 CURVE",
"456 33 LINE",
"449 71 LINE",
"436 68 OFFCURVE",
"413 64 OFFCURVE",
"399 64 CURVE SMOOTH",
"387 64 OFFCURVE",
"369 70 OFFCURVE",
"369 110 CURVE SMOOTH",
"369 198 OFFCURVE",
"387 308 OFFCURVE",
"409 432 CURVE",
"390 440 LINE",
"375 424 OFFCURVE",
"357 417 OFFCURVE",
"344 414 CURVE"
);
},
{
closed = 1;
nodes = (
"146 60 OFFCURVE",
"132 89 OFFCURVE",
"132 140 CURVE SMOOTH",
"132 252 OFFCURVE",
"198 379 OFFCURVE",
"261 379 CURVE SMOOTH",
"282 379 OFFCURVE",
"305 363 OFFCURVE",
"315 331 CURVE",
"310 306 OFFCURVE",
"305 277 OFFCURVE",
"300 247 CURVE",
"267 118 OFFCURVE",
"222 60 OFFCURVE",
"180 60 CURVE SMOOTH"
);
},
{
closed = 1;
nodes = (
"351 534 LINE",
"306 568 OFFCURVE",
"276 615 OFFCURVE",
"269 658 CURVE",
"239 662 LINE",
"186 626 LINE",
"205 567 OFFCURVE",
"250 520 OFFCURVE",
"327 499 CURVE"
);
}
);
width = 459;
}
);
leftKerningGroup = a;
note = agrave;
unicode = 00E0;
},
{
glyphname = atilde;
layers = (
{
layerId = "F0C8EF09-FA88-4A15-9CCE-7A8BC6200D57";
paths = (
{
closed = 1;
nodes = (
"325 417 OFFCURVE",
"302 431 OFFCURVE",
"263 431 CURVE SMOOTH",
"150 431 OFFCURVE",
"45 259 OFFCURVE",
"45 111 CURVE SMOOTH",
"45 47 OFFCURVE",
"70 -14 OFFCURVE",
"132 -14 CURVE SMOOTH",
"174 -14 OFFCURVE",
"228 7 OFFCURVE",
"283 100 CURVE",
"282 84 OFFCURVE",
"282 70 OFFCURVE",
"282 58 CURVE SMOOTH",
"282 18 OFFCURVE",
"298 1 OFFCURVE",
"317 -10 CURVE",
"456 33 LINE",
"449 71 LINE",
"436 68 OFFCURVE",
"413 64 OFFCURVE",
"399 64 CURVE SMOOTH",
"387 64 OFFCURVE",
"369 70 OFFCURVE",
"369 110 CURVE SMOOTH",
"369 198 OFFCURVE",
"387 308 OFFCURVE",
"409 432 CURVE",
"390 440 LINE",
"375 424 OFFCURVE",
"357 417 OFFCURVE",
"344 414 CURVE"
);
},
{
closed = 1;
nodes = (
"146 60 OFFCURVE",
"132 89 OFFCURVE",
"132 140 CURVE SMOOTH",
"132 252 OFFCURVE",
"198 379 OFFCURVE",
"261 379 CURVE SMOOTH",
"282 379 OFFCURVE",
"305 363 OFFCURVE",
"315 331 CURVE",
"310 306 OFFCURVE",
"305 277 OFFCURVE",
"300 247 CURVE",
"267 118 OFFCURVE",
"222 60 OFFCURVE",
"180 60 CURVE SMOOTH"
);
},
{
closed = 1;
nodes = (
"137 544 LINE",
"155 557 OFFCURVE",
"181 574 OFFCURVE",
"206 574 CURVE SMOOTH",
"255 574 OFFCURVE",
"270 531 OFFCURVE",
"334 531 CURVE SMOOTH",
"378 531 OFFCURVE",
"409 562 OFFCURVE",
"438 600 CURVE",
"423 621 LINE",
"401 606 OFFCURVE",
"378 595 OFFCURVE",
"346 595 CURVE SMOOTH",
"298 595 OFFCURVE",
"284 637 OFFCURVE",
"228 637 CURVE SMOOTH",
"183 637 OFFCURVE",
"135 589 OFFCURVE",
"118 565 CURVE"
);
}
);
width = 459;
}
);
leftKerningGroup = a;
note = atilde;
unicode = 00E3;
},
{
glyphname = b;
layers = (
{
layerId = "F0C8EF09-FA88-4A15-9CCE-7A8BC6200D57";
paths = (
{
closed = 1;
nodes = (
"213 725 OFFCURVE",
"192 749 OFFCURVE",
"175 756 CURVE",
"40 711 LINE",
"47 673 LINE",
"60 676 OFFCURVE",
"89 680 OFFCURVE",
"97 680 CURVE SMOOTH",
"115 680 OFFCURVE",
"123 673 OFFCURVE",
"123 640 CURVE SMOOTH",
"123 560 OFFCURVE",
"52 225 OFFCURVE",
"52 86 CURVE SMOOTH",
"52 66 OFFCURVE",
"52 44 OFFCURVE",
"55 24 CURVE",
"111 -2 OFFCURVE",
"165 -18 OFFCURVE",
"221 -18 CURVE SMOOTH",
"320 -18 OFFCURVE",
"422 73 OFFCURVE",
"422 250 CURVE SMOOTH",
"422 379 OFFCURVE",
"370 436 OFFCURVE",
"317 436 CURVE SMOOTH",
"252 436 OFFCURVE",
"205 389 OFFCURVE",
"170 329 CURVE",
"190 462 OFFCURVE",
"213 610 OFFCURVE",
"213 676 CURVE SMOOTH"
);
},
{
closed = 1;
nodes = (
"139 114 OFFCURVE",
"146 169 OFFCURVE",
"155 234 CURVE",
"195 319 OFFCURVE",
"236 353 OFFCURVE",
"268 353 CURVE SMOOTH",
"307 353 OFFCURVE",
"336 319 OFFCURVE",
"336 240 CURVE SMOOTH",
"336 93 OFFCURVE",
"286 36 OFFCURVE",
"230 36 CURVE SMOOTH",
"201 36 OFFCURVE",
"160 53 OFFCURVE",
"139 88 CURVE"
);
}
);
width = 457;
}
);
note = b;
unicode = 0062;
},
{
glyphname = c;
layers = (
{
layerId = "F0C8EF09-FA88-4A15-9CCE-7A8BC6200D57";
paths = (
{
closed = 1;
nodes = (
"329 416 OFFCURVE",
"307 438 OFFCURVE",
"257 438 CURVE SMOOTH",
"135 438 OFFCURVE",
"32 302 OFFCURVE",
"32 171 CURVE SMOOTH",
"32 53 OFFCURVE",
"95 -14 OFFCURVE",
"191 -14 CURVE SMOOTH",
"243 -14 OFFCURVE",
"295 6 OFFCURVE",
"315 25 CURVE",
"306 56 LINE",
"294 54 OFFCURVE",
"281 53 OFFCURVE",
"269 53 CURVE SMOOTH",
"167 53 OFFCURVE",
"117 107 OFFCURVE",
"117 212 CURVE SMOOTH",
"117 284 OFFCURVE",
"160 381 OFFCURVE",
"225 381 CURVE SMOOTH",
"234 381 OFFCURVE",
"240 380 OFFCURVE",
"246 377 CURVE",
"276 316 LINE",
"285 308 LINE",
"316 320 OFFCURVE",
"342 354 OFFCURVE",
"347 380 CURVE"
);
}
);
width = 357;
}
);
note = c;
unicode = 0063;
},
{
glyphname = ccedilla;
layers = (
{
layerId = "F0C8EF09-FA88-4A15-9CCE-7A8BC6200D57";
paths = (
{
closed = 1;
nodes = (
"329 416 OFFCURVE",
"307 438 OFFCURVE",
"257 438 CURVE SMOOTH",
"135 438 OFFCURVE",
"32 302 OFFCURVE",
"32 171 CURVE SMOOTH",
"32 58 OFFCURVE",
"90 -8 OFFCURVE",
"179 -13 CURVE",
"169 -87 LINE",
"183 -82 OFFCURVE",
"198 -79 OFFCURVE",
"213 -79 CURVE SMOOTH",
"233 -79 OFFCURVE",
"246 -88 OFFCURVE",
"246 -108 CURVE SMOOTH",
"246 -137 OFFCURVE",
"223 -146 OFFCURVE",
"205 -146 CURVE SMOOTH",
"187 -146 OFFCURVE",
"176 -140 OFFCURVE",
"164 -131 CURVE",
"146 -161 LINE",
"159 -173 OFFCURVE",
"175 -180 OFFCURVE",
"197 -180 CURVE SMOOTH",
"232 -180 OFFCURVE",
"283 -155 OFFCURVE",
"283 -100 CURVE SMOOTH",
"283 -71 OFFCURVE",
"267 -48 OFFCURVE",
"239 -48 CURVE SMOOTH",
"225 -48 OFFCURVE",
"213 -51 OFFCURVE",
"201 -57 CURVE",
"207 -13 LINE",
"253 -10 OFFCURVE",
"297 8 OFFCURVE",
"315 25 CURVE",
"306 56 LINE",
"294 54 OFFCURVE",
"281 53 OFFCURVE",
"269 53 CURVE SMOOTH",
"167 53 OFFCURVE",
"117 107 OFFCURVE",
"117 212 CURVE SMOOTH",
"117 284 OFFCURVE",
"160 381 OFFCURVE",
"225 381 CURVE SMOOTH",
"234 381 OFFCURVE",
"240 380 OFFCURVE",
"246 377 CURVE",
"276 316 LINE",
"285 308 LINE",
"316 320 OFFCURVE",
"342 354 OFFCURVE",
"347 380 CURVE"
);
}
);
width = 357;
}
);
note = ccedilla;
unicode = 00E7;
},
{
glyphname = d;
layers = (
{
layerId = "F0C8EF09-FA88-4A15-9CCE-7A8BC6200D57";
paths = (
{
closed = 1;
nodes = (
"354 607 OFFCURVE",
"341 519 OFFCURVE",
"326 421 CURVE",
"305 428 OFFCURVE",
"283 431 OFFCURVE",
"262 431 CURVE SMOOTH",
"149 431 OFFCURVE",
"44 259 OFFCURVE",
"44 111 CURVE SMOOTH",
"44 47 OFFCURVE",
"69 -14 OFFCURVE",
"131 -14 CURVE SMOOTH",
"173 -14 OFFCURVE",
"227 6 OFFCURVE",
"281 97 CURVE",
"279 81 OFFCURVE",
"279 68 OFFCURVE",
"279 58 CURVE SMOOTH",
"279 18 OFFCURVE",
"295 1 OFFCURVE",
"314 -10 CURVE",
"463 33 LINE",
"456 71 LINE",
"443 68 OFFCURVE",
"403 64 OFFCURVE",
"389 64 CURVE SMOOTH",
"377 64 OFFCURVE",
"370 70 OFFCURVE",
"370 88 CURVE SMOOTH",
"370 173 OFFCURVE",
"444 557 OFFCURVE",
"444 676 CURVE SMOOTH",
"444 725 OFFCURVE",
"423 749 OFFCURVE",
"406 756 CURVE",
"271 711 LINE",
"278 673 LINE",
"291 676 OFFCURVE",
"320 680 OFFCURVE",
"328 680 CURVE SMOOTH",
"346 680 OFFCURVE",
"354 673 OFFCURVE",
"354 640 CURVE SMOOTH"
);
},
{
closed = 1;
nodes = (
"299 246 LINE",
"266 118 OFFCURVE",
"221 60 OFFCURVE",
"179 60 CURVE SMOOTH",
"145 60 OFFCURVE",
"131 89 OFFCURVE",
"131 140 CURVE SMOOTH",
"131 252 OFFCURVE",
"197 379 OFFCURVE",
"260 379 CURVE SMOOTH",
"280 379 OFFCURVE",
"302 364 OFFCURVE",
"312 335 CURVE"
);
}
);
width = 473;
}
);
note = d;
unicode = 0064;
},
{
glyphname = e;
layers = (
{
layerId = "F0C8EF09-FA88-4A15-9CCE-7A8BC6200D57";
paths = (
{
closed = 1;
nodes = (
"145 438 OFFCURVE",
"32 311 OFFCURVE",
"32 171 CURVE SMOOTH",
"32 56 OFFCURVE",
"109 -14 OFFCURVE",
"189 -14 CURVE SMOOTH",
"237 -14 OFFCURVE",
"270 -4 OFFCURVE",
"325 25 CURVE",
"316 56 LINE",
"302 54 OFFCURVE",
"289 53 OFFCURVE",
"276 53 CURVE SMOOTH",
"197 53 OFFCURVE",
"141 87 OFFCURVE",
"123 157 CURVE",
"304 207 OFFCURVE",
"355 274 OFFCURVE",
"355 340 CURVE SMOOTH",
"355 412 OFFCURVE",
"302 438 OFFCURVE",
"257 438 CURVE SMOOTH"
);
},
{
closed = 1;
nodes = (
"117 317 OFFCURVE",
"181 381 OFFCURVE",
"222 381 CURVE SMOOTH",
"247 381 OFFCURVE",
"266 358 OFFCURVE",
"266 323 CURVE SMOOTH",
"266 280 OFFCURVE",
"254 244 OFFCURVE",
"118 191 CURVE",
"117 198 OFFCURVE",
"117 205 OFFCURVE",
"117 212 CURVE SMOOTH"
);
}
);
width = 380;
}
);
leftKerningGroup = e;
note = e;
unicode = 0065;
},
{
glyphname = eacute;
layers = (
{
layerId = "F0C8EF09-FA88-4A15-9CCE-7A8BC6200D57";
paths = (
{
closed = 1;
nodes = (
"145 438 OFFCURVE",
"32 311 OFFCURVE",
"32 171 CURVE SMOOTH",
"32 56 OFFCURVE",
"109 -14 OFFCURVE",
"189 -14 CURVE SMOOTH",
"237 -14 OFFCURVE",
"270 -4 OFFCURVE",
"325 25 CURVE",
"316 56 LINE",
"302 54 OFFCURVE",
"289 53 OFFCURVE",
"276 53 CURVE SMOOTH",
"197 53 OFFCURVE",
"141 87 OFFCURVE",
"123 157 CURVE",
"304 207 OFFCURVE",
"355 274 OFFCURVE",
"355 340 CURVE SMOOTH",
"355 412 OFFCURVE",
"302 438 OFFCURVE",
"257 438 CURVE SMOOTH"
);
},
{
closed = 1;
nodes = (
"117 317 OFFCURVE",
"181 381 OFFCURVE",
"222 381 CURVE SMOOTH",
"247 381 OFFCURVE",
"266 358 OFFCURVE",
"266 323 CURVE SMOOTH",
"266 280 OFFCURVE",
"254 244 OFFCURVE",
"118 191 CURVE",
"117 198 OFFCURVE",
"117 205 OFFCURVE",
"117 212 CURVE SMOOTH"
);
},
{
closed = 1;
nodes = (
"201 499 LINE",
"278 520 OFFCURVE",
"323 567 OFFCURVE",
"342 626 CURVE",
"289 662 LINE",
"259 658 LINE",
"252 615 OFFCURVE",
"222 568 OFFCURVE",
"177 534 CURVE"
);
}
);
width = 380;
}
);
leftKerningGroup = e;
note = eacute;
unicode = 00E9;
},
{
glyphname = ecircumflex;
layers = (
{
layerId = "F0C8EF09-FA88-4A15-9CCE-7A8BC6200D57";
paths = (
{
closed = 1;
nodes = (
"145 438 OFFCURVE",
"32 311 OFFCURVE",
"32 171 CURVE SMOOTH",
"32 56 OFFCURVE",
"109 -14 OFFCURVE",
"189 -14 CURVE SMOOTH",
"237 -14 OFFCURVE",
"270 -4 OFFCURVE",
"325 25 CURVE",
"316 56 LINE",
"302 54 OFFCURVE",
"289 53 OFFCURVE",
"276 53 CURVE SMOOTH",
"197 53 OFFCURVE",
"141 87 OFFCURVE",
"123 157 CURVE",
"304 207 OFFCURVE",
"355 274 OFFCURVE",
"355 340 CURVE SMOOTH",
"355 412 OFFCURVE",
"302 438 OFFCURVE",
"257 438 CURVE SMOOTH"
);
},
{
closed = 1;
nodes = (
"117 317 OFFCURVE",
"181 381 OFFCURVE",
"222 381 CURVE SMOOTH",
"247 381 OFFCURVE",
"266 358 OFFCURVE",
"266 323 CURVE SMOOTH",
"266 280 OFFCURVE",
"254 244 OFFCURVE",
"118 191 CURVE",
"117 198 OFFCURVE",
"117 205 OFFCURVE",
"117 212 CURVE SMOOTH"
);
},
{
closed = 1;
nodes = (
"239 636 LINE",
"142 537 LINE",
"162 514 LINE",
"249 554 LINE",
"332 515 LINE",
"362 537 LINE",
"286 636 LINE"
);
}
);
width = 380;
}
);
leftKerningGroup = e;
note = ecircumflex;
unicode = 00EA;
},
{
glyphname = edieresis;
layers = (
{
layerId = "F0C8EF09-FA88-4A15-9CCE-7A8BC6200D57";
paths = (
{
closed = 1;
nodes = (
"145 438 OFFCURVE",
"32 311 OFFCURVE",
"32 171 CURVE SMOOTH",
"32 56 OFFCURVE",
"109 -14 OFFCURVE",
"189 -14 CURVE SMOOTH",
"237 -14 OFFCURVE",
"270 -4 OFFCURVE",
"325 25 CURVE",
"316 56 LINE",
"302 54 OFFCURVE",
"289 53 OFFCURVE",
"276 53 CURVE SMOOTH",
"197 53 OFFCURVE",
"141 87 OFFCURVE",
"123 157 CURVE",
"304 207 OFFCURVE",
"355 274 OFFCURVE",
"355 340 CURVE SMOOTH",
"355 412 OFFCURVE",
"302 438 OFFCURVE",
"257 438 CURVE SMOOTH"
);
},
{
closed = 1;
nodes = (
"117 317 OFFCURVE",
"181 381 OFFCURVE",
"222 381 CURVE SMOOTH",
"247 381 OFFCURVE",
"266 358 OFFCURVE",
"266 323 CURVE SMOOTH",
"266 280 OFFCURVE",
"254 244 OFFCURVE",
"118 191 CURVE",
"117 198 OFFCURVE",
"117 205 OFFCURVE",
"117 212 CURVE SMOOTH"
);
},
{
closed = 1;
nodes = (
"98 563 OFFCURVE",
"121 536 OFFCURVE",
"155 536 CURVE SMOOTH",
"190 536 OFFCURVE",
"221 567 OFFCURVE",
"221 607 CURVE SMOOTH",
"221 639 OFFCURVE",
"197 666 OFFCURVE",
"163 666 CURVE SMOOTH",
"129 666 OFFCURVE",
"98 635 OFFCURVE",
"98 596 CURVE SMOOTH"
);
},
{
closed = 1;
nodes = (
"294 563 OFFCURVE",
"317 536 OFFCURVE",
"352 536 CURVE SMOOTH",
"386 536 OFFCURVE",
"418 567 OFFCURVE",
"418 607 CURVE SMOOTH",
"418 639 OFFCURVE",
"394 666 OFFCURVE",
"359 666 CURVE SMOOTH",
"325 666 OFFCURVE",
"294 635 OFFCURVE",
"294 596 CURVE SMOOTH"
);
}
);
width = 380;
}
);
leftKerningGroup = e;
note = edieresis;
unicode = 00EB;
},
{
glyphname = egrave;
layers = (
{
layerId = "F0C8EF09-FA88-4A15-9CCE-7A8BC6200D57";
paths = (
{
closed = 1;
nodes = (
"145 438 OFFCURVE",
"32 311 OFFCURVE",
"32 171 CURVE SMOOTH",
"32 56 OFFCURVE",
"109 -14 OFFCURVE",
"189 -14 CURVE SMOOTH",
"237 -14 OFFCURVE",
"270 -4 OFFCURVE",
"325 25 CURVE",
"316 56 LINE",
"302 54 OFFCURVE",
"289 53 OFFCURVE",
"276 53 CURVE SMOOTH",
"197 53 OFFCURVE",
"141 87 OFFCURVE",
"123 157 CURVE",
"304 207 OFFCURVE",
"355 274 OFFCURVE",
"355 340 CURVE SMOOTH",
"355 412 OFFCURVE",
"302 438 OFFCURVE",
"257 438 CURVE SMOOTH"
);
},
{
closed = 1;
nodes = (
"117 317 OFFCURVE",
"181 381 OFFCURVE",
"222 381 CURVE SMOOTH",
"247 381 OFFCURVE",
"266 358 OFFCURVE",
"266 323 CURVE SMOOTH",
"266 280 OFFCURVE",
"254 244 OFFCURVE",
"118 191 CURVE",
"117 198 OFFCURVE",
"117 205 OFFCURVE",
"117 212 CURVE SMOOTH"
);
},
{
closed = 1;
nodes = (
"330 534 LINE",
"285 568 OFFCURVE",
"255 615 OFFCURVE",
"248 658 CURVE",
"218 662 LINE",
"165 626 LINE",
"184 567 OFFCURVE",
"229 520 OFFCURVE",
"306 499 CURVE"
);
}
);
width = 380;
}
);
leftKerningGroup = e;
note = egrave;
unicode = 00E8;
},
{
glyphname = f;
layers = (
{
layerId = "F0C8EF09-FA88-4A15-9CCE-7A8BC6200D57";
paths = (
{
closed = 1;
nodes = (
"152 -1 OFFCURVE",
"166 62 OFFCURVE",
"180 179 CURVE SMOOTH",
"200 345 LINE",
"271 345 LINE",
"303 363 OFFCURVE",
"325 390 OFFCURVE",
"325 420 CURVE",
"209 420 LINE",
"222 530 OFFCURVE",
"233 569 OFFCURVE",
"243 595 CURVE SMOOTH",
"270 666 OFFCURVE",
"309 700 OFFCURVE",
"361 700 CURVE",
"454 662 LINE",
"477 678 OFFCURVE",
"496 714 OFFCURVE",
"501 740 CURVE",
"479 756 OFFCURVE",
"438 760 OFFCURVE",
"412 760 CURVE SMOOTH",
"317 760 OFFCURVE",
"213 689 OFFCURVE",
"166 588 CURVE SMOOTH",
"151 555 OFFCURVE",
"136 503 OFFCURVE",
"123 418 CURVE",
"55 362 LINE",
"62 345 LINE",
"113 345 LINE",
"87 125 LINE SMOOTH",
"74 15 OFFCURVE",
"60 -52 OFFCURVE",
"48 -86 CURVE",
"-55 -126 LINE",
"-55 -170 OFFCURVE",
"-37 -204 OFFCURVE",
"-12 -215 CURVE",
"76 -187 OFFCURVE",
"115 -123 OFFCURVE",
"139 -43 CURVE SMOOTH"
);
}
);
width = 327;
}
);
note = f;
rightKerningGroup = f;
unicode = 0066;
},
{
glyphname = g;
layers = (
{
layerId = "F0C8EF09-FA88-4A15-9CCE-7A8BC6200D57";
paths = (
{
closed = 1;
nodes = (
"385 440 LINE",
"370 424 OFFCURVE",
"352 417 OFFCURVE",
"339 414 CURVE",
"320 417 OFFCURVE",
"297 431 OFFCURVE",
"258 431 CURVE SMOOTH",
"145 431 OFFCURVE",
"40 259 OFFCURVE",
"40 111 CURVE SMOOTH",
"40 47 OFFCURVE",
"65 -14 OFFCURVE",
"127 -14 CURVE SMOOTH",
"168 -14 OFFCURVE",
"220 5 OFFCURVE",
"272 90 CURVE",
"268 56 OFFCURVE",
"262 22 OFFCURVE",
"253 -16 CURVE SMOOTH",
"234 -95 OFFCURVE",
"196 -155 OFFCURVE",
"132 -155 CURVE",
"46 -109 LINE",
"7 -113 OFFCURVE",
"-21 -155 OFFCURVE",
"-21 -190 CURVE",
"14 -206 OFFCURVE",
"59 -216 OFFCURVE",
"122 -216 CURVE SMOOTH",
"220 -216 OFFCURVE",
"312 -143 OFFCURVE",
"338 -12 CURVE SMOOTH",
"361 108 OFFCURVE",
"339 191 OFFCURVE",
"404 432 CURVE"
);
},
{
closed = 1;
nodes = (
"141 60 OFFCURVE",
"127 89 OFFCURVE",
"127 140 CURVE SMOOTH",
"127 252 OFFCURVE",
"193 379 OFFCURVE",
"256 379 CURVE SMOOTH",
"281 379 OFFCURVE",
"300 359 OFFCURVE",
"310 331 CURVE",
"300 290 OFFCURVE",
"293 254 OFFCURVE",
"288 221 CURVE",
"256 111 OFFCURVE",
"214 60 OFFCURVE",
"175 60 CURVE SMOOTH"
);
}
);
width = 419;
}
);
note = g;
unicode = 0067;
},
{
glyphname = h;
layers = (
{
layerId = "F0C8EF09-FA88-4A15-9CCE-7A8BC6200D57";
paths = (
{
closed = 1;
nodes = (
"121 580 OFFCURVE",
"47 72 OFFCURVE",
"36 0 CURVE",
"122 0 LINE",
"124 16 OFFCURVE",
"131 57 OFFCURVE",
"138 112 CURVE",
"176 267 OFFCURVE",
"251 350 OFFCURVE",
"291 350 CURVE SMOOTH",
"307 350 OFFCURVE",
"320 338 OFFCURVE",
"320 297 CURVE SMOOTH",
"320 233 OFFCURVE",
"287 117 OFFCURVE",
"287 58 CURVE SMOOTH",
"287 18 OFFCURVE",
"303 1 OFFCURVE",
"322 -10 CURVE",
"461 33 LINE",
"454 71 LINE",
"441 68 OFFCURVE",
"411 64 OFFCURVE",
"397 64 CURVE SMOOTH",
"385 64 OFFCURVE",
"378 70 OFFCURVE",
"378 88 CURVE SMOOTH",
"378 129 OFFCURVE",
"411 233 OFFCURVE",
"411 320 CURVE SMOOTH",
"411 396 OFFCURVE",
"376 423 OFFCURVE",
"335 423 CURVE SMOOTH",
"266 423 OFFCURVE",
"211 377 OFFCURVE",
"162 282 CURVE",
"186 457 OFFCURVE",
"211 649 OFFCURVE",
"211 669 CURVE SMOOTH",
"211 728 OFFCURVE",
"189 749 OFFCURVE",
"172 756 CURVE",
"48 713 LINE",
"55 675 LINE",
"68 678 OFFCURVE",
"87 680 OFFCURVE",
"101 680 CURVE SMOOTH",
"113 680 OFFCURVE",
"121 673 OFFCURVE",
"121 653 CURVE SMOOTH"
);
}
);
width = 473;
}
);
note = h;
unicode = 0068;
},
{
glyphname = i;
layers = (
{
layerId = "F0C8EF09-FA88-4A15-9CCE-7A8BC6200D57";
paths = (
{
closed = 1;
nodes = (
"104 273 OFFCURVE",
"67 117 OFFCURVE",
"67 58 CURVE SMOOTH",
"67 18 OFFCURVE",
"83 1 OFFCURVE",
"102 -10 CURVE",
"241 33 LINE",
"234 71 LINE",
"221 68 OFFCURVE",
"191 64 OFFCURVE",
"177 64 CURVE SMOOTH",
"165 64 OFFCURVE",
"158 70 OFFCURVE",
"158 88 CURVE SMOOTH",
"158 129 OFFCURVE",
"194 273 OFFCURVE",
"194 360 CURVE SMOOTH",
"194 409 OFFCURVE",
"173 433 OFFCURVE",
"156 440 CURVE",
"31 397 LINE",
"38 359 LINE",
"51 362 OFFCURVE",
"70 364 OFFCURVE",
"78 364 CURVE SMOOTH",
"96 364 OFFCURVE",
"104 357 OFFCURVE",
"104 337 CURVE SMOOTH"
);
},
{
closed = 1;
nodes = (
"115 600 OFFCURVE",
"139 572 OFFCURVE",
"175 572 CURVE SMOOTH",
"211 572 OFFCURVE",
"244 604 OFFCURVE",
"244 646 CURVE SMOOTH",
"244 680 OFFCURVE",
"219 708 OFFCURVE",
"183 708 CURVE SMOOTH",
"147 708 OFFCURVE",
"115 676 OFFCURVE",
"115 635 CURVE SMOOTH"
);
}
);
width = 259;
}
);
note = i;
unicode = 0069;
},
{
glyphname = dotlessi;
layers = (
{
layerId = "F0C8EF09-FA88-4A15-9CCE-7A8BC6200D57";
paths = (
{
closed = 1;
nodes = (
"104 273 OFFCURVE",
"67 117 OFFCURVE",
"67 58 CURVE SMOOTH",
"67 18 OFFCURVE",
"83 1 OFFCURVE",
"102 -10 CURVE",
"241 33 LINE",
"234 71 LINE",
"221 68 OFFCURVE",
"191 64 OFFCURVE",
"177 64 CURVE SMOOTH",
"165 64 OFFCURVE",
"158 70 OFFCURVE",
"158 88 CURVE SMOOTH",
"158 129 OFFCURVE",
"194 273 OFFCURVE",
"194 360 CURVE SMOOTH",
"194 409 OFFCURVE",
"173 433 OFFCURVE",
"156 440 CURVE",
"31 397 LINE",
"38 359 LINE",
"51 362 OFFCURVE",
"70 364 OFFCURVE",
"78 364 CURVE SMOOTH",
"96 364 OFFCURVE",
"104 357 OFFCURVE",
"104 337 CURVE SMOOTH"
);
}
);
width = 259;
}
);
note = dotlessi;
unicode = 0131;
},
{
glyphname = iacute;
layers = (
{
layerId = "F0C8EF09-FA88-4A15-9CCE-7A8BC6200D57";
paths = (
{
closed = 1;
nodes = (
"104 273 OFFCURVE",
"67 117 OFFCURVE",
"67 58 CURVE SMOOTH",
"67 18 OFFCURVE",
"83 1 OFFCURVE",
"102 -10 CURVE",
"241 33 LINE",
"234 71 LINE",
"221 68 OFFCURVE",
"191 64 OFFCURVE",
"177 64 CURVE SMOOTH",
"165 64 OFFCURVE",
"158 70 OFFCURVE",
"158 88 CURVE SMOOTH",
"158 129 OFFCURVE",
"194 273 OFFCURVE",
"194 360 CURVE SMOOTH",
"194 409 OFFCURVE",
"173 433 OFFCURVE",
"156 440 CURVE",
"31 397 LINE",
"38 359 LINE",
"51 362 OFFCURVE",
"70 364 OFFCURVE",
"78 364 CURVE SMOOTH",
"96 364 OFFCURVE",
"104 357 OFFCURVE",
"104 337 CURVE SMOOTH"
);
},
{
closed = 1;
nodes = (
"124 499 LINE",
"201 520 OFFCURVE",
"246 567 OFFCURVE",
"265 626 CURVE",
"212 662 LINE",
"182 658 LINE",
"175 615 OFFCURVE",
"145 568 OFFCURVE",
"100 534 CURVE"
);
}
);
width = 259;
}
);
note = iacute;
unicode = 00ED;
},
{
glyphname = icircumflex;
layers = (
{
layerId = "F0C8EF09-FA88-4A15-9CCE-7A8BC6200D57";
paths = (
{
closed = 1;
nodes = (
"104 273 OFFCURVE",
"67 117 OFFCURVE",
"67 58 CURVE SMOOTH",
"67 18 OFFCURVE",
"83 1 OFFCURVE",
"102 -10 CURVE",
"241 33 LINE",
"234 71 LINE",
"221 68 OFFCURVE",
"191 64 OFFCURVE",
"177 64 CURVE SMOOTH",
"165 64 OFFCURVE",
"158 70 OFFCURVE",
"158 88 CURVE SMOOTH",
"158 129 OFFCURVE",
"194 273 OFFCURVE",
"194 360 CURVE SMOOTH",
"194 409 OFFCURVE",
"173 433 OFFCURVE",
"156 440 CURVE",
"31 397 LINE",
"38 359 LINE",
"51 362 OFFCURVE",
"70 364 OFFCURVE",
"78 364 CURVE SMOOTH",
"96 364 OFFCURVE",
"104 357 OFFCURVE",
"104 337 CURVE SMOOTH"
);
},
{
closed = 1;
nodes = (
"162 636 LINE",
"65 537 LINE",
"85 514 LINE",
"172 554 LINE",
"255 515 LINE",
"285 537 LINE",
"209 636 LINE"
);
}
);
width = 259;
}
);
note = icircumflex;
unicode = 00EE;
},
{
glyphname = idieresis;
layers = (
{
layerId = "F0C8EF09-FA88-4A15-9CCE-7A8BC6200D57";
paths = (
{
closed = 1;
nodes = (
"104 273 OFFCURVE",
"67 117 OFFCURVE",
"67 58 CURVE SMOOTH",
"67 18 OFFCURVE",
"83 1 OFFCURVE",
"102 -10 CURVE",
"241 33 LINE",
"234 71 LINE",
"221 68 OFFCURVE",
"191 64 OFFCURVE",
"177 64 CURVE SMOOTH",
"165 64 OFFCURVE",
"158 70 OFFCURVE",
"158 88 CURVE SMOOTH",
"158 129 OFFCURVE",
"194 273 OFFCURVE",
"194 360 CURVE SMOOTH",
"194 409 OFFCURVE",
"173 433 OFFCURVE",
"156 440 CURVE",
"31 397 LINE",
"38 359 LINE",
"51 362 OFFCURVE",
"70 364 OFFCURVE",
"78 364 CURVE SMOOTH",
"96 364 OFFCURVE",
"104 357 OFFCURVE",
"104 337 CURVE SMOOTH"
);
},
{
closed = 1;
nodes = (
"21 563 OFFCURVE",
"44 536 OFFCURVE",
"78 536 CURVE SMOOTH",
"113 536 OFFCURVE",
"144 567 OFFCURVE",
"144 607 CURVE SMOOTH",
"144 639 OFFCURVE",
"120 666 OFFCURVE",
"86 666 CURVE SMOOTH",
"52 666 OFFCURVE",
"21 635 OFFCURVE",
"21 596 CURVE SMOOTH"
);
},
{
closed = 1;
nodes = (
"217 563 OFFCURVE",
"240 536 OFFCURVE",
"275 536 CURVE SMOOTH",
"309 536 OFFCURVE",
"341 567 OFFCURVE",
"341 607 CURVE SMOOTH",
"341 639 OFFCURVE",
"317 666 OFFCURVE",
"282 666 CURVE SMOOTH",
"248 666 OFFCURVE",
"217 635 OFFCURVE",
"217 596 CURVE SMOOTH"
);
}
);
width = 259;
}
);
note = idieresis;
unicode = 00EF;
},
{
glyphname = igrave;
layers = (
{
layerId = "F0C8EF09-FA88-4A15-9CCE-7A8BC6200D57";
paths = (
{
closed = 1;
nodes = (
"104 273 OFFCURVE",
"67 117 OFFCURVE",
"67 58 CURVE SMOOTH",
"67 18 OFFCURVE",
"83 1 OFFCURVE",
"102 -10 CURVE",
"241 33 LINE",
"234 71 LINE",
"221 68 OFFCURVE",
"191 64 OFFCURVE",
"177 64 CURVE SMOOTH",
"165 64 OFFCURVE",
"158 70 OFFCURVE",
"158 88 CURVE SMOOTH",
"158 129 OFFCURVE",
"194 273 OFFCURVE",
"194 360 CURVE SMOOTH",
"194 409 OFFCURVE",
"173 433 OFFCURVE",
"156 440 CURVE",
"31 397 LINE",
"38 359 LINE",
"51 362 OFFCURVE",
"70 364 OFFCURVE",
"78 364 CURVE SMOOTH",
"96 364 OFFCURVE",
"104 357 OFFCURVE",
"104 337 CURVE SMOOTH"
);
},
{
closed = 1;
nodes = (
"253 534 LINE",
"208 568 OFFCURVE",
"178 615 OFFCURVE",
"171 658 CURVE",
"141 662 LINE",
"88 626 LINE",
"107 567 OFFCURVE",
"152 520 OFFCURVE",
"229 499 CURVE"
);
}
);
width = 259;
}
);
note = igrave;
unicode = 00EC;
},
{
glyphname = j;
layers = (
{
layerId = "F0C8EF09-FA88-4A15-9CCE-7A8BC6200D57";
paths = (
{
closed = 1;
nodes = (
"164 88 OFFCURVE",
"193 318 OFFCURVE",
"193 353 CURVE SMOOTH",
"193 412 OFFCURVE",
"171 433 OFFCURVE",
"154 440 CURVE",
"33 397 LINE",
"40 359 LINE",
"53 362 OFFCURVE",
"72 364 OFFCURVE",
"86 364 CURVE SMOOTH",
"98 364 OFFCURVE",
"106 357 OFFCURVE",
"106 337 CURVE SMOOTH",
"106 264 OFFCURVE",
"77 55 OFFCURVE",
"63 -16 CURVE SMOOTH",
"47 -96 OFFCURVE",
"30 -148 OFFCURVE",
"-10 -148 CURVE",
"-84 -119 LINE",
"-108 -127 OFFCURVE",
"-141 -165 OFFCURVE",
"-141 -200 CURVE",
"-106 -216 OFFCURVE",
"-70 -216 OFFCURVE",
"-38 -216 CURVE SMOOTH",
"39 -216 OFFCURVE",
"127 -116 OFFCURVE",
"151 15 CURVE SMOOTH"
);
},
{
closed = 1;
nodes = (
"120 600 OFFCURVE",
"144 572 OFFCURVE",
"180 572 CURVE SMOOTH",
"216 572 OFFCURVE",
"249 604 OFFCURVE",
"249 646 CURVE SMOOTH",
"249 680 OFFCURVE",
"224 708 OFFCURVE",
"188 708 CURVE SMOOTH",
"152 708 OFFCURVE",
"120 676 OFFCURVE",
"120 635 CURVE SMOOTH"
);
}
);
width = 253;
}
);
note = j;
unicode = 006A;
},
{
glyphname = uni0237;
layers = (
{
layerId = "F0C8EF09-FA88-4A15-9CCE-7A8BC6200D57";
paths = (
{
closed = 1;
nodes = (
"164 88 OFFCURVE",
"193 318 OFFCURVE",
"193 353 CURVE SMOOTH",
"193 412 OFFCURVE",
"171 433 OFFCURVE",
"154 440 CURVE",
"33 397 LINE",
"40 359 LINE",
"53 362 OFFCURVE",
"72 364 OFFCURVE",
"86 364 CURVE SMOOTH",
"98 364 OFFCURVE",
"106 357 OFFCURVE",
"106 337 CURVE SMOOTH",
"106 264 OFFCURVE",
"77 55 OFFCURVE",
"63 -16 CURVE SMOOTH",
"47 -96 OFFCURVE",
"30 -148 OFFCURVE",
"-10 -148 CURVE",
"-84 -119 LINE",
"-108 -127 OFFCURVE",
"-141 -165 OFFCURVE",
"-141 -200 CURVE",
"-106 -216 OFFCURVE",
"-70 -216 OFFCURVE",
"-38 -216 CURVE SMOOTH",
"39 -216 OFFCURVE",
"127 -116 OFFCURVE",
"151 15 CURVE SMOOTH"
);
}
);
width = 253;
}
);
note = uni0237;
unicode = 0237;
},
{
glyphname = k;
layers = (
{
layerId = "F0C8EF09-FA88-4A15-9CCE-7A8BC6200D57";
paths = (
{
closed = 1;
nodes = (
"121 580 OFFCURVE",
"47 72 OFFCURVE",
"36 0 CURVE",
"122 0 LINE",
"125 20 OFFCURVE",
"134 79 OFFCURVE",
"144 154 CURVE",
"179 164 LINE",
"208 106 OFFCURVE",
"261 12 OFFCURVE",
"322 -10 CURVE",
"461 33 LINE",
"454 71 LINE",
"435 65 OFFCURVE",
"417 63 OFFCURVE",
"403 63 CURVE SMOOTH",
"370 63 OFFCURVE",
"310 95 OFFCURVE",
"262 196 CURVE",
"345 236 OFFCURVE",
"389 288 OFFCURVE",
"389 354 CURVE SMOOTH",
"389 407 OFFCURVE",
"357 432 OFFCURVE",
"302 432 CURVE SMOOTH",
"260 432 OFFCURVE",
"215 414 OFFCURVE",
"175 382 CURVE",
"194 522 OFFCURVE",
"211 653 OFFCURVE",
"211 669 CURVE SMOOTH",
"211 728 OFFCURVE",
"189 749 OFFCURVE",
"172 756 CURVE",
"38 711 LINE",
"45 673 LINE",
"58 676 OFFCURVE",
"87 680 OFFCURVE",
"101 680 CURVE SMOOTH",
"113 680 OFFCURVE",
"121 673 OFFCURVE",
"121 653 CURVE SMOOTH"
);
},
{
closed = 1;
nodes = (
"216 364 OFFCURVE",
"250 371 OFFCURVE",
"269 371 CURVE SMOOTH",
"298 371 OFFCURVE",
"305 357 OFFCURVE",
"305 342 CURVE SMOOTH",
"305 302 OFFCURVE",
"274 256 OFFCURVE",
"151 200 CURVE",
"157 246 OFFCURVE",
"164 294 OFFCURVE",
"170 343 CURVE"
);
}
);
width = 461;
}
);
note = k;
unicode = 006B;
},
{
glyphname = l;
layers = (
{
layerId = "F0C8EF09-FA88-4A15-9CCE-7A8BC6200D57";
paths = (
{
closed = 1;
nodes = (
"136 560 OFFCURVE",
"61 164 OFFCURVE",
"61 58 CURVE SMOOTH",
"61 18 OFFCURVE",
"77 1 OFFCURVE",
"96 -10 CURVE",
"245 33 LINE",
"238 71 LINE",
"225 68 OFFCURVE",
"185 64 OFFCURVE",
"171 64 CURVE SMOOTH",
"159 64 OFFCURVE",
"152 70 OFFCURVE",
"152 88 CURVE SMOOTH",
"152 173 OFFCURVE",
"226 557 OFFCURVE",
"226 676 CURVE SMOOTH",
"226 725 OFFCURVE",
"205 749 OFFCURVE",
"188 756 CURVE",
"53 711 LINE",
"60 673 LINE",
"73 676 OFFCURVE",
"102 680 OFFCURVE",
"110 680 CURVE SMOOTH",
"128 680 OFFCURVE",
"136 673 OFFCURVE",
"136 640 CURVE SMOOTH"
);
}
);
width = 259;
}
);
note = l;
unicode = 006C;
},
{
glyphname = m;
layers = (
{
layerId = "F0C8EF09-FA88-4A15-9CCE-7A8BC6200D57";
paths = (
{
closed = 1;
nodes = (
"86 264 OFFCURVE",
"63 72 OFFCURVE",
"52 0 CURVE",
"138 0 LINE",
"151 106 LINE",
"190 270 OFFCURVE",
"256 357 OFFCURVE",
"297 357 CURVE SMOOTH",
"313 357 OFFCURVE",
"326 345 OFFCURVE",
"326 304 CURVE SMOOTH",
"326 240 OFFCURVE",
"303 72 OFFCURVE",
"288 0 CURVE",
"378 0 LINE",
"381 22 OFFCURVE",
"387 54 OFFCURVE",
"392 91 CURVE",
"428 260 OFFCURVE",
"497 350 OFFCURVE",
"539 350 CURVE SMOOTH",
"555 350 OFFCURVE",
"568 338 OFFCURVE",
"568 297 CURVE SMOOTH",
"568 233 OFFCURVE",
"535 117 OFFCURVE",
"535 58 CURVE SMOOTH",
"535 18 OFFCURVE",
"551 1 OFFCURVE",
"570 -10 CURVE",
"709 33 LINE",
"702 71 LINE",
"689 68 OFFCURVE",
"659 64 OFFCURVE",
"645 64 CURVE SMOOTH",
"633 64 OFFCURVE",
"626 70 OFFCURVE",
"626 88 CURVE SMOOTH",
"626 129 OFFCURVE",
"659 233 OFFCURVE",
"659 320 CURVE SMOOTH",
"659 396 OFFCURVE",
"624 423 OFFCURVE",
"583 423 CURVE SMOOTH",
"512 423 OFFCURVE",
"461 374 OFFCURVE",
"414 273 CURVE",
"416 295 OFFCURVE",
"417 314 OFFCURVE",
"417 328 CURVE SMOOTH",
"417 404 OFFCURVE",
"382 430 OFFCURVE",
"341 430 CURVE SMOOTH",
"269 430 OFFCURVE",
"216 375 OFFCURVE",
"167 268 CURVE",
"170 309 OFFCURVE",
"173 342 OFFCURVE",
"173 353 CURVE SMOOTH",
"173 412 OFFCURVE",
"151 433 OFFCURVE",
"134 440 CURVE",
"13 397 LINE",
"20 359 LINE",
"33 362 OFFCURVE",
"52 364 OFFCURVE",
"66 364 CURVE SMOOTH",
"78 364 OFFCURVE",
"86 357 OFFCURVE",
"86 337 CURVE SMOOTH"
);
}
);
width = 721;
}
);
note = m;
unicode = 006D;
},
{
glyphname = n;
layers = (
{
layerId = "F0C8EF09-FA88-4A15-9CCE-7A8BC6200D57";
paths = (
{
closed = 1;
nodes = (
"86 264 OFFCURVE",
"63 72 OFFCURVE",
"52 0 CURVE",
"138 0 LINE",
"141 19 OFFCURVE",
"145 52 OFFCURVE",
"149 89 CURVE",
"185 259 OFFCURVE",
"265 350 OFFCURVE",
"307 350 CURVE SMOOTH",
"323 350 OFFCURVE",
"336 338 OFFCURVE",
"336 297 CURVE SMOOTH",
"336 233 OFFCURVE",
"303 117 OFFCURVE",
"303 58 CURVE SMOOTH",
"303 18 OFFCURVE",
"319 1 OFFCURVE",
"338 -10 CURVE",
"477 33 LINE",
"470 71 LINE",
"457 68 OFFCURVE",
"427 64 OFFCURVE",
"413 64 CURVE SMOOTH",
"401 64 OFFCURVE",
"394 70 OFFCURVE",
"394 88 CURVE SMOOTH",
"394 129 OFFCURVE",
"427 233 OFFCURVE",
"427 320 CURVE SMOOTH",
"427 396 OFFCURVE",
"392 423 OFFCURVE",
"351 423 CURVE SMOOTH",
"277 423 OFFCURVE",
"218 370 OFFCURVE",
"166 259 CURVE",
"170 304 OFFCURVE",
"173 341 OFFCURVE",
"173 353 CURVE SMOOTH",
"173 412 OFFCURVE",
"151 433 OFFCURVE",
"134 440 CURVE",
"13 397 LINE",
"20 359 LINE",
"33 362 OFFCURVE",
"52 364 OFFCURVE",
"66 364 CURVE SMOOTH",
"78 364 OFFCURVE",
"86 357 OFFCURVE",
"86 337 CURVE SMOOTH"
);
}
);
width = 489;
}
);
note = n;
unicode = 006E;
},
{
glyphname = ntilde;
layers = (
{
layerId = "F0C8EF09-FA88-4A15-9CCE-7A8BC6200D57";
paths = (
{
closed = 1;
nodes = (
"86 264 OFFCURVE",
"63 72 OFFCURVE",
"52 0 CURVE",
"138 0 LINE",
"141 19 OFFCURVE",
"145 52 OFFCURVE",
"149 89 CURVE",
"185 259 OFFCURVE",
"265 350 OFFCURVE",
"307 350 CURVE SMOOTH",
"323 350 OFFCURVE",
"336 338 OFFCURVE",
"336 297 CURVE SMOOTH",
"336 233 OFFCURVE",
"303 117 OFFCURVE",
"303 58 CURVE SMOOTH",
"303 18 OFFCURVE",
"319 1 OFFCURVE",
"338 -10 CURVE",
"477 33 LINE",
"470 71 LINE",
"457 68 OFFCURVE",
"427 64 OFFCURVE",
"413 64 CURVE SMOOTH",
"401 64 OFFCURVE",
"394 70 OFFCURVE",
"394 88 CURVE SMOOTH",
"394 129 OFFCURVE",
"427 233 OFFCURVE",
"427 320 CURVE SMOOTH",
"427 396 OFFCURVE",
"392 423 OFFCURVE",
"351 423 CURVE SMOOTH",
"277 423 OFFCURVE",
"218 370 OFFCURVE",
"166 259 CURVE",
"170 304 OFFCURVE",
"173 341 OFFCURVE",
"173 353 CURVE SMOOTH",
"173 412 OFFCURVE",
"151 433 OFFCURVE",
"134 440 CURVE",
"13 397 LINE",
"20 359 LINE",
"33 362 OFFCURVE",
"52 364 OFFCURVE",
"66 364 CURVE SMOOTH",
"78 364 OFFCURVE",
"86 357 OFFCURVE",
"86 337 CURVE SMOOTH"
);
},
{
closed = 1;
nodes = (
"152 544 LINE",
"170 557 OFFCURVE",
"196 574 OFFCURVE",
"221 574 CURVE SMOOTH",
"270 574 OFFCURVE",
"285 531 OFFCURVE",
"349 531 CURVE SMOOTH",
"393 531 OFFCURVE",
"424 562 OFFCURVE",
"453 600 CURVE",
"438 621 LINE",
"416 606 OFFCURVE",
"393 595 OFFCURVE",
"361 595 CURVE SMOOTH",
"313 595 OFFCURVE",
"299 637 OFFCURVE",
"243 637 CURVE SMOOTH",
"198 637 OFFCURVE",
"150 589 OFFCURVE",
"133 565 CURVE"
);
}
);
width = 489;
}
);
note = ntilde;
unicode = 00F1;
},
{
glyphname = o;
layers = (
{
layerId = "F0C8EF09-FA88-4A15-9CCE-7A8BC6200D57";
paths = (
{
closed = 1;
nodes = (
"34 71 OFFCURVE",
"90 -19 OFFCURVE",
"194 -19 CURVE SMOOTH",
"327 -19 OFFCURVE",
"415 115 OFFCURVE",
"415 255 CURVE SMOOTH",
"415 382 OFFCURVE",
"324 437 OFFCURVE",
"254 437 CURVE SMOOTH",
"130 437 OFFCURVE",
"34 311 OFFCURVE",
"34 176 CURVE SMOOTH"
);
},
{
closed = 1;
nodes = (
"298 386 OFFCURVE",
"319 322 OFFCURVE",
"319 245 CURVE SMOOTH",
"319 144 OFFCURVE",
"288 33 OFFCURVE",
"210 33 CURVE SMOOTH",
"152 33 OFFCURVE",
"129 96 OFFCURVE",
"129 189 CURVE SMOOTH",
"129 278 OFFCURVE",
"161 386 OFFCURVE",
"238 386 CURVE SMOOTH"
);
}
);
width = 450;
}
);
leftKerningGroup = o;
note = o;
unicode = 006F;
},
{
glyphname = oacute;
layers = (
{
layerId = "F0C8EF09-FA88-4A15-9CCE-7A8BC6200D57";
paths = (
{
closed = 1;
nodes = (
"34 71 OFFCURVE",
"90 -19 OFFCURVE",
"194 -19 CURVE SMOOTH",
"327 -19 OFFCURVE",
"415 115 OFFCURVE",
"415 255 CURVE SMOOTH",
"415 382 OFFCURVE",
"324 437 OFFCURVE",
"254 437 CURVE SMOOTH",
"130 437 OFFCURVE",
"34 311 OFFCURVE",
"34 176 CURVE SMOOTH"
);
},
{
closed = 1;
nodes = (
"298 386 OFFCURVE",
"319 322 OFFCURVE",
"319 245 CURVE SMOOTH",
"319 144 OFFCURVE",
"288 33 OFFCURVE",
"210 33 CURVE SMOOTH",
"152 33 OFFCURVE",
"129 96 OFFCURVE",
"129 189 CURVE SMOOTH",
"129 278 OFFCURVE",
"161 386 OFFCURVE",
"238 386 CURVE SMOOTH"
);
},
{
closed = 1;
nodes = (
"223 499 LINE",
"300 520 OFFCURVE",
"345 567 OFFCURVE",
"364 626 CURVE",
"311 662 LINE",
"281 658 LINE",
"274 615 OFFCURVE",
"244 568 OFFCURVE",
"199 534 CURVE"
);
}
);
width = 450;
}
);
leftKerningGroup = o;
note = oacute;
unicode = 00F3;
},
{
glyphname = ocircumflex;
layers = (
{
layerId = "F0C8EF09-FA88-4A15-9CCE-7A8BC6200D57";
paths = (
{
closed = 1;
nodes = (
"34 71 OFFCURVE",
"90 -19 OFFCURVE",
"194 -19 CURVE SMOOTH",
"327 -19 OFFCURVE",
"415 115 OFFCURVE",
"415 255 CURVE SMOOTH",
"415 382 OFFCURVE",
"324 437 OFFCURVE",
"254 437 CURVE SMOOTH",
"130 437 OFFCURVE",
"34 311 OFFCURVE",
"34 176 CURVE SMOOTH"
);
},
{
closed = 1;
nodes = (
"298 386 OFFCURVE",
"319 322 OFFCURVE",
"319 245 CURVE SMOOTH",
"319 144 OFFCURVE",
"288 33 OFFCURVE",
"210 33 CURVE SMOOTH",
"152 33 OFFCURVE",
"129 96 OFFCURVE",
"129 189 CURVE SMOOTH",
"129 278 OFFCURVE",
"161 386 OFFCURVE",
"238 386 CURVE SMOOTH"
);
},
{
closed = 1;
nodes = (
"261 636 LINE",
"164 537 LINE",
"184 514 LINE",
"271 554 LINE",
"354 515 LINE",
"384 537 LINE",
"308 636 LINE"
);
}
);
width = 450;
}
);
leftKerningGroup = o;
note = ocircumflex;
unicode = 00F4;
},
{
glyphname = odieresis;
layers = (
{
layerId = "F0C8EF09-FA88-4A15-9CCE-7A8BC6200D57";
paths = (
{
closed = 1;
nodes = (
"34 71 OFFCURVE",
"90 -19 OFFCURVE",
"194 -19 CURVE SMOOTH",
"327 -19 OFFCURVE",
"415 115 OFFCURVE",
"415 255 CURVE SMOOTH",
"415 382 OFFCURVE",
"324 437 OFFCURVE",
"254 437 CURVE SMOOTH",
"130 437 OFFCURVE",
"34 311 OFFCURVE",
"34 176 CURVE SMOOTH"
);
},
{
closed = 1;
nodes = (
"298 386 OFFCURVE",
"319 322 OFFCURVE",
"319 245 CURVE SMOOTH",
"319 144 OFFCURVE",
"288 33 OFFCURVE",
"210 33 CURVE SMOOTH",
"152 33 OFFCURVE",
"129 96 OFFCURVE",
"129 189 CURVE SMOOTH",
"129 278 OFFCURVE",
"161 386 OFFCURVE",
"238 386 CURVE SMOOTH"
);
},
{
closed = 1;
nodes = (
"120 563 OFFCURVE",
"143 536 OFFCURVE",
"177 536 CURVE SMOOTH",
"212 536 OFFCURVE",
"243 567 OFFCURVE",
"243 607 CURVE SMOOTH",
"243 639 OFFCURVE",
"219 666 OFFCURVE",
"185 666 CURVE SMOOTH",
"151 666 OFFCURVE",
"120 635 OFFCURVE",
"120 596 CURVE SMOOTH"
);
},
{
closed = 1;
nodes = (
"316 563 OFFCURVE",
"339 536 OFFCURVE",
"374 536 CURVE SMOOTH",
"408 536 OFFCURVE",
"440 567 OFFCURVE",
"440 607 CURVE SMOOTH",
"440 639 OFFCURVE",
"416 666 OFFCURVE",
"381 666 CURVE SMOOTH",
"347 666 OFFCURVE",
"316 635 OFFCURVE",
"316 596 CURVE SMOOTH"
);
}
);
width = 450;
}
);
leftKerningGroup = o;
note = odieresis;
unicode = 00F6;
},
{
glyphname = ograve;
layers = (
{
layerId = "F0C8EF09-FA88-4A15-9CCE-7A8BC6200D57";
paths = (
{
closed = 1;
nodes = (
"34 71 OFFCURVE",
"90 -19 OFFCURVE",
"194 -19 CURVE SMOOTH",
"327 -19 OFFCURVE",
"415 115 OFFCURVE",
"415 255 CURVE SMOOTH",
"415 382 OFFCURVE",
"324 437 OFFCURVE",
"254 437 CURVE SMOOTH",
"130 437 OFFCURVE",
"34 311 OFFCURVE",
"34 176 CURVE SMOOTH"
);
},
{
closed = 1;
nodes = (
"298 386 OFFCURVE",
"319 322 OFFCURVE",
"319 245 CURVE SMOOTH",
"319 144 OFFCURVE",
"288 33 OFFCURVE",
"210 33 CURVE SMOOTH",
"152 33 OFFCURVE",
"129 96 OFFCURVE",
"129 189 CURVE SMOOTH",
"129 278 OFFCURVE",
"161 386 OFFCURVE",
"238 386 CURVE SMOOTH"
);
},
{
closed = 1;
nodes = (
"352 534 LINE",
"307 568 OFFCURVE",
"277 615 OFFCURVE",
"270 658 CURVE",
"240 662 LINE",
"187 626 LINE",
"206 567 OFFCURVE",
"251 520 OFFCURVE",
"328 499 CURVE"
);
}
);
width = 450;
}
);
leftKerningGroup = o;
note = ograve;
unicode = 00F2;
},
{
glyphname = otilde;
layers = (
{
layerId = "F0C8EF09-FA88-4A15-9CCE-7A8BC6200D57";
paths = (
{
closed = 1;
nodes = (
"34 71 OFFCURVE",
"90 -19 OFFCURVE",
"194 -19 CURVE SMOOTH",
"327 -19 OFFCURVE",
"415 115 OFFCURVE",
"415 255 CURVE SMOOTH",
"415 382 OFFCURVE",
"324 437 OFFCURVE",
"254 437 CURVE SMOOTH",
"130 437 OFFCURVE",
"34 311 OFFCURVE",
"34 176 CURVE SMOOTH"
);
},
{
closed = 1;
nodes = (
"298 386 OFFCURVE",
"319 322 OFFCURVE",
"319 245 CURVE SMOOTH",
"319 144 OFFCURVE",
"288 33 OFFCURVE",
"210 33 CURVE SMOOTH",
"152 33 OFFCURVE",
"129 96 OFFCURVE",
"129 189 CURVE SMOOTH",
"129 278 OFFCURVE",
"161 386 OFFCURVE",
"238 386 CURVE SMOOTH"
);
},
{
closed = 1;
nodes = (
"138 544 LINE",
"156 557 OFFCURVE",
"182 574 OFFCURVE",
"207 574 CURVE SMOOTH",
"256 574 OFFCURVE",
"271 531 OFFCURVE",
"335 531 CURVE SMOOTH",
"379 531 OFFCURVE",
"410 562 OFFCURVE",
"439 600 CURVE",
"424 621 LINE",
"402 606 OFFCURVE",
"379 595 OFFCURVE",
"347 595 CURVE SMOOTH",
"299 595 OFFCURVE",
"285 637 OFFCURVE",
"229 637 CURVE SMOOTH",
"184 637 OFFCURVE",
"136 589 OFFCURVE",
"119 565 CURVE"
);
}
);
width = 450;
}
);
leftKerningGroup = o;
note = otilde;
unicode = 00F5;
},
{
glyphname = p;
layers = (
{
layerId = "F0C8EF09-FA88-4A15-9CCE-7A8BC6200D57";
paths = (
{
closed = 1;
nodes = (
"-24 -220 LINE",
"44 -202 OFFCURVE",
"128 -191 OFFCURVE",
"210 -187 CURVE",
"213 -147 LINE",
"171 -149 OFFCURVE",
"137 -142 OFFCURVE",
"117 -124 CURVE",
"124 -86 OFFCURVE",
"131 -43 OFFCURVE",
"137 2 CURVE",
"164 -11 OFFCURVE",
"191 -18 OFFCURVE",
"219 -18 CURVE SMOOTH",
"309 -18 OFFCURVE",
"429 45 OFFCURVE",
"429 250 CURVE SMOOTH",
"429 369 OFFCURVE",
"386 436 OFFCURVE",
"318 436 CURVE SMOOTH",
"270 436 OFFCURVE",
"215 405 OFFCURVE",
"173 327 CURVE",
"174 339 OFFCURVE",
"175 348 OFFCURVE",
"175 353 CURVE SMOOTH",
"175 412 OFFCURVE",
"153 433 OFFCURVE",
"136 440 CURVE",
"15 397 LINE",
"22 359 LINE",
"35 362 OFFCURVE",
"54 364 OFFCURVE",
"68 364 CURVE SMOOTH",
"80 364 OFFCURVE",
"88 357 OFFCURVE",
"88 337 CURVE SMOOTH",
"88 268 OFFCURVE",
"55 22 OFFCURVE",
"28 -140 CURVE",
"14 -160 OFFCURVE",
"-4 -177 OFFCURVE",
"-29 -191 CURVE"
);
},
{
closed = 1;
nodes = (
"204 321 OFFCURVE",
"240 353 OFFCURVE",
"277 353 CURVE SMOOTH",
"310 353 OFFCURVE",
"343 318 OFFCURVE",
"343 235 CURVE SMOOTH",
"343 125 OFFCURVE",
"308 36 OFFCURVE",
"237 36 CURVE SMOOTH",
"205 36 OFFCURVE",
"172 49 OFFCURVE",
"147 83 CURVE",
"154 136 OFFCURVE",
"160 187 OFFCURVE",
"164 230 CURVE"
);
}
);
width = 464;
}
);
note = p;
unicode = 0070;
},
{
glyphname = q;
layers = (
{
layerId = "F0C8EF09-FA88-4A15-9CCE-7A8BC6200D57";
paths = (
{
closed = 1;
nodes = (
"136 -217 LINE",
"171 -214 OFFCURVE",
"229 -210 OFFCURVE",
"267 -210 CURVE SMOOTH",
"309 -210 OFFCURVE",
"345 -213 OFFCURVE",
"384 -217 CURVE",
"391 -184 LINE",
"369 -177 OFFCURVE",
"350 -168 OFFCURVE",
"334 -155 CURVE",
"342 -28 OFFCURVE",
"367 221 OFFCURVE",
"404 432 CURVE",
"385 440 LINE",
"370 424 OFFCURVE",
"352 417 OFFCURVE",
"339 414 CURVE",
"320 417 OFFCURVE",
"297 431 OFFCURVE",
"258 431 CURVE SMOOTH",
"145 431 OFFCURVE",
"40 259 OFFCURVE",
"40 111 CURVE SMOOTH",
"40 47 OFFCURVE",
"65 -14 OFFCURVE",
"127 -14 CURVE SMOOTH",
"167 -14 OFFCURVE",
"218 5 OFFCURVE",
"270 87 CURVE",
"260 0 OFFCURVE",
"251 -87 OFFCURVE",
"242 -148 CURVE",
"214 -166 OFFCURVE",
"170 -180 OFFCURVE",
"139 -186 CURVE"
);
},
{
closed = 1;
nodes = (
"141 60 OFFCURVE",
"127 89 OFFCURVE",
"127 140 CURVE SMOOTH",
"127 252 OFFCURVE",
"193 379 OFFCURVE",
"256 379 CURVE SMOOTH",
"281 379 OFFCURVE",
"300 359 OFFCURVE",
"310 331 CURVE",
"302 299 OFFCURVE",
"295 263 OFFCURVE",
"289 224 CURVE",
"257 111 OFFCURVE",
"215 60 OFFCURVE",
"175 60 CURVE SMOOTH"
);
}
);
width = 435;
}
);
note = q;
unicode = 0071;
},
{
glyphname = r;
layers = (
{
layerId = "F0C8EF09-FA88-4A15-9CCE-7A8BC6200D57";
paths = (
{
closed = 1;
nodes = (
"260 432 OFFCURVE",
"216 392 OFFCURVE",
"180 318 CURVE",
"181 334 OFFCURVE",
"182 347 OFFCURVE",
"182 353 CURVE SMOOTH",
"182 412 OFFCURVE",
"160 433 OFFCURVE",
"143 440 CURVE",
"22 397 LINE",
"29 359 LINE",
"42 362 OFFCURVE",
"61 364 OFFCURVE",
"70 364 CURVE SMOOTH",
"87 364 OFFCURVE",
"95 359 OFFCURVE",
"95 339 CURVE SMOOTH",
"95 266 OFFCURVE",
"72 72 OFFCURVE",
"61 0 CURVE",
"147 0 LINE",
"153 35 OFFCURVE",
"161 110 OFFCURVE",
"168 182 CURVE",
"199 309 OFFCURVE",
"236 348 OFFCURVE",
"258 348 CURVE SMOOTH",
"276 348 OFFCURVE",
"288 334 OFFCURVE",
"298 269 CURVE",
"334 274 LINE",
"363 384 LINE",
"347 416 OFFCURVE",
"323 432 OFFCURVE",
"297 432 CURVE SMOOTH"
);
}
);
width = 375;
}
);
note = r;
rightKerningGroup = r;
unicode = 0072;
},
{
glyphname = s;
layers = (
{
layerId = "F0C8EF09-FA88-4A15-9CCE-7A8BC6200D57";
paths = (
{
closed = 1;
nodes = (
"50 -3 OFFCURVE",
"84 -19 OFFCURVE",
"147 -19 CURVE SMOOTH",
"248 -19 OFFCURVE",
"322 40 OFFCURVE",
"322 121 CURVE SMOOTH",
"322 253 OFFCURVE",
"145 248 OFFCURVE",
"145 336 CURVE SMOOTH",
"145 368 OFFCURVE",
"164 393 OFFCURVE",
"204 393 CURVE SMOOTH",
"218 393 OFFCURVE",
"232 389 OFFCURVE",
"244 382 CURVE",
"299 314 LINE",
"328 322 OFFCURVE",
"344 357 OFFCURVE",
"344 402 CURVE",
"301 428 OFFCURVE",
"262 436 OFFCURVE",
"219 436 CURVE SMOOTH",
"150 436 OFFCURVE",
"64 388 OFFCURVE",
"64 297 CURVE SMOOTH",
"64 174 OFFCURVE",
"235 182 OFFCURVE",
"235 86 CURVE SMOOTH",
"235 49 OFFCURVE",
"212 29 OFFCURVE",
"170 29 CURVE SMOOTH",
"149 29 OFFCURVE",
"132 32 OFFCURVE",
"118 41 CURVE",
"76 105 LINE",
"51 99 OFFCURVE",
"18 72 OFFCURVE",
"15 31 CURVE"
);
}
);
width = 363;
}
);
note = s;
unicode = 0073;
},
{
glyphname = scaron;
layers = (
{
layerId = "F0C8EF09-FA88-4A15-9CCE-7A8BC6200D57";
paths = (
{
closed = 1;
nodes = (
"50 -3 OFFCURVE",
"84 -19 OFFCURVE",
"147 -19 CURVE SMOOTH",
"248 -19 OFFCURVE",
"322 40 OFFCURVE",
"322 121 CURVE SMOOTH",
"322 253 OFFCURVE",
"145 248 OFFCURVE",
"145 336 CURVE SMOOTH",
"145 368 OFFCURVE",
"164 393 OFFCURVE",
"204 393 CURVE SMOOTH",
"218 393 OFFCURVE",
"232 389 OFFCURVE",
"244 382 CURVE",
"299 314 LINE",
"328 322 OFFCURVE",
"344 357 OFFCURVE",
"344 402 CURVE",
"301 428 OFFCURVE",
"262 436 OFFCURVE",
"219 436 CURVE SMOOTH",
"150 436 OFFCURVE",
"64 388 OFFCURVE",
"64 297 CURVE SMOOTH",
"64 174 OFFCURVE",
"235 182 OFFCURVE",
"235 86 CURVE SMOOTH",
"235 49 OFFCURVE",
"212 29 OFFCURVE",
"170 29 CURVE SMOOTH",
"149 29 OFFCURVE",
"132 32 OFFCURVE",
"118 41 CURVE",
"76 105 LINE",
"51 99 OFFCURVE",
"18 72 OFFCURVE",
"15 31 CURVE"
);
},
{
closed = 1;
nodes = (
"262 514 LINE",
"359 613 LINE",
"339 636 LINE",
"252 596 LINE",
"169 635 LINE",
"139 613 LINE",
"215 514 LINE"
);
}
);
width = 363;
}
);
note = scaron;
unicode = 0161;
},
{
glyphname = germandbls;
layers = (
{
layerId = "F0C8EF09-FA88-4A15-9CCE-7A8BC6200D57";
paths = (
{
closed = 1;
nodes = (
"-130 -118 LINE",
"-134 -127 OFFCURVE",
"-135 -138 OFFCURVE",
"-135 -150 CURVE SMOOTH",
"-135 -181 OFFCURVE",
"-126 -205 OFFCURVE",
"-114 -215 CURVE",
"-34 -215 OFFCURVE",
"76 -131 OFFCURVE",
"110 -43 CURVE SMOOTH",
"125 -3 OFFCURVE",
"141 62 OFFCURVE",
"155 179 CURVE SMOOTH",
"184 420 LINE SMOOTH",
"197 530 OFFCURVE",
"208 569 OFFCURVE",
"218 595 CURVE SMOOTH",
"245 666 OFFCURVE",
"284 700 OFFCURVE",
"336 700 CURVE SMOOTH",
"378 700 OFFCURVE",
"398 664 OFFCURVE",
"398 632 CURVE SMOOTH",
"398 535 OFFCURVE",
"327 460 OFFCURVE",
"254 399 CURVE",
"308 348 OFFCURVE",
"363 267 OFFCURVE",
"363 175 CURVE SMOOTH",
"363 100 OFFCURVE",
"331 44 OFFCURVE",
"291 44 CURVE SMOOTH",
"272 44 OFFCURVE",
"256 59 OFFCURVE",
"238 73 CURVE",
"210 62 OFFCURVE",
"190 45 OFFCURVE",
"176 19 CURVE",
"196 -4 OFFCURVE",
"228 -12 OFFCURVE",
"265 -12 CURVE SMOOTH",
"348 -12 OFFCURVE",
"445 88 OFFCURVE",
"445 218 CURVE SMOOTH",
"445 314 OFFCURVE",
"400 387 OFFCURVE",
"351 430 CURVE",
"402 470 OFFCURVE",
"495 571 OFFCURVE",
"495 658 CURVE SMOOTH",
"495 719 OFFCURVE",
"452 760 OFFCURVE",
"387 760 CURVE SMOOTH",
"284 760 OFFCURVE",
"188 689 OFFCURVE",
"141 588 CURVE SMOOTH",
"123 549 OFFCURVE",
"105 483 OFFCURVE",
"91 366 CURVE SMOOTH",
"62 125 LINE SMOOTH",
"49 15 OFFCURVE",
"32 -40 OFFCURVE",
"13 -81 CURVE"
);
}
);
width = 469;
}
);
note = germandbls;
unicode = 00DF;
},
{
glyphname = longs;
layers = (
{
layerId = "F0C8EF09-FA88-4A15-9CCE-7A8BC6200D57";
paths = (
{
closed = 1;
nodes = (
"142 -1 OFFCURVE",
"156 62 OFFCURVE",
"170 179 CURVE SMOOTH",
"199 420 LINE SMOOTH",
"212 530 OFFCURVE",
"223 569 OFFCURVE",
"233 595 CURVE SMOOTH",
"260 666 OFFCURVE",
"299 700 OFFCURVE",
"351 700 CURVE",
"444 662 LINE",
"467 678 OFFCURVE",
"486 714 OFFCURVE",
"491 740 CURVE",
"469 756 OFFCURVE",
"428 760 OFFCURVE",
"402 760 CURVE SMOOTH",
"307 760 OFFCURVE",
"203 689 OFFCURVE",
"156 588 CURVE SMOOTH",
"138 549 OFFCURVE",
"120 483 OFFCURVE",
"106 366 CURVE SMOOTH",
"77 125 LINE SMOOTH",
"64 15 OFFCURVE",
"50 -52 OFFCURVE",
"38 -86 CURVE",
"-65 -126 LINE",
"-65 -170 OFFCURVE",
"-47 -204 OFFCURVE",
"-22 -215 CURVE",
"66 -187 OFFCURVE",
"105 -123 OFFCURVE",
"129 -43 CURVE SMOOTH"
);
}
);
width = 258;
}
);
note = longs;
rightKerningGroup = f;
unicode = 017F;
},
{
glyphname = t;
layers = (
{
layerId = "F0C8EF09-FA88-4A15-9CCE-7A8BC6200D57";
paths = (
{
closed = 1;
nodes = (
"180 571 LINE",
"157 507 OFFCURVE",
"139 463 OFFCURVE",
"105 417 CURVE",
"22 368 LINE",
"30 345 LINE",
"96 345 LINE",
"83 224 OFFCURVE",
"57 131 OFFCURVE",
"57 58 CURVE SMOOTH",
"57 4 OFFCURVE",
"90 -15 OFFCURVE",
"125 -15 CURVE SMOOTH",
"159 -15 OFFCURVE",
"193 0 OFFCURVE",
"248 33 CURVE",
"240 68 LINE",
"227 65 OFFCURVE",
"200 60 OFFCURVE",
"182 60 CURVE SMOOTH",
"160 60 OFFCURVE",
"149 72 OFFCURVE",
"149 99 CURVE SMOOTH",
"149 141 OFFCURVE",
"166 242 OFFCURVE",
"183 345 CURVE",
"278 345 LINE",
"283 356 OFFCURVE",
"285 369 OFFCURVE",
"285 384 CURVE SMOOTH",
"285 399 OFFCURVE",
"282 411 OFFCURVE",
"278 420 CURVE",
"196 420 LINE",
"205 474 OFFCURVE",
"212 525 OFFCURVE",
"216 564 CURVE"
);
}
);
width = 295;
}
);
note = t;
rightKerningGroup = t;
unicode = 0074;
},
{
glyphname = u;
layers = (
{
layerId = "F0C8EF09-FA88-4A15-9CCE-7A8BC6200D57";
paths = (
{
closed = 1;
nodes = (
"405 164 OFFCURVE",
"428 353 OFFCURVE",
"439 425 CURVE",
"353 425 LINE",
"349 404 OFFCURVE",
"345 370 OFFCURVE",
"340 330 CURVE",
"303 163 OFFCURVE",
"223 63 OFFCURVE",
"182 63 CURVE SMOOTH",
"166 63 OFFCURVE",
"153 75 OFFCURVE",
"153 116 CURVE SMOOTH",
"153 180 OFFCURVE",
"188 308 OFFCURVE",
"188 367 CURVE SMOOTH",
"188 407 OFFCURVE",
"172 424 OFFCURVE",
"153 435 CURVE",
"14 392 LINE",
"21 354 LINE",
"34 357 OFFCURVE",
"64 361 OFFCURVE",
"78 361 CURVE SMOOTH",
"90 361 OFFCURVE",
"97 355 OFFCURVE",
"97 337 CURVE SMOOTH",
"97 296 OFFCURVE",
"62 180 OFFCURVE",
"62 93 CURVE SMOOTH",
"62 17 OFFCURVE",
"97 -10 OFFCURVE",
"138 -10 CURVE SMOOTH",
"211 -10 OFFCURVE",
"270 49 OFFCURVE",
"322 160 CURVE",
"318 116 OFFCURVE",
"315 79 OFFCURVE",
"315 68 CURVE SMOOTH",
"315 9 OFFCURVE",
"336 -5 OFFCURVE",
"353 -12 CURVE",
"478 31 LINE",
"471 69 LINE",
"458 66 OFFCURVE",
"439 64 OFFCURVE",
"425 64 CURVE SMOOTH",
"413 64 OFFCURVE",
"405 71 OFFCURVE",
"405 91 CURVE SMOOTH"
);
}
);
width = 495;
}
);
leftKerningGroup = u;
note = u;
unicode = 0075;
},
{
glyphname = uacute;
layers = (
{
layerId = "F0C8EF09-FA88-4A15-9CCE-7A8BC6200D57";
paths = (
{
closed = 1;
nodes = (
"405 164 OFFCURVE",
"428 353 OFFCURVE",
"439 425 CURVE",
"353 425 LINE",
"349 404 OFFCURVE",
"345 370 OFFCURVE",
"340 330 CURVE",
"303 163 OFFCURVE",
"223 63 OFFCURVE",
"182 63 CURVE SMOOTH",
"166 63 OFFCURVE",
"153 75 OFFCURVE",
"153 116 CURVE SMOOTH",
"153 180 OFFCURVE",
"188 308 OFFCURVE",
"188 367 CURVE SMOOTH",
"188 407 OFFCURVE",
"172 424 OFFCURVE",
"153 435 CURVE",
"14 392 LINE",
"21 354 LINE",
"34 357 OFFCURVE",
"64 361 OFFCURVE",
"78 361 CURVE SMOOTH",
"90 361 OFFCURVE",
"97 355 OFFCURVE",
"97 337 CURVE SMOOTH",
"97 296 OFFCURVE",
"62 180 OFFCURVE",
"62 93 CURVE SMOOTH",
"62 17 OFFCURVE",
"97 -10 OFFCURVE",
"138 -10 CURVE SMOOTH",
"211 -10 OFFCURVE",
"270 49 OFFCURVE",
"322 160 CURVE",
"318 116 OFFCURVE",
"315 79 OFFCURVE",
"315 68 CURVE SMOOTH",
"315 9 OFFCURVE",
"336 -5 OFFCURVE",
"353 -12 CURVE",
"478 31 LINE",
"471 69 LINE",
"458 66 OFFCURVE",
"439 64 OFFCURVE",
"425 64 CURVE SMOOTH",
"413 64 OFFCURVE",
"405 71 OFFCURVE",
"405 91 CURVE SMOOTH"
);
},
{
closed = 1;
nodes = (
"235 499 LINE",
"312 520 OFFCURVE",
"357 567 OFFCURVE",
"376 626 CURVE",
"323 662 LINE",
"293 658 LINE",
"286 615 OFFCURVE",
"256 568 OFFCURVE",
"211 534 CURVE"
);
}
);
width = 495;
}
);
leftKerningGroup = u;
note = uacute;
unicode = 00FA;
},
{
glyphname = ucircumflex;
layers = (
{
layerId = "F0C8EF09-FA88-4A15-9CCE-7A8BC6200D57";
paths = (
{
closed = 1;
nodes = (
"405 164 OFFCURVE",
"428 353 OFFCURVE",
"439 425 CURVE",
"353 425 LINE",
"349 404 OFFCURVE",
"345 370 OFFCURVE",
"340 330 CURVE",
"303 163 OFFCURVE",
"223 63 OFFCURVE",
"182 63 CURVE SMOOTH",
"166 63 OFFCURVE",
"153 75 OFFCURVE",
"153 116 CURVE SMOOTH",
"153 180 OFFCURVE",
"188 308 OFFCURVE",
"188 367 CURVE SMOOTH",
"188 407 OFFCURVE",
"172 424 OFFCURVE",
"153 435 CURVE",
"14 392 LINE",
"21 354 LINE",
"34 357 OFFCURVE",
"64 361 OFFCURVE",
"78 361 CURVE SMOOTH",
"90 361 OFFCURVE",
"97 355 OFFCURVE",
"97 337 CURVE SMOOTH",
"97 296 OFFCURVE",
"62 180 OFFCURVE",
"62 93 CURVE SMOOTH",
"62 17 OFFCURVE",
"97 -10 OFFCURVE",
"138 -10 CURVE SMOOTH",
"211 -10 OFFCURVE",
"270 49 OFFCURVE",
"322 160 CURVE",
"318 116 OFFCURVE",
"315 79 OFFCURVE",
"315 68 CURVE SMOOTH",
"315 9 OFFCURVE",
"336 -5 OFFCURVE",
"353 -12 CURVE",
"478 31 LINE",
"471 69 LINE",
"458 66 OFFCURVE",
"439 64 OFFCURVE",
"425 64 CURVE SMOOTH",
"413 64 OFFCURVE",
"405 71 OFFCURVE",
"405 91 CURVE SMOOTH"
);
},
{
closed = 1;
nodes = (
"273 636 LINE",
"176 537 LINE",
"196 514 LINE",
"283 554 LINE",
"366 515 LINE",
"396 537 LINE",
"320 636 LINE"
);
}
);
width = 495;
}
);
leftKerningGroup = u;
note = ucircumflex;
unicode = 00FB;
},
{
glyphname = udieresis;
layers = (
{
layerId = "F0C8EF09-FA88-4A15-9CCE-7A8BC6200D57";
paths = (
{
closed = 1;
nodes = (
"405 164 OFFCURVE",
"428 353 OFFCURVE",
"439 425 CURVE",
"353 425 LINE",
"349 404 OFFCURVE",
"345 370 OFFCURVE",
"340 330 CURVE",
"303 163 OFFCURVE",
"223 63 OFFCURVE",
"182 63 CURVE SMOOTH",
"166 63 OFFCURVE",
"153 75 OFFCURVE",
"153 116 CURVE SMOOTH",
"153 180 OFFCURVE",
"188 308 OFFCURVE",
"188 367 CURVE SMOOTH",
"188 407 OFFCURVE",
"172 424 OFFCURVE",
"153 435 CURVE",
"14 392 LINE",
"21 354 LINE",
"34 357 OFFCURVE",
"64 361 OFFCURVE",
"78 361 CURVE SMOOTH",
"90 361 OFFCURVE",
"97 355 OFFCURVE",
"97 337 CURVE SMOOTH",
"97 296 OFFCURVE",
"62 180 OFFCURVE",
"62 93 CURVE SMOOTH",
"62 17 OFFCURVE",
"97 -10 OFFCURVE",
"138 -10 CURVE SMOOTH",
"211 -10 OFFCURVE",
"270 49 OFFCURVE",
"322 160 CURVE",
"318 116 OFFCURVE",
"315 79 OFFCURVE",
"315 68 CURVE SMOOTH",
"315 9 OFFCURVE",
"336 -5 OFFCURVE",
"353 -12 CURVE",
"478 31 LINE",
"471 69 LINE",
"458 66 OFFCURVE",
"439 64 OFFCURVE",
"425 64 CURVE SMOOTH",
"413 64 OFFCURVE",
"405 71 OFFCURVE",
"405 91 CURVE SMOOTH"
);
},
{
closed = 1;
nodes = (
"132 563 OFFCURVE",
"155 536 OFFCURVE",
"189 536 CURVE SMOOTH",
"224 536 OFFCURVE",
"255 567 OFFCURVE",
"255 607 CURVE SMOOTH",
"255 639 OFFCURVE",
"231 666 OFFCURVE",
"197 666 CURVE SMOOTH",
"163 666 OFFCURVE",
"132 635 OFFCURVE",
"132 596 CURVE SMOOTH"
);
},
{
closed = 1;
nodes = (
"328 563 OFFCURVE",
"351 536 OFFCURVE",
"386 536 CURVE SMOOTH",
"420 536 OFFCURVE",
"452 567 OFFCURVE",
"452 607 CURVE SMOOTH",
"452 639 OFFCURVE",
"428 666 OFFCURVE",
"393 666 CURVE SMOOTH",
"359 666 OFFCURVE",
"328 635 OFFCURVE",
"328 596 CURVE SMOOTH"
);
}
);
width = 495;
}
);
leftKerningGroup = u;
note = udieresis;
unicode = 00FC;
},
{
glyphname = ugrave;
layers = (
{
layerId = "F0C8EF09-FA88-4A15-9CCE-7A8BC6200D57";
paths = (
{
closed = 1;
nodes = (
"405 164 OFFCURVE",
"428 353 OFFCURVE",
"439 425 CURVE",
"353 425 LINE",
"349 404 OFFCURVE",
"345 370 OFFCURVE",
"340 330 CURVE",
"303 163 OFFCURVE",
"223 63 OFFCURVE",
"182 63 CURVE SMOOTH",
"166 63 OFFCURVE",
"153 75 OFFCURVE",
"153 116 CURVE SMOOTH",
"153 180 OFFCURVE",
"188 308 OFFCURVE",
"188 367 CURVE SMOOTH",
"188 407 OFFCURVE",
"172 424 OFFCURVE",
"153 435 CURVE",
"14 392 LINE",
"21 354 LINE",
"34 357 OFFCURVE",
"64 361 OFFCURVE",
"78 361 CURVE SMOOTH",
"90 361 OFFCURVE",
"97 355 OFFCURVE",
"97 337 CURVE SMOOTH",
"97 296 OFFCURVE",
"62 180 OFFCURVE",
"62 93 CURVE SMOOTH",
"62 17 OFFCURVE",
"97 -10 OFFCURVE",
"138 -10 CURVE SMOOTH",
"211 -10 OFFCURVE",
"270 49 OFFCURVE",
"322 160 CURVE",
"318 116 OFFCURVE",
"315 79 OFFCURVE",
"315 68 CURVE SMOOTH",
"315 9 OFFCURVE",
"336 -5 OFFCURVE",
"353 -12 CURVE",
"478 31 LINE",
"471 69 LINE",
"458 66 OFFCURVE",
"439 64 OFFCURVE",
"425 64 CURVE SMOOTH",
"413 64 OFFCURVE",
"405 71 OFFCURVE",
"405 91 CURVE SMOOTH"
);
},
{
closed = 1;
nodes = (
"364 534 LINE",
"319 568 OFFCURVE",
"289 615 OFFCURVE",
"282 658 CURVE",
"252 662 LINE",
"199 626 LINE",
"218 567 OFFCURVE",
"263 520 OFFCURVE",
"340 499 CURVE"
);
}
);
width = 495;
}
);
leftKerningGroup = u;
note = ugrave;
unicode = 00F9;
},
{
glyphname = v;
layers = (
{
layerId = "F0C8EF09-FA88-4A15-9CCE-7A8BC6200D57";
paths = (
{
closed = 1;
nodes = (
"170 418 OFFCURVE",
"152 433 OFFCURVE",
"135 440 CURVE",
"13 397 LINE",
"20 359 LINE",
"33 362 OFFCURVE",
"52 364 OFFCURVE",
"60 364 CURVE SMOOTH",
"78 364 OFFCURVE",
"89 358 OFFCURVE",
"101 329 CURVE SMOOTH",
"122 280 OFFCURVE",
"158 160 OFFCURVE",
"185 -14 CURVE",
"215 -20 LINE",
"357 164 OFFCURVE",
"452 340 OFFCURVE",
"452 386 CURVE SMOOTH",
"452 415 OFFCURVE",
"429 429 OFFCURVE",
"402 438 CURVE",
"286 402 LINE",
"290 370 LINE",
"345 370 OFFCURVE",
"355 352 OFFCURVE",
"355 325 CURVE SMOOTH",
"355 285 OFFCURVE",
"314 203 OFFCURVE",
"246 93 CURVE",
"241 93 LINE",
"225 208 OFFCURVE",
"202 336 OFFCURVE",
"185 379 CURVE SMOOTH"
);
}
);
width = 487;
}
);
note = v;
rightKerningGroup = v;
unicode = 0076;
},
{
glyphname = w;
layers = (
{
layerId = "F0C8EF09-FA88-4A15-9CCE-7A8BC6200D57";
paths = (
{
closed = 1;
nodes = (
"303 420 LINE",
"285 407 LINE",
"319 280 LINE",
"309 233 OFFCURVE",
"286 168 OFFCURVE",
"240 93 CURVE",
"235 93 LINE",
"226 211 OFFCURVE",
"202 336 OFFCURVE",
"185 379 CURVE SMOOTH",
"170 418 OFFCURVE",
"152 433 OFFCURVE",
"135 440 CURVE",
"13 397 LINE",
"20 359 LINE",
"33 362 OFFCURVE",
"52 364 OFFCURVE",
"60 364 CURVE SMOOTH",
"78 364 OFFCURVE",
"89 358 OFFCURVE",
"101 329 CURVE SMOOTH",
"122 280 OFFCURVE",
"158 160 OFFCURVE",
"185 -14 CURVE",
"215 -20 LINE",
"275 58 OFFCURVE",
"315 132 OFFCURVE",
"339 194 CURVE",
"355 124 OFFCURVE",
"370 51 OFFCURVE",
"379 -14 CURVE",
"409 -20 LINE",
"551 164 OFFCURVE",
"646 340 OFFCURVE",
"646 386 CURVE SMOOTH",
"646 415 OFFCURVE",
"623 429 OFFCURVE",
"596 438 CURVE",
"480 402 LINE",
"484 370 LINE",
"539 370 OFFCURVE",
"548 352 OFFCURVE",
"548 325 CURVE SMOOTH",
"548 285 OFFCURVE",
"508 203 OFFCURVE",
"440 93 CURVE",
"435 93 LINE",
"422 212 OFFCURVE",
"394 351 OFFCURVE",
"373 430 CURVE"
);
}
);
width = 681;
}
);
note = w;
unicode = 0077;
},
{
glyphname = x;
layers = (
{
layerId = "F0C8EF09-FA88-4A15-9CCE-7A8BC6200D57";
paths = (
{
closed = 1;
nodes = (
"212 35 LINE",
"189 40 OFFCURVE",
"169 47 OFFCURVE",
"154 59 CURVE",
"233 161 LINE",
"308 6 OFFCURVE",
"324 -8 OFFCURVE",
"340 -15 CURVE",
"462 28 LINE",
"455 66 LINE",
"442 63 OFFCURVE",
"423 61 OFFCURVE",
"415 61 CURVE SMOOTH",
"398 61 OFFCURVE",
"378 67 OFFCURVE",
"306 224 CURVE",
"426 375 LINE",
"448 386 OFFCURVE",
"475 395 OFFCURVE",
"491 400 CURVE",
"490 431 LINE",
"472 428 OFFCURVE",
"430 426 OFFCURVE",
"401 426 CURVE SMOOTH",
"371 426 OFFCURVE",
"336 428 OFFCURVE",
"310 430 CURVE",
"306 395 LINE",
"329 390 OFFCURVE",
"344 383 OFFCURVE",
"358 371 CURVE",
"285 269 LINE",
"214 422 OFFCURVE",
"191 433 OFFCURVE",
"175 440 CURVE",
"53 397 LINE",
"60 359 LINE",
"73 362 OFFCURVE",
"92 364 OFFCURVE",
"100 364 CURVE SMOOTH",
"117 364 OFFCURVE",
"136 362 OFFCURVE",
"211 207 CURVE",
"80 54 LINE",
"59 43 OFFCURVE",
"32 34 OFFCURVE",
"18 30 CURVE",
"19 -4 LINE",
"36 -1 OFFCURVE",
"88 1 OFFCURVE",
"117 1 CURVE SMOOTH",
"147 1 OFFCURVE",
"182 -1 OFFCURVE",
"208 -3 CURVE"
);
}
);
width = 506;
}
);
note = x;
unicode = 0078;
},
{
glyphname = y;
layers = (
{
layerId = "F0C8EF09-FA88-4A15-9CCE-7A8BC6200D57";
paths = (
{
closed = 1;
nodes = (
"279 -1 OFFCURVE",
"442 340 OFFCURVE",
"442 386 CURVE SMOOTH",
"442 415 OFFCURVE",
"419 429 OFFCURVE",
"392 438 CURVE",
"276 402 LINE",
"280 370 LINE",
"335 370 OFFCURVE",
"345 352 OFFCURVE",
"345 325 CURVE SMOOTH",
"345 294 OFFCURVE",
"327 194 OFFCURVE",
"251 55 CURVE",
"239 174 OFFCURVE",
"201 338 OFFCURVE",
"185 379 CURVE SMOOTH",
"170 418 OFFCURVE",
"152 433 OFFCURVE",
"135 440 CURVE",
"13 397 LINE",
"20 359 LINE",
"33 362 OFFCURVE",
"52 364 OFFCURVE",
"60 364 CURVE SMOOTH",
"78 364 OFFCURVE",
"89 358 OFFCURVE",
"101 329 CURVE SMOOTH",
"120 284 OFFCURVE",
"171 133 OFFCURVE",
"197 -32 CURVE",
"186 -49 OFFCURVE",
"173 -67 OFFCURVE",
"160 -85 CURVE",
"5 -118 LINE",
"1 -127 OFFCURVE",
"0 -138 OFFCURVE",
"0 -150 CURVE SMOOTH",
"0 -181 OFFCURVE",
"9 -205 OFFCURVE",
"21 -215 CURVE",
"104 -215 OFFCURVE",
"143 -188 OFFCURVE",
"206 -101 CURVE SMOOTH"
);
}
);
width = 477;
}
);
note = y;
unicode = 0079;
},
{
glyphname = yacute;
layers = (
{
layerId = "F0C8EF09-FA88-4A15-9CCE-7A8BC6200D57";
paths = (
{
closed = 1;
nodes = (
"279 -1 OFFCURVE",
"442 340 OFFCURVE",
"442 386 CURVE SMOOTH",
"442 415 OFFCURVE",
"419 429 OFFCURVE",
"392 438 CURVE",
"276 402 LINE",
"280 370 LINE",
"335 370 OFFCURVE",
"345 352 OFFCURVE",
"345 325 CURVE SMOOTH",
"345 294 OFFCURVE",
"327 194 OFFCURVE",
"251 55 CURVE",
"239 174 OFFCURVE",
"201 338 OFFCURVE",
"185 379 CURVE SMOOTH",
"170 418 OFFCURVE",
"152 433 OFFCURVE",
"135 440 CURVE",
"13 397 LINE",
"20 359 LINE",
"33 362 OFFCURVE",
"52 364 OFFCURVE",
"60 364 CURVE SMOOTH",
"78 364 OFFCURVE",
"89 358 OFFCURVE",
"101 329 CURVE SMOOTH",
"120 284 OFFCURVE",
"171 133 OFFCURVE",
"197 -32 CURVE",
"186 -49 OFFCURVE",
"173 -67 OFFCURVE",
"160 -85 CURVE",
"5 -118 LINE",
"1 -127 OFFCURVE",
"0 -138 OFFCURVE",
"0 -150 CURVE SMOOTH",
"0 -181 OFFCURVE",
"9 -205 OFFCURVE",
"21 -215 CURVE",
"104 -215 OFFCURVE",
"143 -188 OFFCURVE",
"206 -101 CURVE SMOOTH"
);
},
{
closed = 1;
nodes = (
"210 499 LINE",
"287 520 OFFCURVE",
"332 567 OFFCURVE",
"351 626 CURVE",
"298 662 LINE",
"268 658 LINE",
"261 615 OFFCURVE",
"231 568 OFFCURVE",
"186 534 CURVE"
);
}
);
width = 477;
}
);
note = yacute;
unicode = 00FD;
},
{
glyphname = ydieresis;
layers = (
{
layerId = "F0C8EF09-FA88-4A15-9CCE-7A8BC6200D57";
paths = (
{
closed = 1;
nodes = (
"279 -1 OFFCURVE",
"442 340 OFFCURVE",
"442 386 CURVE SMOOTH",
"442 415 OFFCURVE",
"419 429 OFFCURVE",
"392 438 CURVE",
"276 402 LINE",
"280 370 LINE",
"335 370 OFFCURVE",
"345 352 OFFCURVE",
"345 325 CURVE SMOOTH",
"345 294 OFFCURVE",
"327 194 OFFCURVE",
"251 55 CURVE",
"239 174 OFFCURVE",
"201 338 OFFCURVE",
"185 379 CURVE SMOOTH",
"170 418 OFFCURVE",
"152 433 OFFCURVE",
"135 440 CURVE",
"13 397 LINE",
"20 359 LINE",
"33 362 OFFCURVE",
"52 364 OFFCURVE",
"60 364 CURVE SMOOTH",
"78 364 OFFCURVE",
"89 358 OFFCURVE",
"101 329 CURVE SMOOTH",
"120 284 OFFCURVE",
"171 133 OFFCURVE",
"197 -32 CURVE",
"186 -49 OFFCURVE",
"173 -67 OFFCURVE",
"160 -85 CURVE",
"5 -118 LINE",
"1 -127 OFFCURVE",
"0 -138 OFFCURVE",
"0 -150 CURVE SMOOTH",
"0 -181 OFFCURVE",
"9 -205 OFFCURVE",
"21 -215 CURVE",
"104 -215 OFFCURVE",
"143 -188 OFFCURVE",
"206 -101 CURVE SMOOTH"
);
},
{
closed = 1;
nodes = (
"107 563 OFFCURVE",
"130 536 OFFCURVE",
"164 536 CURVE SMOOTH",
"199 536 OFFCURVE",
"230 567 OFFCURVE",
"230 607 CURVE SMOOTH",
"230 639 OFFCURVE",
"206 666 OFFCURVE",
"172 666 CURVE SMOOTH",
"138 666 OFFCURVE",
"107 635 OFFCURVE",
"107 596 CURVE SMOOTH"
);
},
{
closed = 1;
nodes = (
"303 563 OFFCURVE",
"326 536 OFFCURVE",
"361 536 CURVE SMOOTH",
"395 536 OFFCURVE",
"427 567 OFFCURVE",
"427 607 CURVE SMOOTH",
"427 639 OFFCURVE",
"403 666 OFFCURVE",
"368 666 CURVE SMOOTH",
"334 666 OFFCURVE",
"303 635 OFFCURVE",
"303 596 CURVE SMOOTH"
);
}
);
width = 477;
}
);
note = ydieresis;
unicode = 00FF;
},
{
glyphname = z;
layers = (
{
layerId = "F0C8EF09-FA88-4A15-9CCE-7A8BC6200D57";
paths = (
{
closed = 1;
nodes = (
"358 431 LINE",
"352 424 LINE",
"338 417 OFFCURVE",
"326 414 OFFCURVE",
"315 414 CURVE SMOOTH",
"282 414 OFFCURVE",
"255 438 OFFCURVE",
"212 438 CURVE SMOOTH",
"150 438 OFFCURVE",
"111 400 OFFCURVE",
"65 334 CURVE",
"96 307 LINE",
"122 334 OFFCURVE",
"152 351 OFFCURVE",
"199 351 CURVE SMOOTH",
"225 351 OFFCURVE",
"252 347 OFFCURVE",
"279 337 CURVE",
"10 18 LINE",
"57 -16 LINE",
"63 -9 LINE",
"85 3 OFFCURVE",
"104 7 OFFCURVE",
"121 7 CURVE SMOOTH",
"161 7 OFFCURVE",
"192 -15 OFFCURVE",
"227 -15 CURVE SMOOTH",
"294 -15 OFFCURVE",
"333 23 OFFCURVE",
"379 89 CURVE",
"348 116 LINE",
"323 90 OFFCURVE",
"282 70 OFFCURVE",
"245 70 CURVE SMOOTH",
"217 70 OFFCURVE",
"178 74 OFFCURVE",
"143 86 CURVE",
"403 394 LINE"
);
}
);
width = 423;
}
);
note = z;
unicode = 007A;
},
{
glyphname = zcaron;
layers = (
{
layerId = "F0C8EF09-FA88-4A15-9CCE-7A8BC6200D57";
paths = (
{
closed = 1;
nodes = (
"358 431 LINE",
"352 424 LINE",
"338 417 OFFCURVE",
"326 414 OFFCURVE",
"315 414 CURVE SMOOTH",
"282 414 OFFCURVE",
"255 438 OFFCURVE",
"212 438 CURVE SMOOTH",
"150 438 OFFCURVE",
"111 400 OFFCURVE",
"65 334 CURVE",
"96 307 LINE",
"122 334 OFFCURVE",
"152 351 OFFCURVE",
"199 351 CURVE SMOOTH",
"225 351 OFFCURVE",
"252 347 OFFCURVE",
"279 337 CURVE",
"10 18 LINE",
"57 -16 LINE",
"63 -9 LINE",
"85 3 OFFCURVE",
"104 7 OFFCURVE",
"121 7 CURVE SMOOTH",
"161 7 OFFCURVE",
"192 -15 OFFCURVE",
"227 -15 CURVE SMOOTH",
"294 -15 OFFCURVE",
"333 23 OFFCURVE",
"379 89 CURVE",
"348 116 LINE",
"323 90 OFFCURVE",
"282 70 OFFCURVE",
"245 70 CURVE SMOOTH",
"217 70 OFFCURVE",
"178 74 OFFCURVE",
"143 86 CURVE",
"403 394 LINE"
);
},
{
closed = 1;
nodes = (
"259 514 LINE",
"356 613 LINE",
"336 636 LINE",
"249 596 LINE",
"166 635 LINE",
"136 613 LINE",
"212 514 LINE"
);
}
);
width = 423;
}
);
note = zcaron;
unicode = 017E;
},
{
glyphname = S_S;
layers = (
{
layerId = "F0C8EF09-FA88-4A15-9CCE-7A8BC6200D57";
paths = (
{
closed = 1;
nodes = (
"83 181 LINE",
"54 61 LINE",
"101 7 OFFCURVE",
"175 -19 OFFCURVE",
"265 -19 CURVE SMOOTH",
"378 -19 OFFCURVE",
"518 47 OFFCURVE",
"518 204 CURVE SMOOTH",
"518 420 OFFCURVE",
"237 395 OFFCURVE",
"237 562 CURVE SMOOTH",
"237 620 OFFCURVE",
"287 667 OFFCURVE",
"355 667 CURVE SMOOTH",
"390 667 OFFCURVE",
"426 653 OFFCURVE",
"447 628 CURVE",
"472 544 LINE",
"516 555 LINE",
"530 655 LINE",
"500 690 OFFCURVE",
"428 710 OFFCURVE",
"365 710 CURVE SMOOTH",
"260 710 OFFCURVE",
"141 633 OFFCURVE",
"141 506 CURVE SMOOTH",
"141 309 OFFCURVE",
"418 303 OFFCURVE",
"418 149 CURVE SMOOTH",
"418 72 OFFCURVE",
"360 32 OFFCURVE",
"278 32 CURVE SMOOTH",
"222 32 OFFCURVE",
"175 58 OFFCURVE",
"144 93 CURVE",
"114 186 LINE"
);
},
{
closed = 1;
nodes = (
"639 181 LINE",
"610 61 LINE",
"657 7 OFFCURVE",
"731 -19 OFFCURVE",
"821 -19 CURVE SMOOTH",
"934 -19 OFFCURVE",
"1074 47 OFFCURVE",
"1074 204 CURVE SMOOTH",
"1074 420 OFFCURVE",
"793 395 OFFCURVE",
"793 562 CURVE SMOOTH",
"793 620 OFFCURVE",
"843 667 OFFCURVE",
"911 667 CURVE SMOOTH",
"946 667 OFFCURVE",
"982 653 OFFCURVE",
"1003 628 CURVE",
"1028 544 LINE",
"1072 555 LINE",
"1086 655 LINE",
"1056 690 OFFCURVE",
"984 710 OFFCURVE",
"921 710 CURVE SMOOTH",
"816 710 OFFCURVE",
"697 633 OFFCURVE",
"697 506 CURVE SMOOTH",
"697 309 OFFCURVE",
"974 303 OFFCURVE",
"974 149 CURVE SMOOTH",
"974 72 OFFCURVE",
"916 32 OFFCURVE",
"834 32 CURVE SMOOTH",
"778 32 OFFCURVE",
"731 58 OFFCURVE",
"700 93 CURVE",
"670 186 LINE"
);
}
);
width = 1122;
}
);
note = S_S;
},
{
glyphname = f_f;
layers = (
{
layerId = "F0C8EF09-FA88-4A15-9CCE-7A8BC6200D57";
paths = (
{
closed = 1;
nodes = (
"150 -1 OFFCURVE",
"164 62 OFFCURVE",
"178 179 CURVE SMOOTH",
"198 345 LINE",
"379 345 LINE",
"357 158 LINE SMOOTH",
"344 48 OFFCURVE",
"330 -19 OFFCURVE",
"318 -53 CURVE",
"215 -93 LINE",
"215 -137 OFFCURVE",
"233 -171 OFFCURVE",
"258 -182 CURVE",
"346 -154 OFFCURVE",
"385 -90 OFFCURVE",
"409 -10 CURVE SMOOTH",
"422 32 OFFCURVE",
"436 95 OFFCURVE",
"450 212 CURVE SMOOTH",
"466 345 LINE",
"537 345 LINE",
"569 363 OFFCURVE",
"591 390 OFFCURVE",
"591 420 CURVE",
"475 420 LINE",
"488 530 OFFCURVE",
"499 569 OFFCURVE",
"509 595 CURVE SMOOTH",
"536 666 OFFCURVE",
"575 700 OFFCURVE",
"627 700 CURVE",
"720 662 LINE",
"743 678 OFFCURVE",
"762 714 OFFCURVE",
"767 740 CURVE",
"745 756 OFFCURVE",
"704 760 OFFCURVE",
"678 760 CURVE SMOOTH",
"623 760 OFFCURVE",
"566 737 OFFCURVE",
"518 698 CURVE",
"486 717 OFFCURVE",
"453 725 OFFCURVE",
"409 725 CURVE SMOOTH",
"314 725 OFFCURVE",
"210 654 OFFCURVE",
"163 553 CURVE SMOOTH",
"150 525 OFFCURVE",
"134 469 OFFCURVE",
"123 419 CURVE",
"54 362 LINE",
"61 345 LINE",
"111 345 LINE",
"85 125 LINE SMOOTH",
"72 15 OFFCURVE",
"58 -52 OFFCURVE",
"46 -86 CURVE",
"-57 -126 LINE",
"-57 -170 OFFCURVE",
"-39 -204 OFFCURVE",
"-14 -215 CURVE",
"74 -187 OFFCURVE",
"113 -123 OFFCURVE",
"137 -43 CURVE SMOOTH"
);
},
{
closed = 1;
nodes = (
"417 555 OFFCURVE",
"401 504 OFFCURVE",
"389 420 CURVE",
"207 420 LINE",
"212 461 OFFCURVE",
"230 534 OFFCURVE",
"240 560 CURVE SMOOTH",
"267 631 OFFCURVE",
"306 665 OFFCURVE",
"358 665 CURVE",
"455 628 LINE",
"446 615 OFFCURVE",
"438 602 OFFCURVE",
"432 588 CURVE SMOOTH"
);
}
);
width = 593;
}
);
note = f_f;
rightKerningGroup = f;
unicode = FB00;
},
{
glyphname = f_f_i;
layers = (
{
layerId = "F0C8EF09-FA88-4A15-9CCE-7A8BC6200D57";
paths = (
{
closed = 1;
nodes = (
"150 -1 OFFCURVE",
"164 62 OFFCURVE",
"178 179 CURVE SMOOTH",
"198 345 LINE",
"379 345 LINE",
"357 158 LINE SMOOTH",
"344 48 OFFCURVE",
"330 -19 OFFCURVE",
"318 -53 CURVE",
"215 -93 LINE",
"215 -137 OFFCURVE",
"233 -171 OFFCURVE",
"258 -182 CURVE",
"346 -154 OFFCURVE",
"385 -90 OFFCURVE",
"409 -10 CURVE SMOOTH",
"422 32 OFFCURVE",
"436 95 OFFCURVE",
"450 212 CURVE SMOOTH",
"466 345 LINE",
"497 345 LINE",
"529 363 OFFCURVE",
"551 390 OFFCURVE",
"551 420 CURVE",
"475 420 LINE",
"488 530 OFFCURVE",
"499 569 OFFCURVE",
"509 595 CURVE SMOOTH",
"536 666 OFFCURVE",
"575 700 OFFCURVE",
"627 700 CURVE",
"705 638 LINE",
"750 650 OFFCURVE",
"786 699 OFFCURVE",
"791 725 CURVE",
"763 746 OFFCURVE",
"732 760 OFFCURVE",
"678 760 CURVE SMOOTH",
"623 760 OFFCURVE",
"566 737 OFFCURVE",
"518 698 CURVE",
"486 717 OFFCURVE",
"453 725 OFFCURVE",
"409 725 CURVE SMOOTH",
"314 725 OFFCURVE",
"210 654 OFFCURVE",
"163 553 CURVE SMOOTH",
"150 525 OFFCURVE",
"134 469 OFFCURVE",
"123 419 CURVE",
"54 362 LINE",
"61 345 LINE",
"111 345 LINE",
"85 125 LINE SMOOTH",
"72 15 OFFCURVE",
"58 -52 OFFCURVE",
"46 -86 CURVE",
"-57 -126 LINE",
"-57 -170 OFFCURVE",
"-39 -204 OFFCURVE",
"-14 -215 CURVE",
"74 -187 OFFCURVE",
"113 -123 OFFCURVE",
"137 -43 CURVE SMOOTH"
);
},
{
closed = 1;
nodes = (
"634 273 OFFCURVE",
"597 117 OFFCURVE",
"597 58 CURVE SMOOTH",
"597 18 OFFCURVE",
"613 1 OFFCURVE",
"632 -10 CURVE",
"771 33 LINE",
"764 71 LINE",
"751 68 OFFCURVE",
"721 64 OFFCURVE",
"707 64 CURVE SMOOTH",
"695 64 OFFCURVE",
"688 70 OFFCURVE",
"688 88 CURVE SMOOTH",
"688 129 OFFCURVE",
"724 273 OFFCURVE",
"724 360 CURVE SMOOTH",
"724 409 OFFCURVE",
"703 433 OFFCURVE",
"686 440 CURVE",
"561 397 LINE",
"568 359 LINE",
"581 362 OFFCURVE",
"600 364 OFFCURVE",
"608 364 CURVE SMOOTH",
"626 364 OFFCURVE",
"634 357 OFFCURVE",
"634 337 CURVE SMOOTH"
);
},
{
closed = 1;
nodes = (
"417 555 OFFCURVE",
"401 504 OFFCURVE",
"389 420 CURVE",
"207 420 LINE",
"212 461 OFFCURVE",
"230 534 OFFCURVE",
"240 560 CURVE SMOOTH",
"267 631 OFFCURVE",
"306 665 OFFCURVE",
"358 665 CURVE",
"455 628 LINE",
"446 615 OFFCURVE",
"438 602 OFFCURVE",
"432 588 CURVE SMOOTH"
);
}
);
width = 789;
}
);
note = f_f_i;
rightKerningGroup = f;
unicode = FB03;
},
{
glyphname = fi;
layers = (
{
layerId = "F0C8EF09-FA88-4A15-9CCE-7A8BC6200D57";
paths = (
{
closed = 1;
nodes = (
"152 -1 OFFCURVE",
"166 62 OFFCURVE",
"180 179 CURVE SMOOTH",
"200 345 LINE",
"231 345 LINE",
"263 363 OFFCURVE",
"285 390 OFFCURVE",
"285 420 CURVE",
"209 420 LINE",
"222 530 OFFCURVE",
"233 569 OFFCURVE",
"243 595 CURVE SMOOTH",
"270 666 OFFCURVE",
"309 700 OFFCURVE",
"361 700 CURVE",
"439 638 LINE",
"484 650 OFFCURVE",
"520 699 OFFCURVE",
"525 725 CURVE",
"497 746 OFFCURVE",
"466 760 OFFCURVE",
"412 760 CURVE SMOOTH",
"317 760 OFFCURVE",
"213 689 OFFCURVE",
"166 588 CURVE SMOOTH",
"151 555 OFFCURVE",
"136 503 OFFCURVE",
"123 418 CURVE",
"55 362 LINE",
"62 345 LINE",
"113 345 LINE",
"87 125 LINE SMOOTH",
"74 15 OFFCURVE",
"60 -52 OFFCURVE",
"48 -86 CURVE",
"-55 -126 LINE",
"-55 -170 OFFCURVE",
"-37 -204 OFFCURVE",
"-12 -215 CURVE",
"76 -187 OFFCURVE",
"115 -123 OFFCURVE",
"139 -43 CURVE SMOOTH"
);
},
{
closed = 1;
nodes = (
"368 273 OFFCURVE",
"331 117 OFFCURVE",
"331 58 CURVE SMOOTH",
"331 18 OFFCURVE",
"347 1 OFFCURVE",
"366 -10 CURVE",
"505 33 LINE",
"498 71 LINE",
"485 68 OFFCURVE",
"455 64 OFFCURVE",
"441 64 CURVE SMOOTH",
"429 64 OFFCURVE",
"422 70 OFFCURVE",
"422 88 CURVE SMOOTH",
"422 129 OFFCURVE",
"458 273 OFFCURVE",
"458 360 CURVE SMOOTH",
"458 409 OFFCURVE",
"437 433 OFFCURVE",
"420 440 CURVE",
"295 397 LINE",
"302 359 LINE",
"315 362 OFFCURVE",
"334 364 OFFCURVE",
"342 364 CURVE SMOOTH",
"360 364 OFFCURVE",
"368 357 OFFCURVE",
"368 337 CURVE SMOOTH"
);
}
);
width = 523;
}
);
note = fi;
unicode = FB01;
},
{
glyphname = fl;
layers = (
{
layerId = "F0C8EF09-FA88-4A15-9CCE-7A8BC6200D57";
paths = (
{
closed = 1;
nodes = (
"400 677 LINE",
"400 597 OFFCURVE",
"321 164 OFFCURVE",
"321 58 CURVE SMOOTH",
"321 18 OFFCURVE",
"337 1 OFFCURVE",
"356 -10 CURVE",
"505 33 LINE",
"498 71 LINE",
"485 68 OFFCURVE",
"445 64 OFFCURVE",
"431 64 CURVE SMOOTH",
"419 64 OFFCURVE",
"412 70 OFFCURVE",
"412 88 CURVE SMOOTH",
"412 173 OFFCURVE",
"498 616 OFFCURVE",
"498 735 CURVE",
"478 750 OFFCURVE",
"446 760 OFFCURVE",
"411 760 CURVE SMOOTH",
"316 760 OFFCURVE",
"212 689 OFFCURVE",
"165 588 CURVE SMOOTH",
"150 555 OFFCURVE",
"134 503 OFFCURVE",
"121 417 CURVE",
"55 362 LINE",
"62 345 LINE",
"112 345 LINE",
"87 125 LINE SMOOTH",
"74 15 OFFCURVE",
"60 -52 OFFCURVE",
"48 -86 CURVE",
"-55 -126 LINE",
"-55 -170 OFFCURVE",
"-37 -204 OFFCURVE",
"-12 -215 CURVE",
"76 -187 OFFCURVE",
"115 -123 OFFCURVE",
"139 -43 CURVE SMOOTH",
"152 -1 OFFCURVE",
"166 62 OFFCURVE",
"180 179 CURVE SMOOTH",
"199 345 LINE",
"271 345 LINE",
"303 363 OFFCURVE",
"325 390 OFFCURVE",
"325 420 CURVE",
"208 420 LINE",
"221 530 OFFCURVE",
"232 569 OFFCURVE",
"242 595 CURVE SMOOTH",
"269 666 OFFCURVE",
"308 700 OFFCURVE",
"360 700 CURVE"
);
}
);
width = 519;
}
);
note = fl;
unicode = FB02;
},
{
glyphname = longs_i;
layers = (
{
layerId = "F0C8EF09-FA88-4A15-9CCE-7A8BC6200D57";
paths = (
{
closed = 1;
nodes = (
"338 273 OFFCURVE",
"301 117 OFFCURVE",
"301 58 CURVE SMOOTH",
"301 18 OFFCURVE",
"317 1 OFFCURVE",
"336 -10 CURVE",
"475 33 LINE",
"468 71 LINE",
"455 68 OFFCURVE",
"425 64 OFFCURVE",
"411 64 CURVE SMOOTH",
"399 64 OFFCURVE",
"392 70 OFFCURVE",
"392 88 CURVE SMOOTH",
"392 129 OFFCURVE",
"428 273 OFFCURVE",
"428 360 CURVE SMOOTH",
"428 409 OFFCURVE",
"407 433 OFFCURVE",
"390 440 CURVE",
"265 397 LINE",
"272 359 LINE",
"285 362 OFFCURVE",
"304 364 OFFCURVE",
"312 364 CURVE SMOOTH",
"330 364 OFFCURVE",
"338 357 OFFCURVE",
"338 337 CURVE SMOOTH"
);
},
{
closed = 1;
nodes = (
"142 -1 OFFCURVE",
"156 62 OFFCURVE",
"170 179 CURVE SMOOTH",
"199 420 LINE SMOOTH",
"212 530 OFFCURVE",
"223 569 OFFCURVE",
"233 595 CURVE SMOOTH",
"260 666 OFFCURVE",
"299 700 OFFCURVE",
"351 700 CURVE",
"429 638 LINE",
"474 650 OFFCURVE",
"510 699 OFFCURVE",
"515 725 CURVE",
"487 746 OFFCURVE",
"456 760 OFFCURVE",
"402 760 CURVE SMOOTH",
"307 760 OFFCURVE",
"203 689 OFFCURVE",
"156 588 CURVE SMOOTH",
"138 549 OFFCURVE",
"120 483 OFFCURVE",
"106 366 CURVE SMOOTH",
"77 125 LINE SMOOTH",
"64 15 OFFCURVE",
"50 -52 OFFCURVE",
"38 -86 CURVE",
"-65 -126 LINE",
"-65 -170 OFFCURVE",
"-47 -204 OFFCURVE",
"-22 -215 CURVE",
"66 -187 OFFCURVE",
"105 -123 OFFCURVE",
"129 -43 CURVE SMOOTH"
);
}
);
width = 493;
}
);
note = longs_i;
},
{
glyphname = longs_l;
layers = (
{
layerId = "F0C8EF09-FA88-4A15-9CCE-7A8BC6200D57";
paths = (
{
closed = 1;
nodes = (
"390 677 LINE",
"390 597 OFFCURVE",
"311 164 OFFCURVE",
"311 58 CURVE SMOOTH",
"311 18 OFFCURVE",
"327 1 OFFCURVE",
"346 -10 CURVE",
"495 33 LINE",
"488 71 LINE",
"475 68 OFFCURVE",
"435 64 OFFCURVE",
"421 64 CURVE SMOOTH",
"409 64 OFFCURVE",
"402 70 OFFCURVE",
"402 88 CURVE SMOOTH",
"402 173 OFFCURVE",
"488 616 OFFCURVE",
"488 735 CURVE",
"468 750 OFFCURVE",
"436 760 OFFCURVE",
"401 760 CURVE SMOOTH",
"306 760 OFFCURVE",
"202 689 OFFCURVE",
"155 588 CURVE SMOOTH",
"137 549 OFFCURVE",
"119 483 OFFCURVE",
"105 366 CURVE SMOOTH",
"77 125 LINE SMOOTH",
"64 15 OFFCURVE",
"50 -52 OFFCURVE",
"38 -86 CURVE",
"-65 -126 LINE",
"-65 -170 OFFCURVE",
"-47 -204 OFFCURVE",
"-22 -215 CURVE",
"66 -187 OFFCURVE",
"105 -123 OFFCURVE",
"129 -43 CURVE SMOOTH",
"142 -1 OFFCURVE",
"156 62 OFFCURVE",
"170 179 CURVE SMOOTH",
"198 420 LINE SMOOTH",
"211 530 OFFCURVE",
"222 569 OFFCURVE",
"232 595 CURVE SMOOTH",
"259 666 OFFCURVE",
"298 700 OFFCURVE",
"350 700 CURVE"
);
}
);
width = 509;
}
);
note = longs_l;
},
{
glyphname = longs_longs;
layers = (
{
layerId = "F0C8EF09-FA88-4A15-9CCE-7A8BC6200D57";
paths = (
{
closed = 1;
nodes = (
"140 -1 OFFCURVE",
"154 62 OFFCURVE",
"168 179 CURVE SMOOTH",
"197 420 LINE SMOOTH",
"202 461 OFFCURVE",
"220 534 OFFCURVE",
"230 560 CURVE SMOOTH",
"257 631 OFFCURVE",
"296 665 OFFCURVE",
"348 665 CURVE",
"445 628 LINE",
"436 615 OFFCURVE",
"428 602 OFFCURVE",
"422 588 CURVE SMOOTH",
"404 549 OFFCURVE",
"386 483 OFFCURVE",
"372 366 CURVE SMOOTH",
"347 158 LINE SMOOTH",
"334 48 OFFCURVE",
"320 -19 OFFCURVE",
"308 -53 CURVE",
"205 -93 LINE",
"205 -137 OFFCURVE",
"223 -171 OFFCURVE",
"248 -182 CURVE",
"336 -154 OFFCURVE",
"375 -90 OFFCURVE",
"399 -10 CURVE SMOOTH",
"412 32 OFFCURVE",
"426 95 OFFCURVE",
"440 212 CURVE SMOOTH",
"465 420 LINE SMOOTH",
"478 530 OFFCURVE",
"489 569 OFFCURVE",
"499 595 CURVE SMOOTH",
"526 666 OFFCURVE",
"565 700 OFFCURVE",
"617 700 CURVE",
"710 662 LINE",
"733 678 OFFCURVE",
"752 714 OFFCURVE",
"757 740 CURVE",
"735 756 OFFCURVE",
"694 760 OFFCURVE",
"668 760 CURVE SMOOTH",
"613 760 OFFCURVE",
"556 737 OFFCURVE",
"508 698 CURVE",
"476 717 OFFCURVE",
"443 725 OFFCURVE",
"399 725 CURVE SMOOTH",
"304 725 OFFCURVE",
"200 654 OFFCURVE",
"153 553 CURVE SMOOTH",
"135 514 OFFCURVE",
"111 420 OFFCURVE",
"104 366 CURVE SMOOTH",
"75 125 LINE SMOOTH",
"62 15 OFFCURVE",
"48 -52 OFFCURVE",
"36 -86 CURVE",
"-67 -126 LINE",
"-67 -170 OFFCURVE",
"-49 -204 OFFCURVE",
"-24 -215 CURVE",
"64 -187 OFFCURVE",
"103 -123 OFFCURVE",
"127 -43 CURVE SMOOTH"
);
}
);
width = 524;
}
);
note = longs_longs;
},
{
glyphname = zero;
layers = (
{
layerId = "F0C8EF09-FA88-4A15-9CCE-7A8BC6200D57";
paths = (
{
closed = 1;
nodes = (
"55 84 OFFCURVE",
"120 -19 OFFCURVE",
"244 -19 CURVE SMOOTH",
"362 -19 OFFCURVE",
"491 86 OFFCURVE",
"491 281 CURVE SMOOTH",
"491 412 OFFCURVE",
"411 490 OFFCURVE",
"311 490 CURVE SMOOTH",
"159 490 OFFCURVE",
"55 359 OFFCURVE",
"55 194 CURVE SMOOTH"
);
},
{
closed = 1;
nodes = (
"331 440 OFFCURVE",
"382 372 OFFCURVE",
"382 235 CURVE SMOOTH",
"382 104 OFFCURVE",
"323 34 OFFCURVE",
"272 34 CURVE SMOOTH",
"211 34 OFFCURVE",
"167 93 OFFCURVE",
"167 223 CURVE SMOOTH",
"167 376 OFFCURVE",
"234 440 OFFCURVE",
"283 440 CURVE SMOOTH"
);
}
);
width = 536;
}
);
note = zero;
unicode = 0030;
},
{
glyphname = one;
layers = (
{
layerId = "F0C8EF09-FA88-4A15-9CCE-7A8BC6200D57";
paths = (
{
closed = 1;
nodes = (
"63 -8 LINE",
"96 -3 OFFCURVE",
"175 0 OFFCURVE",
"199 0 CURVE SMOOTH",
"226 0 OFFCURVE",
"310 -2 OFFCURVE",
"351 -8 CURVE",
"352 39 LINE",
"321 45 OFFCURVE",
"292 58 OFFCURVE",
"269 74 CURVE",
"272 130 OFFCURVE",
"279 188 OFFCURVE",
"287 247 CURVE SMOOTH",
"295 302 OFFCURVE",
"313 391 OFFCURVE",
"338 480 CURVE",
"290 490 LINE",
"255 452 OFFCURVE",
"162 419 OFFCURVE",
"104 410 CURVE",
"104 362 LINE",
"196 362 LINE",
"193 317 OFFCURVE",
"190 275 OFFCURVE",
"185 235 CURVE SMOOTH",
"179 191 OFFCURVE",
"172 135 OFFCURVE",
"160 82 CURVE",
"141 60 OFFCURVE",
"100 41 OFFCURVE",
"60 33 CURVE"
);
}
);
width = 438;
}
);
note = one;
unicode = 0031;
},
{
glyphname = two;
layers = (
{
layerId = "F0C8EF09-FA88-4A15-9CCE-7A8BC6200D57";
paths = (
{
closed = 1;
nodes = (
"135 350 LINE",
"193 391 OFFCURVE",
"240 412 OFFCURVE",
"292 412 CURVE SMOOTH",
"342 412 OFFCURVE",
"359 388 OFFCURVE",
"359 357 CURVE SMOOTH",
"359 283 OFFCURVE",
"234 182 OFFCURVE",
"45 45 CURVE",
"55 -11 LINE",
"105 -3 OFFCURVE",
"178 0 OFFCURVE",
"230 0 CURVE SMOOTH",
"302 0 OFFCURVE",
"377 -4 OFFCURVE",
"423 -9 CURVE",
"482 123 LINE",
"452 144 LINE",
"401 100 LINE",
"370 94 OFFCURVE",
"333 90 OFFCURVE",
"303 90 CURVE SMOOTH",
"261 90 OFFCURVE",
"220 93 OFFCURVE",
"196 97 CURVE",
"324 173 OFFCURVE",
"466 272 OFFCURVE",
"466 380 CURVE SMOOTH",
"466 440 OFFCURVE",
"422 490 OFFCURVE",
"328 490 CURVE SMOOTH",
"222 490 OFFCURVE",
"170 442 OFFCURVE",
"112 392 CURVE"
);
}
);
width = 534;
}
);
note = two;
unicode = 0032;
},
{
glyphname = three;
layers = (
{
layerId = "F0C8EF09-FA88-4A15-9CCE-7A8BC6200D57";
paths = (
{
closed = 1;
nodes = (
"19 -186 LINE",
"66 -213 OFFCURVE",
"104 -219 OFFCURVE",
"146 -219 CURVE SMOOTH",
"284 -219 OFFCURVE",
"434 -111 OFFCURVE",
"434 86 CURVE SMOOTH",
"434 184 OFFCURVE",
"377 239 OFFCURVE",
"320 262 CURVE",
"486 446 LINE",
"475 470 LINE",
"211 470 LINE",
"163 488 LINE",
"92 368 LINE",
"119 350 LINE",
"189 390 LINE",
"355 390 LINE",
"205 207 LINE",
"209 182 LINE",
"279 157 OFFCURVE",
"318 113 OFFCURVE",
"318 40 CURVE SMOOTH",
"318 -57 OFFCURVE",
"247 -152 OFFCURVE",
"138 -152 CURVE SMOOTH",
"120 -152 OFFCURVE",
"78 -145 OFFCURVE",
"43 -134 CURVE"
);
}
);
width = 500;
}
);
note = three;
unicode = 0033;
},
{
glyphname = four;
layers = (
{
layerId = "F0C8EF09-FA88-4A15-9CCE-7A8BC6200D57";
paths = (
{
closed = 1;
nodes = (
"401 490 LINE",
"55 25 LINE",
"72 0 LINE",
"276 0 LINE",
"267 -58 OFFCURVE",
"259 -114 OFFCURVE",
"253 -159 CURVE",
"274 -169 LINE",
"290 -160 OFFCURVE",
"317 -159 OFFCURVE",
"344 -159 CURVE",
"351 -106 OFFCURVE",
"358 -54 OFFCURVE",
"366 -4 CURVE",
"400 -9 OFFCURVE",
"427 -17 OFFCURVE",
"446 -29 CURVE",
"461 -28 LINE",
"518 64 LINE",
"502 78 LINE",
"437 62 LINE",
"376 62 LINE",
"401 222 OFFCURVE",
"427 363 OFFCURVE",
"454 465 CURVE"
);
},
{
closed = 1;
nodes = (
"345 341 LINE",
"326 284 OFFCURVE",
"305 173 OFFCURVE",
"286 62 CURVE",
"144 62 LINE"
);
}
);
width = 563;
}
);
note = four;
unicode = 0034;
},
{
glyphname = five;
layers = (
{
layerId = "F0C8EF09-FA88-4A15-9CCE-7A8BC6200D57";
paths = (
{
closed = 1;
nodes = (
"-5 -167 LINE",
"32 -205 OFFCURVE",
"88 -219 OFFCURVE",
"130 -219 CURVE SMOOTH",
"268 -219 OFFCURVE",
"418 -91 OFFCURVE",
"418 74 CURVE SMOOTH",
"418 190 OFFCURVE",
"360 272 OFFCURVE",
"192 293 CURVE",
"229 381 LINE",
"262 375 OFFCURVE",
"292 372 OFFCURVE",
"319 372 CURVE SMOOTH",
"397 372 OFFCURVE",
"452 397 OFFCURVE",
"490 441 CURVE",
"479 486 LINE",
"430 470 OFFCURVE",
"386 470 OFFCURVE",
"217 470 CURVE",
"94 215 LINE",
"98 190 LINE",
"277 179 OFFCURVE",
"302 116 OFFCURVE",
"302 43 CURVE SMOOTH",
"302 -83 OFFCURVE",
"221 -153 OFFCURVE",
"130 -153 CURVE SMOOTH",
"94 -153 OFFCURVE",
"62 -143 OFFCURVE",
"31 -123 CURVE"
);
}
);
width = 515;
}
);
note = five;
unicode = 0035;
},
{
glyphname = six;
layers = (
{
layerId = "F0C8EF09-FA88-4A15-9CCE-7A8BC6200D57";
paths = (
{
closed = 1;
nodes = (
"519 710 LINE",
"260 661 OFFCURVE",
"72 464 OFFCURVE",
"72 226 CURVE SMOOTH",
"72 83 OFFCURVE",
"142 -19 OFFCURVE",
"266 -19 CURVE SMOOTH",
"382 -19 OFFCURVE",
"514 64 OFFCURVE",
"514 241 CURVE SMOOTH",
"514 342 OFFCURVE",
"450 408 OFFCURVE",
"372 408 CURVE SMOOTH",
"323 408 OFFCURVE",
"264 384 OFFCURVE",
"224 352 CURVE",
"235 313 LINE",
"250 319 OFFCURVE",
"273 324 OFFCURVE",
"295 324 CURVE SMOOTH",
"366 324 OFFCURVE",
"412 286 OFFCURVE",
"412 205 CURVE SMOOTH",
"412 125 OFFCURVE",
"365 46 OFFCURVE",
"291 46 CURVE SMOOTH",
"218 46 OFFCURVE",
"182 113 OFFCURVE",
"182 236 CURVE SMOOTH",
"182 453 OFFCURVE",
"350 594 OFFCURVE",
"535 660 CURVE"
);
}
);
width = 555;
}
);
note = six;
unicode = 0036;
},
{
glyphname = seven;
layers = (
{
layerId = "F0C8EF09-FA88-4A15-9CCE-7A8BC6200D57";
paths = (
{
closed = 1;
nodes = (
"187 -181 OFFCURVE",
"203 -175 OFFCURVE",
"217 -170 CURVE",
"249 21 OFFCURVE",
"324 192 OFFCURVE",
"509 445 CURVE",
"486 470 LINE",
"204 470 LINE",
"150 487 LINE",
"79 349 LINE",
"111 326 LINE",
"152 368 LINE",
"184 374 OFFCURVE",
"225 377 OFFCURVE",
"278 377 CURVE SMOOTH",
"325 377 OFFCURVE",
"373 374 OFFCURVE",
"405 368 CURVE",
"264 212 OFFCURVE",
"128 -23 OFFCURVE",
"90 -170 CURVE",
"109 -176 OFFCURVE",
"137 -181 OFFCURVE",
"163 -181 CURVE SMOOTH"
);
}
);
width = 484;
}
);
note = seven;
unicode = 0037;
},
{
glyphname = eight;
layers = (
{
layerId = "F0C8EF09-FA88-4A15-9CCE-7A8BC6200D57";
paths = (
{
closed = 1;
nodes = (
"269 709 OFFCURVE",
"159 642 OFFCURVE",
"159 530 CURVE SMOOTH",
"159 462 OFFCURVE",
"196 416 OFFCURVE",
"242 376 CURVE",
"153 312 OFFCURVE",
"84 241 OFFCURVE",
"84 145 CURVE SMOOTH",
"84 67 OFFCURVE",
"129 -18 OFFCURVE",
"256 -18 CURVE SMOOTH",
"379 -18 OFFCURVE",
"506 80 OFFCURVE",
"506 208 CURVE SMOOTH",
"506 304 OFFCURVE",
"446 357 OFFCURVE",
"386 402 CURVE",
"454 443 OFFCURVE",
"521 509 OFFCURVE",
"521 581 CURVE SMOOTH",
"521 649 OFFCURVE",
"464 709 OFFCURVE",
"371 709 CURVE SMOOTH"
);
},
{
closed = 1;
nodes = (
"402 86 OFFCURVE",
"336 31 OFFCURVE",
"269 31 CURVE SMOOTH",
"197 31 OFFCURVE",
"171 89 OFFCURVE",
"171 154 CURVE SMOOTH",
"171 206 OFFCURVE",
"197 278 OFFCURVE",
"275 349 CURVE",
"338 300 OFFCURVE",
"402 253 OFFCURVE",
"402 173 CURVE SMOOTH"
);
},
{
closed = 1;
nodes = (
"265 629 OFFCURVE",
"315 660 OFFCURVE",
"357 660 CURVE SMOOTH",
"413 660 OFFCURVE",
"445 621 OFFCURVE",
"445 568 CURVE SMOOTH",
"445 515 OFFCURVE",
"408 463 OFFCURVE",
"352 428 CURVE",
"305 464 OFFCURVE",
"265 501 OFFCURVE",
"265 556 CURVE SMOOTH"
);
}
);
width = 547;
}
);
note = eight;
unicode = 0038;
},
{
glyphname = nine;
layers = (
{
layerId = "F0C8EF09-FA88-4A15-9CCE-7A8BC6200D57";
paths = (
{
closed = 1;
nodes = (
"65 -239 LINE",
"332 -183 OFFCURVE",
"511 0 OFFCURVE",
"511 241 CURVE SMOOTH",
"511 345 OFFCURVE",
"475 490 OFFCURVE",
"314 490 CURVE SMOOTH",
"213 490 OFFCURVE",
"70 400 OFFCURVE",
"70 227 CURVE SMOOTH",
"70 133 OFFCURVE",
"122 53 OFFCURVE",
"200 53 CURVE SMOOTH",
"249 53 OFFCURVE",
"309 77 OFFCURVE",
"348 109 CURVE",
"338 148 LINE",
"323 142 OFFCURVE",
"299 137 OFFCURVE",
"277 137 CURVE SMOOTH",
"206 137 OFFCURVE",
"172 193 OFFCURVE",
"172 267 CURVE SMOOTH",
"172 349 OFFCURVE",
"225 425 OFFCURVE",
"299 425 CURVE SMOOTH",
"372 425 OFFCURVE",
"400 341 OFFCURVE",
"400 251 CURVE SMOOTH",
"400 7 OFFCURVE",
"221 -130 OFFCURVE",
"49 -189 CURVE"
);
}
);
width = 554;
}
);
note = nine;
unicode = 0039;
},
{
glyphname = zero.lf;
layers = (
{
layerId = "F0C8EF09-FA88-4A15-9CCE-7A8BC6200D57";
paths = (
{
closed = 1;
nodes = (
"73 114 OFFCURVE",
"135 -19 OFFCURVE",
"258 -19 CURVE SMOOTH",
"375 -19 OFFCURVE",
"535 136 OFFCURVE",
"535 451 CURVE SMOOTH",
"535 609 OFFCURVE",
"457 710 OFFCURVE",
"357 710 CURVE SMOOTH",
"206 710 OFFCURVE",
"73 530 OFFCURVE",
"73 263 CURVE SMOOTH"
);
},
{
closed = 1;
nodes = (
"368 651 OFFCURVE",
"423 567 OFFCURVE",
"423 375 CURVE SMOOTH",
"423 138 OFFCURVE",
"340 44 OFFCURVE",
"288 44 CURVE SMOOTH",
"227 44 OFFCURVE",
"185 125 OFFCURVE",
"185 279 CURVE SMOOTH",
"185 529 OFFCURVE",
"263 651 OFFCURVE",
"321 651 CURVE SMOOTH"
);
}
);
width = 565;
}
);
note = zero.lf;
},
{
glyphname = one.lf;
layers = (
{
layerId = "F0C8EF09-FA88-4A15-9CCE-7A8BC6200D57";
paths = (
{
closed = 1;
nodes = (
"73 -8 LINE",
"107 -3 OFFCURVE",
"186 0 OFFCURVE",
"210 0 CURVE SMOOTH",
"237 0 OFFCURVE",
"321 -2 OFFCURVE",
"361 -8 CURVE",
"363 39 LINE",
"329 45 OFFCURVE",
"296 61 OFFCURVE",
"273 79 CURVE",
"278 155 OFFCURVE",
"291 262 OFFCURVE",
"305 367 CURVE SMOOTH",
"325 504 OFFCURVE",
"347 611 OFFCURVE",
"372 700 CURVE",
"325 710 LINE",
"289 672 OFFCURVE",
"196 639 OFFCURVE",
"138 630 CURVE",
"138 582 LINE",
"230 582 LINE",
"226 517 OFFCURVE",
"225 471 OFFCURVE",
"209 355 CURVE SMOOTH",
"194 253 OFFCURVE",
"177 144 OFFCURVE",
"160 72 CURVE",
"138 54 OFFCURVE",
"103 40 OFFCURVE",
"71 33 CURVE"
);
}
);
width = 438;
}
);
note = one.lf;
},
{
glyphname = two.lf;
layers = (
{
layerId = "F0C8EF09-FA88-4A15-9CCE-7A8BC6200D57";
paths = (
{
closed = 1;
nodes = (
"190 512 LINE",
"229 566 OFFCURVE",
"275 622 OFFCURVE",
"333 622 CURVE SMOOTH",
"394 622 OFFCURVE",
"409 579 OFFCURVE",
"409 538 CURVE SMOOTH",
"409 411 OFFCURVE",
"223 204 OFFCURVE",
"47 45 CURVE",
"57 -11 LINE",
"107 -3 OFFCURVE",
"199 0 OFFCURVE",
"251 0 CURVE SMOOTH",
"323 0 OFFCURVE",
"385 -4 OFFCURVE",
"430 -9 CURVE",
"504 123 LINE",
"474 144 LINE",
"427 97 LINE",
"388 93 OFFCURVE",
"337 90 OFFCURVE",
"299 90 CURVE SMOOTH",
"245 90 OFFCURVE",
"193 92 OFFCURVE",
"163 95 CURVE",
"249 166 OFFCURVE",
"524 383 OFFCURVE",
"524 562 CURVE SMOOTH",
"524 638 OFFCURVE",
"463 710 OFFCURVE",
"369 710 CURVE SMOOTH",
"241 710 OFFCURVE",
"175 602 OFFCURVE",
"149 535 CURVE"
);
}
);
width = 557;
}
);
note = two.lf;
},
{
glyphname = three.lf;
layers = (
{
layerId = "F0C8EF09-FA88-4A15-9CCE-7A8BC6200D57";
paths = (
{
closed = 1;
nodes = (
"62 33 LINE",
"100 -5 OFFCURVE",
"156 -19 OFFCURVE",
"198 -19 CURVE SMOOTH",
"336 -19 OFFCURVE",
"497 116 OFFCURVE",
"497 287 CURVE SMOOTH",
"497 395 OFFCURVE",
"435 450 OFFCURVE",
"375 482 CURVE",
"542 676 LINE",
"531 700 LINE",
"267 700 LINE",
"219 718 LINE",
"148 598 LINE",
"175 580 LINE",
"246 620 LINE",
"425 620 LINE",
"259 427 LINE",
"264 402 LINE",
"339 382 OFFCURVE",
"383 332 OFFCURVE",
"383 251 CURVE SMOOTH",
"383 126 OFFCURVE",
"289 44 OFFCURVE",
"198 44 CURVE SMOOTH",
"162 44 OFFCURVE",
"130 55 OFFCURVE",
"99 77 CURVE"
);
}
);
width = 578;
}
);
note = three.lf;
},
{
glyphname = four.lf;
layers = (
{
layerId = "F0C8EF09-FA88-4A15-9CCE-7A8BC6200D57";
paths = (
{
closed = 1;
nodes = (
"391 710 LINE",
"40 213 LINE",
"58 188 LINE",
"260 188 LINE",
"244 80 LINE",
"220 59 OFFCURVE",
"162 39 OFFCURVE",
"126 31 CURVE",
"127 -10 LINE",
"162 -5 OFFCURVE",
"229 0 OFFCURVE",
"274 0 CURVE SMOOTH",
"316 0 OFFCURVE",
"415 -5 OFFCURVE",
"455 -11 CURVE",
"457 32 LINE",
"412 40 OFFCURVE",
"364 56 OFFCURVE",
"334 73 CURVE",
"350 183 LINE",
"385 179 OFFCURVE",
"413 171 OFFCURVE",
"432 159 CURVE",
"447 160 LINE",
"504 252 LINE",
"488 266 LINE",
"453 250 LINE",
"360 250 LINE",
"387 422 OFFCURVE",
"416 579 OFFCURVE",
"445 685 CURVE"
);
},
{
closed = 1;
nodes = (
"334 549 LINE",
"314 489 OFFCURVE",
"290 368 OFFCURVE",
"271 250 CURVE",
"130 250 LINE"
);
}
);
width = 548;
}
);
note = four.lf;
},
{
glyphname = five.lf;
layers = (
{
layerId = "F0C8EF09-FA88-4A15-9CCE-7A8BC6200D57";
paths = (
{
closed = 1;
nodes = (
"45 33 LINE",
"83 -5 OFFCURVE",
"139 -19 OFFCURVE",
"181 -19 CURVE SMOOTH",
"319 -19 OFFCURVE",
"470 114 OFFCURVE",
"470 288 CURVE SMOOTH",
"470 412 OFFCURVE",
"404 501 OFFCURVE",
"247 523 CURVE",
"284 611 LINE",
"317 605 OFFCURVE",
"347 602 OFFCURVE",
"374 602 CURVE SMOOTH",
"453 602 OFFCURVE",
"508 627 OFFCURVE",
"545 671 CURVE",
"534 716 LINE",
"485 700 OFFCURVE",
"441 700 OFFCURVE",
"272 700 CURVE",
"149 445 LINE",
"154 420 LINE",
"332 409 OFFCURVE",
"355 322 OFFCURVE",
"355 250 CURVE SMOOTH",
"355 122 OFFCURVE",
"272 44 OFFCURVE",
"181 44 CURVE SMOOTH",
"145 44 OFFCURVE",
"113 55 OFFCURVE",
"82 77 CURVE"
);
}
);
width = 561;
}
);
note = five.lf;
},
{
glyphname = six.lf;
layers = (
{
layerId = "F0C8EF09-FA88-4A15-9CCE-7A8BC6200D57";
paths = (
{
closed = 1;
nodes = (
"533 710 LINE",
"274 661 OFFCURVE",
"86 464 OFFCURVE",
"86 226 CURVE SMOOTH",
"86 83 OFFCURVE",
"156 -19 OFFCURVE",
"280 -19 CURVE SMOOTH",
"396 -19 OFFCURVE",
"528 64 OFFCURVE",
"528 241 CURVE SMOOTH",
"528 342 OFFCURVE",
"464 408 OFFCURVE",
"386 408 CURVE SMOOTH",
"337 408 OFFCURVE",
"278 384 OFFCURVE",
"238 352 CURVE",
"249 313 LINE",
"264 319 OFFCURVE",
"287 324 OFFCURVE",
"309 324 CURVE SMOOTH",
"380 324 OFFCURVE",
"426 286 OFFCURVE",
"426 205 CURVE SMOOTH",
"426 125 OFFCURVE",
"379 46 OFFCURVE",
"305 46 CURVE SMOOTH",
"232 46 OFFCURVE",
"196 113 OFFCURVE",
"196 236 CURVE SMOOTH",
"196 453 OFFCURVE",
"364 594 OFFCURVE",
"549 660 CURVE"
);
}
);
width = 584;
}
);
note = six.lf;
},
{
glyphname = seven.lf;
layers = (
{
layerId = "F0C8EF09-FA88-4A15-9CCE-7A8BC6200D57";
paths = (
{
closed = 1;
nodes = (
"235 -11 OFFCURVE",
"252 -5 OFFCURVE",
"266 0 CURVE",
"298 191 OFFCURVE",
"390 401 OFFCURVE",
"566 675 CURVE",
"543 700 LINE",
"261 700 LINE",
"208 717 LINE",
"136 579 LINE",
"168 556 LINE",
"209 598 LINE",
"241 604 OFFCURVE",
"282 607 OFFCURVE",
"335 607 CURVE SMOOTH",
"382 607 OFFCURVE",
"430 604 OFFCURVE",
"462 598 CURVE",
"336 442 OFFCURVE",
"177 147 OFFCURVE",
"139 0 CURVE",
"158 -6 OFFCURVE",
"185 -11 OFFCURVE",
"211 -11 CURVE SMOOTH"
);
}
);
width = 561;
}
);
note = seven.lf;
},
{
glyphname = eight.lf;
layers = (
{
layerId = "F0C8EF09-FA88-4A15-9CCE-7A8BC6200D57";
paths = (
{
closed = 1;
nodes = (
"257 709 OFFCURVE",
"147 642 OFFCURVE",
"147 530 CURVE SMOOTH",
"147 462 OFFCURVE",
"184 416 OFFCURVE",
"230 376 CURVE",
"141 312 OFFCURVE",
"72 241 OFFCURVE",
"72 145 CURVE SMOOTH",
"72 67 OFFCURVE",
"117 -18 OFFCURVE",
"244 -18 CURVE SMOOTH",
"367 -18 OFFCURVE",
"494 80 OFFCURVE",
"494 208 CURVE SMOOTH",
"494 304 OFFCURVE",
"434 357 OFFCURVE",
"374 402 CURVE",
"442 443 OFFCURVE",
"509 509 OFFCURVE",
"509 581 CURVE SMOOTH",
"509 649 OFFCURVE",
"452 709 OFFCURVE",
"359 709 CURVE SMOOTH"
);
},
{
closed = 1;
nodes = (
"390 86 OFFCURVE",
"324 31 OFFCURVE",
"257 31 CURVE SMOOTH",
"185 31 OFFCURVE",
"159 89 OFFCURVE",
"159 154 CURVE SMOOTH",
"159 206 OFFCURVE",
"185 278 OFFCURVE",
"263 349 CURVE",
"326 300 OFFCURVE",
"390 253 OFFCURVE",
"390 173 CURVE SMOOTH"
);
},
{
closed = 1;
nodes = (
"253 629 OFFCURVE",
"303 660 OFFCURVE",
"345 660 CURVE SMOOTH",
"401 660 OFFCURVE",
"433 621 OFFCURVE",
"433 568 CURVE SMOOTH",
"433 515 OFFCURVE",
"396 463 OFFCURVE",
"340 428 CURVE",
"293 464 OFFCURVE",
"253 501 OFFCURVE",
"253 556 CURVE SMOOTH"
);
}
);
width = 565;
}
);
note = eight.lf;
},
{
glyphname = nine.lf;
layers = (
{
layerId = "F0C8EF09-FA88-4A15-9CCE-7A8BC6200D57";
paths = (
{
closed = 1;
nodes = (
"110 -19 LINE",
"377 37 OFFCURVE",
"556 218 OFFCURVE",
"556 460 CURVE SMOOTH",
"556 561 OFFCURVE",
"520 710 OFFCURVE",
"359 710 CURVE SMOOTH",
"258 710 OFFCURVE",
"114 622 OFFCURVE",
"114 433 CURVE SMOOTH",
"114 351 OFFCURVE",
"167 273 OFFCURVE",
"254 273 CURVE SMOOTH",
"294 273 OFFCURVE",
"354 297 OFFCURVE",
"393 329 CURVE",
"383 368 LINE",
"368 362 OFFCURVE",
"344 357 OFFCURVE",
"322 357 CURVE SMOOTH",
"251 357 OFFCURVE",
"217 420 OFFCURVE",
"217 481 CURVE SMOOTH",
"217 567 OFFCURVE",
"270 645 OFFCURVE",
"344 645 CURVE SMOOTH",
"417 645 OFFCURVE",
"446 575 OFFCURVE",
"446 470 CURVE SMOOTH",
"446 225 OFFCURVE",
"291 84 OFFCURVE",
"94 31 CURVE"
);
}
);
width = 584;
}
);
note = nine.lf;
},
{
glyphname = period;
layers = (
{
layerId = "F0C8EF09-FA88-4A15-9CCE-7A8BC6200D57";
paths = (
{
closed = 1;
nodes = (
"50 8 OFFCURVE",
"74 -20 OFFCURVE",
"110 -20 CURVE SMOOTH",
"146 -20 OFFCURVE",
"179 12 OFFCURVE",
"179 54 CURVE SMOOTH",
"179 88 OFFCURVE",
"154 116 OFFCURVE",
"118 116 CURVE SMOOTH",
"82 116 OFFCURVE",
"50 84 OFFCURVE",
"50 43 CURVE SMOOTH"
);
}
);
width = 229;
}
);
leftKerningGroup = comma;
note = period;
rightKerningGroup = comma;
unicode = 002E;
},
{
glyphname = comma;
layers = (
{
layerId = "F0C8EF09-FA88-4A15-9CCE-7A8BC6200D57";
paths = (
{
closed = 1;
nodes = (
"40 82 LINE",
"40 45 LINE",
"70 30 OFFCURVE",
"93 -2 OFFCURVE",
"93 -36 CURVE SMOOTH",
"93 -67 OFFCURVE",
"82 -107 OFFCURVE",
"61 -133 CURVE",
"86 -153 LINE",
"134 -121 OFFCURVE",
"197 -33 OFFCURVE",
"197 24 CURVE SMOOTH",
"197 62 OFFCURVE",
"171 103 OFFCURVE",
"122 124 CURVE"
);
}
);
width = 247;
}
);
leftKerningGroup = comma;
note = comma;
rightKerningGroup = comma;
unicode = 002C;
},
{
glyphname = colon;
layers = (
{
layerId = "F0C8EF09-FA88-4A15-9CCE-7A8BC6200D57";
paths = (
{
closed = 1;
nodes = (
"40 8 OFFCURVE",
"64 -20 OFFCURVE",
"100 -20 CURVE SMOOTH",
"136 -20 OFFCURVE",
"169 12 OFFCURVE",
"169 54 CURVE SMOOTH",
"169 88 OFFCURVE",
"144 116 OFFCURVE",
"108 116 CURVE SMOOTH",
"72 116 OFFCURVE",
"40 84 OFFCURVE",
"40 43 CURVE SMOOTH"
);
},
{
closed = 1;
nodes = (
"74 271 OFFCURVE",
"98 243 OFFCURVE",
"134 243 CURVE SMOOTH",
"170 243 OFFCURVE",
"203 275 OFFCURVE",
"203 317 CURVE SMOOTH",
"203 351 OFFCURVE",
"178 379 OFFCURVE",
"142 379 CURVE SMOOTH",
"106 379 OFFCURVE",
"74 347 OFFCURVE",
"74 306 CURVE SMOOTH"
);
}
);
width = 229;
}
);
note = colon;
unicode = 003A;
},
{
glyphname = semicolon;
layers = (
{
layerId = "F0C8EF09-FA88-4A15-9CCE-7A8BC6200D57";
paths = (
{
closed = 1;
nodes = (
"60 271 OFFCURVE",
"84 243 OFFCURVE",
"120 243 CURVE SMOOTH",
"156 243 OFFCURVE",
"189 275 OFFCURVE",
"189 317 CURVE SMOOTH",
"189 351 OFFCURVE",
"164 379 OFFCURVE",
"128 379 CURVE SMOOTH",
"92 379 OFFCURVE",
"60 347 OFFCURVE",
"60 306 CURVE SMOOTH"
);
},
{
closed = 1;
nodes = (
"20 82 LINE",
"20 45 LINE",
"50 30 OFFCURVE",
"73 -2 OFFCURVE",
"73 -36 CURVE SMOOTH",
"73 -67 OFFCURVE",
"63 -98 OFFCURVE",
"41 -119 CURVE",
"75 -149 LINE",
"142 -112 OFFCURVE",
"177 -39 OFFCURVE",
"177 9 CURVE SMOOTH",
"177 56 OFFCURVE",
"151 103 OFFCURVE",
"102 124 CURVE"
);
}
);
width = 229;
}
);
note = semicolon;
unicode = 003B;
},
{
glyphname = exclam;
layers = (
{
layerId = "F0C8EF09-FA88-4A15-9CCE-7A8BC6200D57";
paths = (
{
closed = 1;
nodes = (
"335 709 LINE",
"180 650 LINE",
"175 613 LINE",
"221 584 LINE",
"190 161 LINE",
"232 161 LINE",
"264 350 OFFCURVE",
"317 570 OFFCURVE",
"358 687 CURVE"
);
},
{
closed = 1;
nodes = (
"133 8 OFFCURVE",
"157 -20 OFFCURVE",
"193 -20 CURVE SMOOTH",
"229 -20 OFFCURVE",
"262 12 OFFCURVE",
"262 54 CURVE SMOOTH",
"262 88 OFFCURVE",
"237 116 OFFCURVE",
"201 116 CURVE SMOOTH",
"165 116 OFFCURVE",
"133 84 OFFCURVE",
"133 43 CURVE SMOOTH"
);
}
);
width = 406;
}
);
note = exclam;
unicode = 0021;
},
{
glyphname = question;
layers = (
{
layerId = "F0C8EF09-FA88-4A15-9CCE-7A8BC6200D57";
paths = (
{
closed = 1;
nodes = (
"112 498 LINE",
"148 492 LINE",
"191 575 OFFCURVE",
"251 611 OFFCURVE",
"312 611 CURVE SMOOTH",
"365 611 OFFCURVE",
"417 572 OFFCURVE",
"405 485 CURVE SMOOTH",
"393 406 OFFCURVE",
"349 373 OFFCURVE",
"263 373 CURVE SMOOTH",
"246 373 OFFCURVE",
"228 374 OFFCURVE",
"208 377 CURVE",
"190 351 LINE",
"205 306 OFFCURVE",
"212 243 OFFCURVE",
"211 159 CURVE",
"246 159 LINE",
"257 205 OFFCURVE",
"276 260 OFFCURVE",
"295 285 CURVE",
"386 285 OFFCURVE",
"491 349 OFFCURVE",
"507 460 CURVE SMOOTH",
"524 584 OFFCURVE",
"420 654 OFFCURVE",
"322 654 CURVE SMOOTH",
"256 654 OFFCURVE",
"201 638 OFFCURVE",
"136 596 CURVE"
);
},
{
closed = 1;
nodes = (
"150 8 OFFCURVE",
"174 -20 OFFCURVE",
"210 -20 CURVE SMOOTH",
"246 -20 OFFCURVE",
"279 12 OFFCURVE",
"279 54 CURVE SMOOTH",
"279 88 OFFCURVE",
"254 116 OFFCURVE",
"218 116 CURVE SMOOTH",
"182 116 OFFCURVE",
"150 84 OFFCURVE",
"150 43 CURVE SMOOTH"
);
}
);
width = 520;
}
);
note = question;
unicode = 003F;
},
{
glyphname = asterisk;
layers = (
{
layerId = "F0C8EF09-FA88-4A15-9CCE-7A8BC6200D57";
paths = (
{
closed = 1;
nodes = (
"316 488 LINE",
"298 454 OFFCURVE",
"270 368 OFFCURVE",
"263 329 CURVE",
"279 309 OFFCURVE",
"300 301 OFFCURVE",
"319 301 CURVE SMOOTH",
"344 301 OFFCURVE",
"369 320 OFFCURVE",
"369 365 CURVE SMOOTH",
"369 400 OFFCURVE",
"353 453 OFFCURVE",
"335 488 CURVE"
);
},
{
closed = 1;
nodes = (
"334 573 LINE",
"352 607 OFFCURVE",
"380 693 OFFCURVE",
"387 732 CURVE",
"371 752 OFFCURVE",
"350 760 OFFCURVE",
"331 760 CURVE SMOOTH",
"306 760 OFFCURVE",
"281 741 OFFCURVE",
"281 696 CURVE SMOOTH",
"281 661 OFFCURVE",
"297 608 OFFCURVE",
"315 573 CURVE"
);
},
{
closed = 1;
nodes = (
"365 545 LINE",
"403 547 OFFCURVE",
"491 566 OFFCURVE",
"528 580 CURVE",
"532 590 OFFCURVE",
"534 600 OFFCURVE",
"534 609 CURVE SMOOTH",
"534 646 OFFCURVE",
"510 664 OFFCURVE",
"485 664 CURVE SMOOTH",
"435 664 OFFCURVE",
"381 603 OFFCURVE",
"355 561 CURVE"
);
},
{
closed = 1;
nodes = (
"360 502 LINE",
"380 469 OFFCURVE",
"440 401 OFFCURVE",
"470 375 CURVE",
"500 380 OFFCURVE",
"529 400 OFFCURVE",
"529 433 CURVE SMOOTH",
"529 494 OFFCURVE",
"412 515 OFFCURVE",
"370 518 CURVE"
);
},
{
closed = 1;
nodes = (
"285 519 LINE",
"247 517 OFFCURVE",
"159 498 OFFCURVE",
"122 484 CURVE",
"118 474 OFFCURVE",
"116 464 OFFCURVE",
"116 455 CURVE SMOOTH",
"116 418 OFFCURVE",
"140 400 OFFCURVE",
"165 400 CURVE SMOOTH",
"215 400 OFFCURVE",
"269 461 OFFCURVE",
"295 503 CURVE"
);
},
{
closed = 1;
nodes = (
"290 562 LINE",
"270 595 OFFCURVE",
"210 663 OFFCURVE",
"180 689 CURVE",
"150 684 OFFCURVE",
"121 664 OFFCURVE",
"121 631 CURVE SMOOTH",
"121 570 OFFCURVE",
"238 549 OFFCURVE",
"280 546 CURVE"
);
}
);
width = 538;
}
);
note = asterisk;
unicode = 002A;
},
{
glyphname = parenleft;
layers = (
{
layerId = "F0C8EF09-FA88-4A15-9CCE-7A8BC6200D57";
paths = (
{
closed = 1;
nodes = (
"485 742 LINE",
"324 684 OFFCURVE",
"103 511 OFFCURVE",
"103 174 CURVE SMOOTH",
"103 7 OFFCURVE",
"158 -123 OFFCURVE",
"352 -220 CURVE",
"389 -170 LINE",
"239 -86 OFFCURVE",
"217 25 OFFCURVE",
"217 194 CURVE SMOOTH",
"217 482 OFFCURVE",
"366 646 OFFCURVE",
"510 700 CURVE"
);
}
);
width = 460;
}
);
note = parenleft;
unicode = 0028;
},
{
glyphname = parenright;
layers = (
{
layerId = "F0C8EF09-FA88-4A15-9CCE-7A8BC6200D57";
paths = (
{
closed = 1;
nodes = (
"-2 -220 LINE",
"159 -162 OFFCURVE",
"380 11 OFFCURVE",
"380 348 CURVE SMOOTH",
"380 515 OFFCURVE",
"325 645 OFFCURVE",
"131 742 CURVE",
"94 692 LINE",
"244 608 OFFCURVE",
"266 497 OFFCURVE",
"266 328 CURVE SMOOTH",
"266 40 OFFCURVE",
"117 -124 OFFCURVE",
"-27 -178 CURVE"
);
}
);
width = 460;
}
);
note = parenright;
unicode = 0029;
},
{
glyphname = bracketleft;
layers = (
{
layerId = "F0C8EF09-FA88-4A15-9CCE-7A8BC6200D57";
paths = (
{
closed = 1;
nodes = (
"321 -210 LINE",
"326 -171 LINE",
"172 -154 LINE",
"176 -43 OFFCURVE",
"193 97 OFFCURVE",
"214 246 CURVE SMOOTH",
"235 398 OFFCURVE",
"272 588 OFFCURVE",
"290 688 CURVE",
"449 704 LINE",
"454 739 LINE",
"186 739 LINE",
"181 652 OFFCURVE",
"165 477 OFFCURVE",
"133 246 CURVE SMOOTH",
"99 8 OFFCURVE",
"76 -111 OFFCURVE",
"53 -210 CURVE"
);
}
);
width = 408;
}
);
note = bracketleft;
unicode = 005B;
},
{
glyphname = bracketright;
layers = (
{
layerId = "F0C8EF09-FA88-4A15-9CCE-7A8BC6200D57";
paths = (
{
closed = 1;
nodes = (
"106 739 LINE",
"101 700 LINE",
"255 683 LINE",
"251 572 OFFCURVE",
"234 432 OFFCURVE",
"213 283 CURVE SMOOTH",
"192 131 OFFCURVE",
"155 -59 OFFCURVE",
"137 -159 CURVE",
"-21 -175 LINE",
"-26 -210 LINE",
"241 -210 LINE",
"246 -123 OFFCURVE",
"262 52 OFFCURVE",
"294 283 CURVE SMOOTH",
"328 521 OFFCURVE",
"351 640 OFFCURVE",
"374 739 CURVE"
);
}
);
width = 408;
}
);
note = bracketright;
unicode = 005D;
},
{
glyphname = parenleft.case;
layers = (
{
layerId = "F0C8EF09-FA88-4A15-9CCE-7A8BC6200D57";
paths = (
{
closed = 1;
nodes = (
"495 822 LINE",
"334 764 OFFCURVE",
"113 591 OFFCURVE",
"113 254 CURVE SMOOTH",
"113 87 OFFCURVE",
"168 -43 OFFCURVE",
"362 -140 CURVE",
"399 -90 LINE",
"249 -6 OFFCURVE",
"227 105 OFFCURVE",
"227 274 CURVE SMOOTH",
"227 562 OFFCURVE",
"376 726 OFFCURVE",
"520 780 CURVE"
);
}
);
width = 460;
}
);
note = parenleft.case;
},
{
glyphname = parenright.case;
layers = (
{
layerId = "F0C8EF09-FA88-4A15-9CCE-7A8BC6200D57";
paths = (
{
closed = 1;
nodes = (
"8 -140 LINE",
"169 -82 OFFCURVE",
"390 91 OFFCURVE",
"390 428 CURVE SMOOTH",
"390 595 OFFCURVE",
"335 725 OFFCURVE",
"141 822 CURVE",
"104 772 LINE",
"254 688 OFFCURVE",
"276 577 OFFCURVE",
"276 408 CURVE SMOOTH",
"276 120 OFFCURVE",
"127 -44 OFFCURVE",
"-17 -98 CURVE"
);
}
);
width = 460;
}
);
note = parenright.case;
},
{
glyphname = bracketleft.case;
layers = (
{
layerId = "F0C8EF09-FA88-4A15-9CCE-7A8BC6200D57";
paths = (
{
closed = 1;
nodes = (
"321 -130 LINE",
"326 -91 LINE",
"172 -74 LINE",
"176 37 OFFCURVE",
"193 177 OFFCURVE",
"214 326 CURVE SMOOTH",
"235 478 OFFCURVE",
"272 668 OFFCURVE",
"290 768 CURVE",
"449 784 LINE",
"454 819 LINE",
"186 819 LINE",
"181 732 OFFCURVE",
"165 557 OFFCURVE",
"133 326 CURVE SMOOTH",
"99 88 OFFCURVE",
"76 -31 OFFCURVE",
"53 -130 CURVE"
);
}
);
width = 408;
}
);
note = bracketleft.case;
},
{
glyphname = bracketright.case;
layers = (
{
layerId = "F0C8EF09-FA88-4A15-9CCE-7A8BC6200D57";
paths = (
{
closed = 1;
nodes = (
"116 819 LINE",
"111 780 LINE",
"265 763 LINE",
"261 652 OFFCURVE",
"244 512 OFFCURVE",
"223 363 CURVE SMOOTH",
"202 211 OFFCURVE",
"165 21 OFFCURVE",
"147 -79 CURVE",
"-11 -95 LINE",
"-16 -130 LINE",
"251 -130 LINE",
"256 -43 OFFCURVE",
"272 132 OFFCURVE",
"304 363 CURVE SMOOTH",
"338 601 OFFCURVE",
"361 720 OFFCURVE",
"384 819 CURVE"
);
}
);
width = 408;
}
);
note = bracketright.case;
},
{
glyphname = hyphen;
layers = (
{
layerId = "F0C8EF09-FA88-4A15-9CCE-7A8BC6200D57";
paths = (
{
closed = 1;
nodes = (
"54 50 LINE",
"73 49 LINE",
"120 86 OFFCURVE",
"191 122 OFFCURVE",
"261 138 CURVE",
"258 200 LINE",
"241 213 LINE",
"183 177 OFFCURVE",
"112 137 OFFCURVE",
"40 112 CURVE"
);
},
{
closed = 1;
nodes = (
"54 189 LINE",
"73 188 LINE",
"120 225 OFFCURVE",
"191 261 OFFCURVE",
"261 277 CURVE",
"258 339 LINE",
"241 352 LINE",
"183 316 OFFCURVE",
"112 276 OFFCURVE",
"40 251 CURVE"
);
}
);
width = 311;
}
);
note = hyphen;
unicode = 002D;
},
{
glyphname = endash;
layers = (
{
layerId = "F0C8EF09-FA88-4A15-9CCE-7A8BC6200D57";
paths = (
{
closed = 1;
nodes = (
"26 206 LINE",
"51 195 LINE",
"112 209 OFFCURVE",
"195 215 OFFCURVE",
"264 215 CURVE SMOOTH",
"366 215 OFFCURVE",
"416 208 OFFCURVE",
"491 199 CURVE",
"522 274 LINE",
"495 285 LINE",
"438 276 OFFCURVE",
"377 272 OFFCURVE",
"291 272 CURVE SMOOTH",
"185 272 OFFCURVE",
"119 275 OFFCURVE",
"47 281 CURVE"
);
}
);
width = 528;
}
);
note = endash;
unicode = 2013;
},
{
glyphname = emdash;
layers = (
{
layerId = "F0C8EF09-FA88-4A15-9CCE-7A8BC6200D57";
paths = (
{
closed = 1;
nodes = (
"55 197 LINE",
"80 186 LINE",
"153 205 OFFCURVE",
"247 215 OFFCURVE",
"382 215 CURVE SMOOTH",
"484 215 OFFCURVE",
"583 211 OFFCURVE",
"689 205 CURVE",
"720 280 LINE",
"693 291 LINE",
"623 276 OFFCURVE",
"529 272 OFFCURVE",
"409 272 CURVE SMOOTH",
"303 272 OFFCURVE",
"159 274 OFFCURVE",
"75 281 CURVE"
);
}
);
width = 756;
}
);
note = emdash;
unicode = 2014;
},
{
glyphname = hyphen.case;
layers = (
{
layerId = "F0C8EF09-FA88-4A15-9CCE-7A8BC6200D57";
paths = (
{
closed = 1;
nodes = (
"74 130 LINE",
"93 129 LINE",
"140 166 OFFCURVE",
"211 202 OFFCURVE",
"281 218 CURVE",
"278 280 LINE",
"261 293 LINE",
"203 257 OFFCURVE",
"132 217 OFFCURVE",
"60 192 CURVE"
);
},
{
closed = 1;
nodes = (
"74 269 LINE",
"93 268 LINE",
"140 305 OFFCURVE",
"211 341 OFFCURVE",
"281 357 CURVE",
"278 419 LINE",
"261 432 LINE",
"203 396 OFFCURVE",
"132 356 OFFCURVE",
"60 331 CURVE"
);
}
);
width = 311;
}
);
note = hyphen.case;
},
{
glyphname = endash.case;
layers = (
{
layerId = "F0C8EF09-FA88-4A15-9CCE-7A8BC6200D57";
paths = (
{
closed = 1;
nodes = (
"46 286 LINE",
"71 275 LINE",
"132 289 OFFCURVE",
"215 295 OFFCURVE",
"284 295 CURVE SMOOTH",
"386 295 OFFCURVE",
"436 288 OFFCURVE",
"511 279 CURVE",
"542 354 LINE",
"515 365 LINE",
"458 356 OFFCURVE",
"397 352 OFFCURVE",
"311 352 CURVE SMOOTH",
"205 352 OFFCURVE",
"139 355 OFFCURVE",
"67 361 CURVE"
);
}
);
width = 528;
}
);
note = endash.case;
},
{
glyphname = emdash.case;
layers = (
{
layerId = "F0C8EF09-FA88-4A15-9CCE-7A8BC6200D57";
paths = (
{
closed = 1;
nodes = (
"85 277 LINE",
"110 266 LINE",
"183 285 OFFCURVE",
"277 295 OFFCURVE",
"412 295 CURVE SMOOTH",
"514 295 OFFCURVE",
"613 291 OFFCURVE",
"719 285 CURVE",
"750 360 LINE",
"723 371 LINE",
"653 356 OFFCURVE",
"559 352 OFFCURVE",
"439 352 CURVE SMOOTH",
"333 352 OFFCURVE",
"189 354 OFFCURVE",
"105 361 CURVE"
);
}
);
width = 756;
}
);
note = emdash.case;
},
{
glyphname = quotesinglbase;
layers = (
{
layerId = "F0C8EF09-FA88-4A15-9CCE-7A8BC6200D57";
paths = (
{
closed = 1;
nodes = (
"43 35 OFFCURVE",
"45 23 OFFCURVE",
"48 14 CURVE",
"73 3 OFFCURVE",
"94 -25 OFFCURVE",
"94 -49 CURVE SMOOTH",
"94 -79 OFFCURVE",
"67 -114 OFFCURVE",
"10 -137 CURVE",
"29 -168 LINE",
"134 -118 OFFCURVE",
"172 -51 OFFCURVE",
"172 10 CURVE SMOOTH",
"172 56 OFFCURVE",
"140 96 OFFCURVE",
"97 96 CURVE SMOOTH",
"63 96 OFFCURVE",
"43 69 OFFCURVE",
"43 44 CURVE SMOOTH"
);
}
);
width = 242;
}
);
leftKerningGroup = comma;
note = quotesinglbase;
rightKerningGroup = comma;
unicode = 201A;
},
{
glyphname = quotedblbase;
layers = (
{
layerId = "F0C8EF09-FA88-4A15-9CCE-7A8BC6200D57";
paths = (
{
closed = 1;
nodes = (
"221 35 OFFCURVE",
"223 23 OFFCURVE",
"226 14 CURVE",
"251 3 OFFCURVE",
"272 -25 OFFCURVE",
"272 -49 CURVE SMOOTH",
"272 -79 OFFCURVE",
"245 -114 OFFCURVE",
"188 -137 CURVE",
"207 -168 LINE",
"312 -118 OFFCURVE",
"350 -51 OFFCURVE",
"350 10 CURVE SMOOTH",
"350 56 OFFCURVE",
"318 96 OFFCURVE",
"275 96 CURVE SMOOTH",
"241 96 OFFCURVE",
"221 69 OFFCURVE",
"221 44 CURVE SMOOTH"
);
},
{
closed = 1;
nodes = (
"43 35 OFFCURVE",
"45 23 OFFCURVE",
"48 14 CURVE",
"73 3 OFFCURVE",
"94 -25 OFFCURVE",
"94 -49 CURVE SMOOTH",
"94 -79 OFFCURVE",
"67 -114 OFFCURVE",
"10 -137 CURVE",
"29 -168 LINE",
"134 -118 OFFCURVE",
"172 -51 OFFCURVE",
"172 10 CURVE SMOOTH",
"172 56 OFFCURVE",
"140 96 OFFCURVE",
"97 96 CURVE SMOOTH",
"63 96 OFFCURVE",
"43 69 OFFCURVE",
"43 44 CURVE SMOOTH"
);
}
);
width = 420;
}
);
leftKerningGroup = comma;
note = quotedblbase;
rightKerningGroup = comma;
unicode = 201E;
},
{
glyphname = quotedblleft;
layers = (
{
layerId = "F0C8EF09-FA88-4A15-9CCE-7A8BC6200D57";
paths = (
{
closed = 1;
nodes = (
"229 524 OFFCURVE",
"227 536 OFFCURVE",
"224 545 CURVE",
"199 556 OFFCURVE",
"178 584 OFFCURVE",
"178 608 CURVE SMOOTH",
"178 638 OFFCURVE",
"205 673 OFFCURVE",
"262 696 CURVE",
"243 727 LINE",
"138 677 OFFCURVE",
"100 610 OFFCURVE",
"100 549 CURVE SMOOTH",
"100 503 OFFCURVE",
"132 463 OFFCURVE",
"175 463 CURVE SMOOTH",
"209 463 OFFCURVE",
"229 490 OFFCURVE",
"229 515 CURVE SMOOTH"
);
},
{
closed = 1;
nodes = (
"405 524 OFFCURVE",
"403 536 OFFCURVE",
"400 545 CURVE",
"375 556 OFFCURVE",
"354 584 OFFCURVE",
"354 608 CURVE SMOOTH",
"354 638 OFFCURVE",
"381 673 OFFCURVE",
"438 696 CURVE",
"419 727 LINE",
"314 677 OFFCURVE",
"276 610 OFFCURVE",
"276 549 CURVE SMOOTH",
"276 503 OFFCURVE",
"308 463 OFFCURVE",
"351 463 CURVE SMOOTH",
"385 463 OFFCURVE",
"405 490 OFFCURVE",
"405 515 CURVE SMOOTH"
);
}
);
width = 418;
}
);
note = quotedblleft;
unicode = 201C;
},
{
glyphname = quotedblright;
layers = (
{
layerId = "F0C8EF09-FA88-4A15-9CCE-7A8BC6200D57";
paths = (
{
closed = 1;
nodes = (
"113 646 OFFCURVE",
"115 634 OFFCURVE",
"118 625 CURVE",
"143 614 OFFCURVE",
"164 586 OFFCURVE",
"164 562 CURVE SMOOTH",
"164 532 OFFCURVE",
"137 497 OFFCURVE",
"80 474 CURVE",
"99 443 LINE",
"204 493 OFFCURVE",
"242 560 OFFCURVE",
"242 621 CURVE SMOOTH",
"242 667 OFFCURVE",
"210 707 OFFCURVE",
"167 707 CURVE SMOOTH",
"133 707 OFFCURVE",
"113 680 OFFCURVE",
"113 655 CURVE SMOOTH"
);
},
{
closed = 1;
nodes = (
"288 646 OFFCURVE",
"290 634 OFFCURVE",
"293 625 CURVE",
"318 614 OFFCURVE",
"339 586 OFFCURVE",
"339 562 CURVE SMOOTH",
"339 532 OFFCURVE",
"312 497 OFFCURVE",
"255 474 CURVE",
"274 443 LINE",
"379 493 OFFCURVE",
"417 560 OFFCURVE",
"417 621 CURVE SMOOTH",
"417 667 OFFCURVE",
"385 707 OFFCURVE",
"342 707 CURVE SMOOTH",
"308 707 OFFCURVE",
"288 680 OFFCURVE",
"288 655 CURVE SMOOTH"
);
}
);
width = 417;
}
);
note = quotedblright;
unicode = 201D;
},
{
glyphname = quoteleft;
layers = (
{
layerId = "F0C8EF09-FA88-4A15-9CCE-7A8BC6200D57";
paths = (
{
closed = 1;
nodes = (
"229 524 OFFCURVE",
"227 536 OFFCURVE",
"224 545 CURVE",
"199 556 OFFCURVE",
"178 584 OFFCURVE",
"178 608 CURVE SMOOTH",
"178 638 OFFCURVE",
"205 673 OFFCURVE",
"262 696 CURVE",
"243 727 LINE",
"138 677 OFFCURVE",
"100 610 OFFCURVE",
"100 549 CURVE SMOOTH",
"100 503 OFFCURVE",
"132 463 OFFCURVE",
"175 463 CURVE SMOOTH",
"209 463 OFFCURVE",
"229 490 OFFCURVE",
"229 515 CURVE SMOOTH"
);
}
);
width = 242;
}
);
note = quoteleft;
unicode = 2018;
},
{
glyphname = quoteright;
layers = (
{
layerId = "F0C8EF09-FA88-4A15-9CCE-7A8BC6200D57";
paths = (
{
closed = 1;
nodes = (
"123 646 OFFCURVE",
"125 634 OFFCURVE",
"128 625 CURVE",
"153 614 OFFCURVE",
"174 586 OFFCURVE",
"174 562 CURVE SMOOTH",
"174 532 OFFCURVE",
"147 497 OFFCURVE",
"90 474 CURVE",
"109 443 LINE",
"214 493 OFFCURVE",
"252 560 OFFCURVE",
"252 621 CURVE SMOOTH",
"252 667 OFFCURVE",
"220 707 OFFCURVE",
"177 707 CURVE SMOOTH",
"143 707 OFFCURVE",
"123 680 OFFCURVE",
"123 655 CURVE SMOOTH"
);
}
);
width = 242;
}
);
note = quoteright;
unicode = 2019;
},
{
glyphname = guillemotleft;
layers = (
{
layerId = "F0C8EF09-FA88-4A15-9CCE-7A8BC6200D57";
paths = (
{
closed = 1;
nodes = (
"297 364 LINE",
"225 409 LINE",
"154 353 OFFCURVE",
"75 260 OFFCURVE",
"40 187 CURVE",
"94 108 OFFCURVE",
"192 24 OFFCURVE",
"243 0 CURVE",
"269 31 LINE",
"218 73 OFFCURVE",
"142 159 OFFCURVE",
"129 191 CURVE",
"147 229 OFFCURVE",
"225 301 OFFCURVE",
"294 344 CURVE"
);
},
{
closed = 1;
nodes = (
"493 75 LINE",
"424 108 OFFCURVE",
"350 163 OFFCURVE",
"332 201 CURVE",
"345 233 OFFCURVE",
"437 316 OFFCURVE",
"488 358 CURVE",
"462 389 LINE",
"411 365 OFFCURVE",
"297 272 OFFCURVE",
"243 193 CURVE",
"278 120 OFFCURVE",
"344 56 OFFCURVE",
"424 10 CURVE",
"496 55 LINE"
);
}
);
width = 546;
}
);
note = guillemotleft;
unicode = 00AB;
},
{
glyphname = guillemotright;
layers = (
{
layerId = "F0C8EF09-FA88-4A15-9CCE-7A8BC6200D57";
paths = (
{
closed = 1;
nodes = (
"249 45 LINE",
"321 0 LINE",
"392 56 OFFCURVE",
"471 149 OFFCURVE",
"506 222 CURVE",
"452 301 OFFCURVE",
"354 385 OFFCURVE",
"303 409 CURVE",
"277 378 LINE",
"328 336 OFFCURVE",
"404 250 OFFCURVE",
"417 218 CURVE",
"399 180 OFFCURVE",
"321 108 OFFCURVE",
"252 65 CURVE"
);
},
{
closed = 1;
nodes = (
"53 334 LINE",
"122 301 OFFCURVE",
"196 246 OFFCURVE",
"214 208 CURVE",
"201 176 OFFCURVE",
"109 93 OFFCURVE",
"58 51 CURVE",
"84 20 LINE",
"135 44 OFFCURVE",
"249 137 OFFCURVE",
"303 216 CURVE",
"268 289 OFFCURVE",
"202 353 OFFCURVE",
"122 399 CURVE",
"50 354 LINE"
);
}
);
width = 546;
}
);
note = guillemotright;
unicode = 00BB;
},
{
glyphname = guilsinglleft;
layers = (
{
layerId = "F0C8EF09-FA88-4A15-9CCE-7A8BC6200D57";
paths = (
{
closed = 1;
nodes = (
"297 364 LINE",
"225 409 LINE",
"154 353 OFFCURVE",
"75 260 OFFCURVE",
"40 187 CURVE",
"94 108 OFFCURVE",
"202 24 OFFCURVE",
"253 0 CURVE",
"279 31 LINE",
"228 73 OFFCURVE",
"142 159 OFFCURVE",
"129 191 CURVE",
"147 229 OFFCURVE",
"225 301 OFFCURVE",
"294 344 CURVE"
);
}
);
width = 347;
}
);
note = guilsinglleft;
unicode = 2039;
},
{
glyphname = guilsinglright;
layers = (
{
layerId = "F0C8EF09-FA88-4A15-9CCE-7A8BC6200D57";
paths = (
{
closed = 1;
nodes = (
"50 45 LINE",
"122 0 LINE",
"193 56 OFFCURVE",
"272 149 OFFCURVE",
"307 222 CURVE",
"253 301 OFFCURVE",
"145 385 OFFCURVE",
"94 409 CURVE",
"68 378 LINE",
"119 336 OFFCURVE",
"205 250 OFFCURVE",
"218 218 CURVE",
"200 180 OFFCURVE",
"122 108 OFFCURVE",
"53 65 CURVE"
);
}
);
width = 347;
}
);
note = guilsinglright;
unicode = 203A;
},
{
glyphname = guillemotleft.case;
layers = (
{
layerId = "F0C8EF09-FA88-4A15-9CCE-7A8BC6200D57";
paths = (
{
closed = 1;
nodes = (
"307 444 LINE",
"235 489 LINE",
"164 433 OFFCURVE",
"85 340 OFFCURVE",
"50 267 CURVE",
"104 188 OFFCURVE",
"202 104 OFFCURVE",
"253 80 CURVE",
"279 111 LINE",
"228 153 OFFCURVE",
"152 239 OFFCURVE",
"139 271 CURVE",
"157 309 OFFCURVE",
"235 381 OFFCURVE",
"304 424 CURVE"
);
},
{
closed = 1;
nodes = (
"503 155 LINE",
"434 188 OFFCURVE",
"360 243 OFFCURVE",
"342 281 CURVE",
"355 313 OFFCURVE",
"447 396 OFFCURVE",
"498 438 CURVE",
"472 469 LINE",
"421 445 OFFCURVE",
"307 352 OFFCURVE",
"253 273 CURVE",
"288 200 OFFCURVE",
"354 136 OFFCURVE",
"434 90 CURVE",
"506 135 LINE"
);
}
);
width = 546;
}
);
note = guillemotleft.case;
},
{
glyphname = guillemotright.case;
layers = (
{
layerId = "F0C8EF09-FA88-4A15-9CCE-7A8BC6200D57";
paths = (
{
closed = 1;
nodes = (
"259 125 LINE",
"331 80 LINE",
"402 136 OFFCURVE",
"481 229 OFFCURVE",
"516 302 CURVE",
"462 381 OFFCURVE",
"364 465 OFFCURVE",
"313 489 CURVE",
"287 458 LINE",
"338 416 OFFCURVE",
"414 330 OFFCURVE",
"427 298 CURVE",
"409 260 OFFCURVE",
"331 188 OFFCURVE",
"262 145 CURVE"
);
},
{
closed = 1;
nodes = (
"63 414 LINE",
"132 381 OFFCURVE",
"206 326 OFFCURVE",
"224 288 CURVE",
"211 256 OFFCURVE",
"119 173 OFFCURVE",
"68 131 CURVE",
"94 100 LINE",
"145 124 OFFCURVE",
"259 217 OFFCURVE",
"313 296 CURVE",
"278 369 OFFCURVE",
"212 433 OFFCURVE",
"132 479 CURVE",
"60 434 LINE"
);
}
);
width = 546;
}
);
note = guillemotright.case;
},
{
glyphname = guilsinglleft.case;
layers = (
{
layerId = "F0C8EF09-FA88-4A15-9CCE-7A8BC6200D57";
paths = (
{
closed = 1;
nodes = (
"307 444 LINE",
"235 489 LINE",
"164 433 OFFCURVE",
"85 340 OFFCURVE",
"50 267 CURVE",
"104 188 OFFCURVE",
"212 104 OFFCURVE",
"263 80 CURVE",
"289 111 LINE",
"238 153 OFFCURVE",
"152 239 OFFCURVE",
"139 271 CURVE",
"157 309 OFFCURVE",
"235 381 OFFCURVE",
"304 424 CURVE"
);
}
);
width = 347;
}
);
note = guilsinglleft.case;
},
{
glyphname = guilsinglright.case;
layers = (
{
layerId = "F0C8EF09-FA88-4A15-9CCE-7A8BC6200D57";
paths = (
{
closed = 1;
nodes = (
"60 125 LINE",
"132 80 LINE",
"203 136 OFFCURVE",
"282 229 OFFCURVE",
"317 302 CURVE",
"263 381 OFFCURVE",
"155 465 OFFCURVE",
"104 489 CURVE",
"78 458 LINE",
"129 416 OFFCURVE",
"215 330 OFFCURVE",
"228 298 CURVE",
"210 260 OFFCURVE",
"132 188 OFFCURVE",
"63 145 CURVE"
);
}
);
width = 347;
}
);
note = guilsinglright.case;
},
{
glyphname = ampersand;
layers = (
{
layerId = "F0C8EF09-FA88-4A15-9CCE-7A8BC6200D57";
paths = (
{
closed = 1;
nodes = (
"377 261 LINE",
"460 261 OFFCURVE",
"499 228 OFFCURVE",
"533 191 CURVE",
"464 113 OFFCURVE",
"415 63 OFFCURVE",
"343 63 CURVE SMOOTH",
"255 63 OFFCURVE",
"200 121 OFFCURVE",
"200 215 CURVE SMOOTH",
"200 293 OFFCURVE",
"236 352 OFFCURVE",
"296 386 CURVE",
"332 362 OFFCURVE",
"368 346 OFFCURVE",
"407 346 CURVE SMOOTH",
"452 346 OFFCURVE",
"479 367 OFFCURVE",
"479 407 CURVE SMOOTH",
"479 443 OFFCURVE",
"451 466 OFFCURVE",
"410 466 CURVE SMOOTH",
"386 466 OFFCURVE",
"360 462 OFFCURVE",
"331 452 CURVE",
"320 468 OFFCURVE",
"312 488 OFFCURVE",
"312 514 CURVE SMOOTH",
"312 600 OFFCURVE",
"374 675 OFFCURVE",
"441 675 CURVE SMOOTH",
"480 675 OFFCURVE",
"511 648 OFFCURVE",
"513 578 CURVE",
"541 550 LINE",
"564 566 OFFCURVE",
"589 607 OFFCURVE",
"591 643 CURVE",
"562 682 OFFCURVE",
"532 710 OFFCURVE",
"442 710 CURVE SMOOTH",
"356 710 OFFCURVE",
"220 643 OFFCURVE",
"220 517 CURVE SMOOTH",
"220 483 OFFCURVE",
"232 448 OFFCURVE",
"261 419 CURVE",
"191 385 OFFCURVE",
"96 303 OFFCURVE",
"96 173 CURVE SMOOTH",
"96 72 OFFCURVE",
"172 -19 OFFCURVE",
"301 -19 CURVE SMOOTH",
"416 -19 OFFCURVE",
"477 46 OFFCURVE",
"566 155 CURVE",
"602 118 OFFCURVE",
"646 85 OFFCURVE",
"739 85 CURVE SMOOTH",
"752 85 OFFCURVE",
"769 86 OFFCURVE",
"788 88 CURVE",
"798 140 LINE",
"610 140 OFFCURVE",
"650 310 OFFCURVE",
"463 310 CURVE SMOOTH",
"449 310 OFFCURVE",
"415 309 OFFCURVE",
"375 302 CURVE"
);
},
{
closed = 1;
nodes = (
"413 425 OFFCURVE",
"424 417 OFFCURVE",
"424 406 CURVE SMOOTH",
"424 394 OFFCURVE",
"416 388 OFFCURVE",
"402 388 CURVE SMOOTH",
"385 388 OFFCURVE",
"370 400 OFFCURVE",
"353 417 CURVE",
"366 421 OFFCURVE",
"382 425 OFFCURVE",
"397 425 CURVE SMOOTH"
);
}
);
width = 833;
}
);
note = ampersand;
unicode = 0026;
},
{
glyphname = acute;
layers = (
{
layerId = "F0C8EF09-FA88-4A15-9CCE-7A8BC6200D57";
paths = (
{
closed = 1;
nodes = (
"24 499 LINE",
"101 520 OFFCURVE",
"146 567 OFFCURVE",
"165 626 CURVE",
"112 662 LINE",
"82 658 LINE",
"75 615 OFFCURVE",
"45 568 OFFCURVE",
"0 534 CURVE"
);
}
);
width = 165;
}
);
note = acute;
unicode = 00B4;
},
{
glyphname = caron;
layers = (
{
layerId = "F0C8EF09-FA88-4A15-9CCE-7A8BC6200D57";
paths = (
{
closed = 1;
nodes = (
"123 514 LINE",
"220 613 LINE",
"200 636 LINE",
"113 596 LINE",
"30 635 LINE",
"0 613 LINE",
"76 514 LINE"
);
}
);
width = 220;
}
);
note = caron;
unicode = 02C7;
},
{
glyphname = cedilla;
layers = (
{
layerId = "F0C8EF09-FA88-4A15-9CCE-7A8BC6200D57";
paths = (
{
closed = 1;
nodes = (
"16 0 LINE",
"4 -87 LINE",
"18 -82 OFFCURVE",
"33 -79 OFFCURVE",
"48 -79 CURVE SMOOTH",
"68 -79 OFFCURVE",
"81 -88 OFFCURVE",
"81 -108 CURVE SMOOTH",
"81 -137 OFFCURVE",
"58 -146 OFFCURVE",
"40 -146 CURVE SMOOTH",
"22 -146 OFFCURVE",
"11 -140 OFFCURVE",
"-1 -131 CURVE",
"-19 -161 LINE",
"-6 -173 OFFCURVE",
"10 -180 OFFCURVE",
"32 -180 CURVE SMOOTH",
"67 -180 OFFCURVE",
"118 -155 OFFCURVE",
"118 -100 CURVE SMOOTH",
"118 -71 OFFCURVE",
"102 -48 OFFCURVE",
"74 -48 CURVE SMOOTH",
"60 -48 OFFCURVE",
"48 -51 OFFCURVE",
"36 -57 CURVE",
"44 0 LINE"
);
}
);
width = 130;
}
);
note = cedilla;
unicode = 00B8;
},
{
glyphname = circumflex;
layers = (
{
layerId = "F0C8EF09-FA88-4A15-9CCE-7A8BC6200D57";
paths = (
{
closed = 1;
nodes = (
"97 636 LINE",
"0 537 LINE",
"20 514 LINE",
"107 554 LINE",
"190 515 LINE",
"220 537 LINE",
"144 636 LINE"
);
}
);
width = 220;
}
);
note = circumflex;
unicode = 02C6;
},
{
glyphname = dieresis;
layers = (
{
layerId = "F0C8EF09-FA88-4A15-9CCE-7A8BC6200D57";
paths = (
{
closed = 1;
nodes = (
"0 563 OFFCURVE",
"23 536 OFFCURVE",
"57 536 CURVE SMOOTH",
"92 536 OFFCURVE",
"123 567 OFFCURVE",
"123 607 CURVE SMOOTH",
"123 639 OFFCURVE",
"99 666 OFFCURVE",
"65 666 CURVE SMOOTH",
"31 666 OFFCURVE",
"0 635 OFFCURVE",
"0 596 CURVE SMOOTH"
);
},
{
closed = 1;
nodes = (
"196 563 OFFCURVE",
"219 536 OFFCURVE",
"254 536 CURVE SMOOTH",
"288 536 OFFCURVE",
"320 567 OFFCURVE",
"320 607 CURVE SMOOTH",
"320 639 OFFCURVE",
"296 666 OFFCURVE",
"261 666 CURVE SMOOTH",
"227 666 OFFCURVE",
"196 635 OFFCURVE",
"196 596 CURVE SMOOTH"
);
}
);
width = 320;
}
);
note = dieresis;
unicode = 00A8;
},
{
glyphname = dotaccent;
layers = (
{
layerId = "F0C8EF09-FA88-4A15-9CCE-7A8BC6200D57";
paths = (
{
closed = 1;
nodes = (
"0 600 OFFCURVE",
"24 572 OFFCURVE",
"60 572 CURVE SMOOTH",
"96 572 OFFCURVE",
"129 604 OFFCURVE",
"129 646 CURVE SMOOTH",
"129 680 OFFCURVE",
"104 708 OFFCURVE",
"68 708 CURVE SMOOTH",
"32 708 OFFCURVE",
"0 676 OFFCURVE",
"0 635 CURVE SMOOTH"
);
}
);
width = 129;
}
);
note = dotaccent;
unicode = 02D9;
},
{
glyphname = grave;
layers = (
{
layerId = "F0C8EF09-FA88-4A15-9CCE-7A8BC6200D57";
paths = (
{
closed = 1;
nodes = (
"165 534 LINE",
"120 568 OFFCURVE",
"90 615 OFFCURVE",
"83 658 CURVE",
"53 662 LINE",
"0 626 LINE",
"19 567 OFFCURVE",
"64 520 OFFCURVE",
"141 499 CURVE"
);
}
);
width = 165;
}
);
note = grave;
unicode = 0060;
},
{
glyphname = tilde;
layers = (
{
layerId = "F0C8EF09-FA88-4A15-9CCE-7A8BC6200D57";
paths = (
{
closed = 1;
nodes = (
"19 544 LINE",
"37 557 OFFCURVE",
"63 574 OFFCURVE",
"88 574 CURVE SMOOTH",
"137 574 OFFCURVE",
"152 531 OFFCURVE",
"216 531 CURVE SMOOTH",
"260 531 OFFCURVE",
"291 562 OFFCURVE",
"320 600 CURVE",
"305 621 LINE",
"283 606 OFFCURVE",
"260 595 OFFCURVE",
"228 595 CURVE SMOOTH",
"180 595 OFFCURVE",
"166 637 OFFCURVE",
"110 637 CURVE SMOOTH",
"65 637 OFFCURVE",
"17 589 OFFCURVE",
"0 565 CURVE"
);
}
);
width = 320;
}
);
note = tilde;
unicode = 02DC;
},
